<?xml version="1.0" encoding="UTF-8"?>
<svg id="_레이어_2" data-name="레이어 2" xmlns="http://www.w3.org/2000/svg" viewBox="0 0 1975.98 1038.2">
  <defs>
    <style>
      .cls-1 {
        fill: #fef175;
      }
    </style>
  </defs>
  <g id="_레이어_1-2" data-name="레이어 1">
    <path class="cls-1" d="M1811.84,167.41C1651.52,16.7,1396.05,0,987.99,0S324.47,16.7,164.15,167.41C28.29,295.13,0,419.56,0,554.87c0,145.68,77.51,446.18,387.46,477.1,271.45,27.08,373.56-36.1,431.81-150.06,30.76-60.18,70.43-157.62,99.16-236.13,28.23-77.15,57.15-80.61,69.56-80.61s41.33,3.45,69.56,80.61c28.73,78.51,68.4,175.96,99.16,236.13,58.25,113.96,160.36,177.14,431.8,150.06,309.95-30.92,387.46-331.42,387.46-477.1,0-135.31-28.29-259.74-164.15-387.46Z"/>
  </g>
</svg>