# www.textures.com
v 9.105720 0.620533 1.547301
v 9.710683 0.319506 1.943572
v 9.915730 0.213978 1.604432
v 9.010812 0.533333 1.096195
v 9.919397 -0.260772 1.276211
v 9.027890 0.608279 2.235385
v 8.389465 1.141666 1.790894
v 9.449432 -0.098494 2.508112
v 9.947806 -0.636938 1.758718
v 10.378684 -0.087733 1.922602
v 9.689442 -0.760515 2.064825
v 9.848544 -0.303730 2.316212
v 9.600752 -0.864934 1.517779
v 9.205018 -0.828687 1.144019
v 9.132480 -1.071824 2.138921
v 9.038799 -0.501776 2.808116
v 8.421945 -1.238391 2.538645
v 6.848766 0.927828 3.340871
v 7.654794 -0.195641 3.549325
v 8.013288 1.013802 2.776027
v 7.495402 1.338682 1.891376
v 5.883938 0.473840 3.855342
v 6.865119 -0.314846 3.776869
v 6.825153 1.436432 2.348165
v 6.389520 -1.242489 3.647295
v 7.517475 -1.333076 3.188351
v 5.927809 -0.617718 3.923301
v 6.970829 -1.838430 2.738971
v 8.599548 -0.015350 3.163674
v 5.812451 -2.117880 1.929869
v 6.919252 -2.018420 1.634729
v 8.158304 -1.671130 1.767719
v 6.188272 -1.808094 0.902345
v 7.995760 -1.401388 0.882578
v 8.553851 -0.324122 0.538656
v 7.150651 1.195957 1.123374
v 7.840624 -0.476164 0.419710
v 7.947798 0.578456 0.547480
v 5.626477 -0.989002 0.272147
v 7.102325 -0.613617 0.302580
v 6.486566 0.398175 0.315924
v 6.068221 1.315246 1.097785
v 5.811242 -0.230919 0.162537
v 5.274607 -2.162175 1.237226
v 5.899560 -2.033992 2.890611
v 4.675758 -2.357447 2.830794
v 4.581936 -2.466753 1.947866
v 3.284364 -2.408713 1.291662
v 4.555787 -2.139991 1.095263
v 3.721232 -2.043167 3.629688
v 4.991644 -1.466931 3.792180
v 4.811261 -1.426177 0.470377
v 4.715607 -0.323392 0.130667
v 5.126526 0.801105 0.478985
v 3.385946 -1.847646 0.517255
v 3.884262 -1.034155 0.193608
v 5.449752 1.465889 2.765103
v 4.339290 0.372024 4.084136
v 4.123863 1.341798 3.183988
v 5.907294 1.461142 2.099802
v 5.092137 1.442952 1.386982
v 3.904022 1.736360 2.274138
v 3.915212 1.473797 1.535041
v 3.485668 1.032956 0.622756
v 4.165241 0.243687 0.167623
v 2.719750 -1.641616 4.299852
v 2.199517 -2.481879 3.481860
v 2.912777 -2.619108 2.847129
v 3.756339 -2.601074 2.537587
v 3.484673 -1.383857 4.129844
v 3.099376 -2.649769 2.131007
v 2.067888 -2.714665 2.068546
v 1.402996 -1.563577 4.512312
v 1.211628 -2.637405 3.366153
v 0.489501 -2.558172 1.312293
v 0.852454 -2.845968 2.100839
v -0.048383 -2.836960 2.012764
v 0.088803 -2.791495 3.219019
v -0.948057 -2.873600 1.969333
v -0.805456 -2.683649 1.378916
v -1.103260 -3.041479 2.651885
v 0.076526 -1.793057 4.500307
v -1.269117 -2.542027 3.906739
v 1.625562 -2.524925 1.319799
v 1.722851 -2.031017 0.610138
v 2.892270 -0.228731 0.139329
v 2.860593 -1.086484 0.246841
v 1.685856 -1.036235 0.192489
v 1.981719 0.269692 0.360875
v -0.210789 -2.029800 0.606325
v 0.152067 -1.202515 0.251250
v 0.723627 -1.302532 0.275385
v 0.795060 -0.441559 0.185868
v 1.168585 0.892583 0.704894
v 0.162125 0.790225 0.651393
v -0.546526 -0.172960 0.266693
v -0.426317 -1.000404 0.153588
v 3.192007 0.008982 4.371181
v 2.565699 0.339027 4.313271
v 3.419868 -0.656981 4.264256
v 4.578825 -0.737320 4.204943
v 2.363003 -0.760573 4.550408
v 1.536864 -0.027744 4.511153
v 2.004767 1.356421 3.617566
v 3.296006 0.866070 3.934738
v 3.014790 1.285485 3.359341
v 0.073923 0.449405 4.519934
v 0.950646 -0.846181 4.677643
v 0.156363 -0.926923 4.801452
v -0.552325 -1.102487 4.783000
v -0.697319 -0.207781 4.841434
v 0.970921 1.749288 2.697714
v 0.964882 1.029900 3.994700
v -0.166283 1.543463 3.335786
v 2.625150 1.586100 1.763749
v 2.622242 1.652523 2.662069
v 1.847554 1.624287 1.673956
v 2.312337 1.187612 0.910278
v 0.789605 1.679386 1.853467
v -0.185089 1.623573 2.054690
v -0.464675 1.384369 1.152912
v -1.113553 0.623727 0.578974
v -3.416977 -3.036329 2.735836
v -2.214140 -3.027534 2.966134
v -2.873834 -2.414049 4.056382
v -1.916131 -2.718345 1.517459
v -2.614934 -2.950183 1.907430
v -3.262985 -2.913306 2.008070
v -3.318794 -2.540006 1.111621
v -4.407472 -3.092386 3.126946
v -3.829916 -2.757166 3.641268
v -4.188593 -2.945886 1.783237
v -5.035272 -3.020098 2.752713
v -5.537925 -2.782759 3.570785
v -4.884916 -3.001857 1.955597
v -5.535917 -2.897825 1.529973
v -4.837577 -2.597361 1.180887
v -4.169921 -1.575954 4.733905
v -3.628019 -1.360835 4.800983
v -4.568856 -2.301505 4.136546
v -1.500335 -1.837280 0.435739
v -2.949322 -1.741088 0.395835
v -1.081801 -1.071196 0.317592
v -2.237953 -0.633449 0.144079
v -1.424051 -0.150713 0.210845
v -3.064991 -0.800434 0.164639
v -3.218312 0.145878 0.250253
v -4.253905 -1.859670 0.377276
v -5.363039 -1.983134 0.470726
v -3.897990 -0.882566 0.172064
v -4.094149 0.498624 0.396936
v -4.945517 -0.943889 0.272869
v -5.313510 0.328853 0.262597
v -1.468613 0.210145 4.749432
v -1.251080 -1.681979 4.723915
v -1.768849 -1.410600 4.750056
v -2.567702 -0.425186 4.902404
v -2.854011 -1.369493 4.765545
v -2.282956 -1.431192 4.853501
v -1.294577 1.437547 3.563975
v -2.757811 0.877857 4.259408
v -2.656256 1.578991 3.338070
v -3.654356 -0.095727 4.852900
v -4.460504 -0.660451 4.875033
v -5.047261 -1.435647 4.696290
v -3.857155 1.543711 3.329526
v -4.480311 1.094393 4.089952
v -4.531599 0.261924 4.617330
v -2.046919 0.812962 0.627484
v -1.570753 1.400976 1.269896
v -2.942652 1.398951 1.216871
v -1.887620 1.715308 2.182121
v -1.138211 1.620465 2.216270
v -2.956893 1.702613 2.400259
v -3.951425 1.658665 2.383654
v -4.229468 1.507059 1.462027
v -5.174172 1.593620 3.239074
v -4.812268 1.665881 2.314068
v -5.513930 1.432024 1.365751
v -6.071334 -2.181288 4.218355
v -6.289292 -2.953543 3.029220
v -7.566494 -2.257951 3.979211
v -6.603522 -2.857057 1.755192
v -7.459052 -2.891117 2.323921
v -5.620431 -0.508991 4.836054
v -6.224145 -1.329051 4.730260
v -7.055781 -0.083723 4.758009
v -7.446670 -1.328805 4.616887
v -6.779597 1.488057 3.549589
v -5.838603 0.800772 4.376391
v -6.084873 -0.978876 0.114188
v -6.446471 -2.392622 0.946348
v -7.101495 -1.587603 0.279187
v -8.110307 -1.977807 0.658438
v -6.584700 0.472487 0.368486
v -8.087099 0.410109 0.447180
v -8.217690 -0.672485 0.233010
v -6.921496 -0.731773 0.125836
v -6.984058 1.490049 1.421882
v -5.351068 1.661410 2.165042
v -6.169354 1.671165 2.351000
v -8.044776 1.478870 1.662140
v -7.200900 1.622353 2.478496
v -8.429582 0.352170 4.499237
v -8.106437 -1.119529 4.594279
v -9.027556 -1.230899 4.244426
v -8.528419 -2.633376 3.077462
v -8.207892 -2.723762 1.703400
v -9.006245 -2.589342 1.890519
v -9.879018 -1.124203 3.687653
v -9.583130 -2.138324 3.148545
v -8.089030 1.503597 3.312092
v -9.811190 0.096634 4.032655
v -9.617940 1.063762 3.281049
v -10.011689 -0.319962 3.233462
v -10.237972 0.018261 2.990686
v -9.837327 -0.985116 3.147498
v -10.446806 -1.316564 2.072112
v -10.098051 -1.386292 2.700527
v -9.811207 -1.716691 2.045346
v -9.482879 -1.663562 0.869784
v -9.668001 -0.670686 0.641295
v -9.354275 0.921614 1.210399
v -9.884748 -1.068630 1.402210
v -10.339748 -0.662657 1.507077
v -9.936203 -0.273990 0.983235
v -9.065396 1.350092 2.489948
v -8.634081 1.443668 2.127833
v -9.890462 0.588165 1.857355
v -9.949457 -0.020534 1.967872
vt 0.303627 0.318099
vt 0.273562 0.311625
vt 0.262624 0.297284
vt 0.318121 0.294836
vt 0.269123 0.273172
vt 0.509872 0.733535
vt 0.469316 0.753391
vt 0.474991 0.725117
vt 0.345546 0.347648
vt 0.308274 0.346858
vt 0.500508 0.776326
vt 0.828410 0.177673
vt 0.777725 0.172345
vt 0.806298 0.153679
vt 0.798608 0.193390
vt 0.767730 0.184193
vt 0.779817 0.205409
vt 0.912926 0.319222
vt 0.930758 0.300894
vt 0.929999 0.322613
vt 0.964340 0.313966
vt 0.940542 0.274648
vt 0.891394 0.287231
vt 0.904844 0.745120
vt 0.953819 0.742935
vt 0.923102 0.769035
vt 0.936906 0.701849
vt 0.950205 0.775145
vt 0.972131 0.762640
vt 0.641103 0.713380
vt 0.614992 0.777910
vt 0.572847 0.712990
vt 0.529784 0.687444
vt 0.574631 0.663262
vt 0.701144 0.730045
vt 0.657405 0.780476
vt 0.617645 0.657758
vt 0.878942 0.596330
vt 0.907301 0.653709
vt 0.848652 0.632408
vt 0.839167 0.581375
vt 0.870602 0.679380
vt 0.939594 0.620019
vt 0.559178 0.777631
vt 0.873170 0.727677
vt 0.982853 0.558005
vt 0.991494 0.609718
vt 0.981465 0.688914
vt 0.887822 0.116025
vt 0.916747 0.206699
vt 0.855050 0.159939
vt 0.870770 0.229017
vt 0.977864 0.235428
vt 0.414194 0.329669
vt 0.343004 0.247054
vt 0.383034 0.247657
vt 0.378027 0.280370
vt 0.419516 0.372684
vt 0.387682 0.365466
vt 0.939745 0.079390
vt 0.963790 0.154463
vt 0.973798 0.196932
vt 0.455770 0.271047
vt 0.417908 0.246348
vt 0.471934 0.338424
vt 0.496522 0.243028
vt 0.825921 0.103828
vt 0.857074 0.070443
vt 0.933716 0.563126
vt 0.937832 0.495673
vt 0.980657 0.491723
vt 0.692829 0.847490
vt 0.624970 0.862909
vt 0.624988 0.818381
vt 0.598639 0.846136
vt 0.890777 0.450871
vt 0.871303 0.520410
vt 0.908768 0.040583
vt 0.559114 0.244778
vt 0.524577 0.302909
vt 0.980039 0.088865
vt 0.966326 0.026720
vt 0.612555 0.911288
vt 0.685142 0.899250
vt 0.651406 0.942124
vt 0.858760 0.047499
vt 0.611740 0.964637
vt 0.694116 0.646262
vt 0.782610 0.713087
vt 0.768229 0.643643
vt 0.657073 0.624543
vt 0.692004 0.579985
vt 0.761486 0.590370
vt 0.746961 0.554303
vt 0.520171 0.360951
vt 0.582348 0.371039
vt 0.612380 0.328323
vt 0.579749 0.277004
vt 0.412369 0.510062
vt 0.370592 0.457881
vt 0.436687 0.463247
vt 0.926811 0.418633
vt 0.951475 0.444275
vt 0.404306 0.419874
vt 0.847220 0.442990
vt 0.958277 0.411923
vt 0.411737 0.386005
vt 0.353901 0.388474
vt 0.754498 0.804106
vt 0.704862 0.803618
vt 0.673780 0.804710
vt 0.346917 0.538893
vt 0.315252 0.460966
vt 0.840016 0.841353
vt 0.813556 0.802785
vt 0.869619 0.800815
vt 0.233301 0.405376
vt 0.282786 0.398877
vt 0.253614 0.465497
vt 0.918459 0.805697
vt 0.907086 0.836297
vt 0.183661 0.412684
vt 0.182854 0.449655
vt 0.275378 0.549611
vt 0.192266 0.522187
vt 0.778689 0.843827
vt 0.774259 0.890757
vt 0.649153 0.261027
vt 0.653236 0.218432
vt 0.711371 0.944412
vt 0.603680 0.224331
vt 0.714462 0.223515
vt 0.695212 0.292552
vt 0.777922 0.942113
vt 0.879161 0.887182
vt 0.863517 0.935102
vt 0.831129 0.930435
vt 0.761373 0.254070
vt 0.739729 0.332055
vt 0.769520 0.220847
vt 0.792414 0.325544
vt 0.829617 0.270741
vt 0.899453 0.936357
vt 0.828975 0.230288
vt 0.799017 0.222274
vt 0.057500 0.013940
vt 0.069115 0.043986
vt 0.016512 0.013074
vt 0.448975 0.539718
vt 0.447669 0.512749
vt 0.815517 0.438968
vt 0.825521 0.501298
vt 0.846429 0.711466
vt 0.846271 0.748760
vt 0.784980 0.769599
vt 0.012732 0.060368
vt 0.054962 0.101871
vt 0.406513 0.559171
vt 0.139239 0.063065
vt 0.095081 0.012796
vt 0.136728 0.017003
vt 0.826957 0.630136
vt 0.825163 0.669211
vt 0.089256 0.175999
vt 0.014109 0.137312
vt 0.340122 0.578177
vt 0.298561 0.586631
vt 0.013488 0.221743
vt 0.015342 0.180142
vt 0.057981 0.223051
vt 0.252849 0.596042
vt 0.202176 0.105753
vt 0.123699 0.122319
vt 0.178505 0.173155
vt 0.807724 0.542259
vt 0.814764 0.588676
vt 0.185581 0.024266
vt 0.231016 0.046660
vt 0.222055 0.015701
vt 0.655981 0.398231
vt 0.675965 0.349366
vt 0.702643 0.395092
vt 0.242707 0.105292
vt 0.246437 0.162876
vt 0.762388 0.405370
vt 0.826757 0.364435
vt 0.819862 0.413058
vt 0.856516 0.312487
vt 0.063437 0.481817
vt 0.129176 0.477521
vt 0.111567 0.551804
vt 0.718065 0.532513
vt 0.672251 0.541516
vt 0.700184 0.508436
vt 0.133909 0.418177
vt 0.094934 0.430263
vt 0.058227 0.442100
vt 0.625635 0.608946
vt 0.597945 0.570853
vt 0.652071 0.582233
vt 0.030294 0.512750
vt 0.055994 0.534991
vt 0.012596 0.455848
vt 0.308613 0.942643
vt 0.274683 0.920117
vt 0.335811 0.897266
vt 0.019735 0.496556
vt 0.269291 0.982128
vt 0.298356 0.982237
vt 0.516010 0.661663
vt 0.532720 0.621578
vt 0.555590 0.656099
vt 0.050997 0.617541
vt 0.080637 0.623007
vt 0.046276 0.571555
vt 0.925969 0.886113
vt 0.647465 0.472857
vt 0.580627 0.511140
vt 0.268481 0.014079
vt 0.323945 0.030428
vt 0.283374 0.055391
vt 0.593933 0.452995
vt 0.649518 0.430213
vt 0.367589 0.017089
vt 0.381366 0.067736
vt 0.549300 0.475272
vt 0.524350 0.555589
vt 0.480973 0.596925
vt 0.415836 0.015568
vt 0.428991 0.087894
vt 0.511354 0.502852
vt 0.464670 0.538461
vt 0.477393 0.013674
vt 0.494645 0.080222
vt 0.085838 0.261349
vt 0.015312 0.257037
vt 0.011816 0.286972
vt 0.208617 0.581229
vt 0.061647 0.324264
vt 0.016259 0.350801
vt 0.019486 0.308986
vt 0.176977 0.236298
vt 0.141335 0.322042
vt 0.202319 0.307905
vt 0.089120 0.377955
vt 0.075803 0.411027
vt 0.026697 0.393755
vt 0.255190 0.975248
vt 0.217906 0.968370
vt 0.254476 0.933671
vt 0.036930 0.420437
vt 0.208031 0.371390
vt 0.165008 0.387179
vt 0.121729 0.410458
vt 0.318849 0.107815
vt 0.274781 0.098556
vt 0.293181 0.152640
vt 0.859037 0.365015
vt 0.365438 0.152324
vt 0.304489 0.202525
vt 0.266526 0.199301
vt 0.243692 0.218741
vt 0.239048 0.265562
vt 0.247900 0.321049
vt 0.363422 0.216583
vt 0.253454 0.374893
vt 0.434211 0.168542
vt 0.419408 0.217546
vt 0.055631 0.986521
vt 0.057879 0.941078
vt 0.114490 0.970398
vt 0.022888 0.990862
vt 0.019362 0.963079
vt 0.465804 0.213454
vt 0.505471 0.162444
vt 0.366383 0.850927
vt 0.290031 0.857654
vt 0.375823 0.928022
vt 0.444744 0.868337
vt 0.388743 0.991014
vt 0.323972 0.993279
vt 0.437007 0.962144
vt 0.206077 0.906863
vt 0.244406 0.872471
vt 0.312927 0.802431
vt 0.379879 0.803072
vt 0.178187 0.833808
vt 0.450215 0.810641
vt 0.237795 0.805256
vt 0.071865 0.854102
vt 0.131230 0.901469
vt 0.415451 0.579407
vt 0.453728 0.657532
vt 0.393199 0.634502
vt 0.472595 0.701606
vt 0.366442 0.688443
vt 0.540486 0.029681
vt 0.563564 0.090591
vt 0.642379 0.091092
vt 0.656786 0.037387
vt 0.373420 0.595094
vt 0.316457 0.637119
vt 0.578774 0.029280
vt 0.584828 0.166518
vt 0.017142 0.931994
vt 0.012960 0.884085
vt 0.496588 0.207102
vt 0.641542 0.177542
vt 0.594432 0.217792
vt 0.015748 0.830640
vt 0.541539 0.214369
vt 0.145862 0.765248
vt 0.220326 0.769376
vt 0.195943 0.718111
vt 0.491678 0.922522
vt 0.477188 0.983027
vt 0.527419 0.976182
vt 0.581045 0.861813
vt 0.548723 0.910814
vt 0.537067 0.836865
vt 0.059692 0.785392
vt 0.133795 0.691719
vt 0.075093 0.708863
vt 0.125747 0.648200
vt 0.168343 0.657899
vt 0.081460 0.653834
vt 0.153178 0.626069
vt 0.597016 0.885574
vt 0.923701 0.400617
vt 0.919088 0.338771
vt 0.947461 0.363606
vt 0.585933 0.913341
vt 0.585260 0.951145
vt 0.790678 0.987328
vt 0.763298 0.984823
vt 0.806844 0.971815
vt 0.362831 0.768893
vt 0.305804 0.728570
vt 0.397464 0.744095
vt 0.711427 0.068911
vt 0.707361 0.138027
vt 0.261926 0.706038
vt 0.835163 0.954360
vt 0.838898 0.982475
vt 0.881242 0.329024
vt 0.877875 0.358648
vt 0.238724 0.723153
vt 0.262848 0.757665
vt 0.030419 0.723716
vt 0.009468 0.747810
vt 0.003865 0.793439
vt 0.682350 0.193532
vt 0.045027 0.661318
vt 0.713752 0.042635
vt 0.670714 0.017842
vt 0.720024 0.013504
vt 0.879225 0.384085
vt 0.299257 0.256567
vt 0.478340 0.785483
vt 0.520532 0.795038
vt 0.821195 0.201874
vt 0.775996 0.005767
vt 0.771100 0.029595
vt 0.755387 0.018421
vt 0.933877 0.787387
vt 0.465401 0.387473
vt 0.819687 0.062830
vt 0.714647 0.782501
vt 0.922693 0.925526
vt 0.184006 0.025747
vt 0.862486 0.407634
vt 0.183930 0.600584
vt 0.580446 0.629983
vt 0.268560 0.891071
vt 0.271901 0.811047
vt 0.866389 0.273946
vt 0.856054 0.249128
vt 0.855806 0.229373
vt 0.121553 0.615716
vt 0.154123 0.606310
vt 0.167394 0.968875
vt 0.428738 0.733243
vt 0.492621 0.816605
vt 0.298591 0.785134
vt 0.874267 0.965011
vt 0.745067 0.087604
vt 0.695104 0.979468
vt 0.645873 0.984833
vt 0.657417 0.967005
vt 0.754325 0.044190
vt 0.747404 0.069923
vt 0.723194 0.184769
vt 0.752638 0.145772
vt 0.741010 0.973748
vn 0.4962 0.8598 -0.1206
vn 0.5029 0.7915 0.3474
vn 0.6853 0.6296 -0.3660
vn 0.4880 0.5928 -0.6407
vn 0.7545 -0.0396 -0.6551
vn 0.5445 0.7382 0.3983
vn 0.3898 0.9178 -0.0761
vn 0.6065 0.1559 0.7797
vn 0.7785 -0.6169 -0.1156
vn 0.9892 0.1377 0.0498
vn 0.5101 -0.7085 0.4877
vn 0.5036 -0.1305 0.8540
vn 0.4777 -0.8213 -0.3120
vn 0.4915 -0.5590 -0.6678
vn 0.5237 -0.7931 0.3111
vn 0.5377 -0.3796 0.7528
vn 0.4238 -0.7091 0.5636
vn 0.2167 0.6662 0.7136
vn 0.3824 0.0100 0.9239
vn 0.3645 0.7546 0.5456
vn 0.1691 0.9846 -0.0453
vn 0.1375 0.4277 0.8934
vn 0.2580 -0.0532 0.9647
vn 0.1322 0.9794 0.1528
vn 0.2331 -0.5104 0.8277
vn 0.4125 -0.5912 0.6930
vn 0.1752 -0.1249 0.9766
vn 0.2588 -0.8885 0.3789
vn 0.4677 0.1139 0.8765
vn 0.2093 -0.9767 -0.0484
vn 0.1776 -0.9736 -0.1437
vn 0.4051 -0.9142 -0.0135
vn 0.1303 -0.7806 -0.6113
vn 0.3062 -0.7001 -0.6450
vn 0.4310 -0.0698 -0.8996
vn 0.1262 0.8732 -0.4708
vn 0.1888 -0.1576 -0.9693
vn 0.2417 0.5178 -0.8207
vn 0.0627 -0.3680 -0.9277
vn 0.1443 -0.2152 -0.9658
vn 0.0875 0.3941 -0.9149
vn 0.0739 0.8833 -0.4630
vn 0.0389 0.0596 -0.9975
vn 0.1623 -0.8871 -0.4321
vn 0.2186 -0.8937 0.3918
vn 0.2123 -0.9075 0.3625
vn 0.1726 -0.9775 -0.1214
vn 0.0867 -0.9058 -0.4148
vn 0.1191 -0.8218 -0.5572
vn 0.1975 -0.7394 0.6436
vn 0.1991 -0.5720 0.7957
vn 0.0883 -0.5163 -0.8518
vn 0.0363 -0.0062 -0.9993
vn 0.0269 0.5958 -0.8027
vn 0.0540 -0.6074 -0.7925
vn 0.0277 -0.2228 -0.9745
vn 0.0935 0.9348 0.3427
vn 0.1394 0.3984 0.9066
vn 0.0863 0.8331 0.5464
vn 0.0362 0.9977 -0.0575
vn 0.0227 0.9374 -0.3476
vn 0.0434 0.9987 0.0275
vn 0.0105 0.9123 -0.4093
vn -0.0228 0.7029 -0.7109
vn -0.0012 0.2597 -0.9657
vn 0.1957 -0.4741 0.8585
vn 0.0966 -0.8768 0.4710
vn 0.0961 -0.9623 0.2544
vn 0.1299 -0.9807 0.1464
vn 0.2215 -0.3532 0.9089
vn 0.1071 -0.9872 -0.1180
vn 0.0741 -0.9937 -0.0847
vn 0.0889 -0.4597 0.8836
vn 0.0925 -0.9058 0.4136
vn 0.0301 -0.8758 -0.4817
vn 0.0604 -0.9918 -0.1129
vn 0.0667 -0.9817 -0.1783
vn 0.0926 -0.9351 0.3420
vn 0.0124 -0.9640 -0.2654
vn 0.0088 -0.8741 -0.4856
vn 0.0409 -0.9982 0.0435
vn 0.1054 -0.5615 0.8207
vn 0.0373 -0.8030 0.5948
vn 0.0527 -0.8965 -0.4399
vn 0.0255 -0.6335 -0.7733
vn -0.0222 0.1113 -0.9935
vn 0.0069 -0.2342 -0.9722
vn 0.0052 -0.1624 -0.9867
vn -0.0561 0.3496 -0.9352
vn -0.0017 -0.6022 -0.7983
vn 0.0319 -0.2799 -0.9595
vn -0.0051 -0.2760 -0.9611
vn 0.0033 0.1365 -0.9906
vn -0.0449 0.6278 -0.7771
vn 0.0241 0.5657 -0.8242
vn 0.0265 0.2674 -0.9632
vn -0.0594 -0.1832 -0.9813
vn 0.0311 0.0668 0.9973
vn 0.0661 0.3823 0.9217
vn 0.1565 -0.0631 0.9857
vn 0.1558 -0.1251 0.9798
vn 0.1756 -0.0109 0.9844
vn 0.0881 0.3092 0.9469
vn 0.0542 0.8001 0.5974
vn 0.1164 0.6476 0.7530
vn 0.1063 0.8678 0.4854
vn 0.0813 0.4957 0.8647
vn 0.0910 -0.0258 0.9955
vn 0.1241 -0.0944 0.9878
vn 0.0345 -0.1660 0.9855
vn 0.0358 0.1377 0.9898
vn -0.0062 0.9857 0.1686
vn 0.0596 0.6946 0.7169
vn -0.0074 0.9193 0.3935
vn 0.0212 0.9631 -0.2683
vn 0.0437 0.9824 0.1816
vn 0.0124 0.9438 -0.3302
vn -0.0413 0.7587 -0.6502
vn -0.0176 0.9510 -0.3086
vn -0.0684 0.9927 -0.0995
vn 0.0027 0.8324 -0.5541
vn 0.0193 0.5192 -0.8544
vn 0.0391 -0.9944 0.0980
vn 0.0078 -0.9813 0.1923
vn 0.0117 -0.7493 0.6621
vn 0.0184 -0.8868 -0.4618
vn 0.0494 -0.9606 -0.2735
vn -0.0079 -0.9638 -0.2665
vn 0.0525 -0.8011 -0.5962
vn -0.0058 -0.9725 0.2329
vn 0.0581 -0.8497 0.5241
vn 0.0270 -0.9506 -0.3091
vn -0.0723 -0.9969 0.0305
vn -0.0774 -0.8596 0.5050
vn 0.0019 -0.9814 -0.1917
vn -0.0199 -0.9200 -0.3913
vn 0.0226 -0.8078 -0.5891
vn -0.0362 -0.4239 0.9050
vn 0.0444 -0.2881 0.9566
vn -0.0273 -0.6866 0.7265
vn 0.0167 -0.5026 -0.8643
vn 0.0386 -0.4799 -0.8765
vn -0.0387 -0.2202 -0.9747
vn 0.0302 0.0087 -0.9995
vn 0.0055 0.2097 -0.9777
vn -0.0156 -0.0722 -0.9973
vn -0.0172 0.3131 -0.9496
vn -0.0047 -0.4734 -0.8809
vn -0.0336 -0.5266 -0.8495
vn -0.0386 -0.0305 -0.9988
vn -0.0056 0.4642 -0.8857
vn 0.0294 -0.0675 -0.9973
vn 0.0350 0.3870 -0.9214
vn 0.0067 0.3894 0.9211
vn -0.0744 -0.4399 0.8950
vn 0.0619 -0.3129 0.9478
vn 0.0012 0.1275 0.9918
vn -0.0792 -0.3303 0.9405
vn 0.0427 -0.3678 0.9289
vn 0.0297 0.8824 0.4696
vn 0.0061 0.6568 0.7540
vn -0.0008 0.9280 0.3727
vn -0.0078 0.2671 0.9636
vn -0.0392 0.0212 0.9990
vn -0.0445 -0.3653 0.9298
vn 0.0010 0.9377 0.3474
vn 0.0052 0.7300 0.6834
vn -0.0229 0.4143 0.9098
vn 0.0159 0.5685 -0.8225
vn 0.0242 0.8605 -0.5088
vn -0.0151 0.8411 -0.5406
vn 0.0554 0.9946 -0.0874
vn 0.0379 0.9977 -0.0567
vn -0.0207 0.9991 -0.0371
vn -0.0194 0.9997 -0.0147
vn -0.0198 0.8969 -0.4419
vn -0.0013 0.9505 0.3106
vn 0.0028 0.9985 -0.0552
vn 0.0038 0.8668 -0.4987
vn -0.0690 -0.6655 0.7432
vn -0.1040 -0.9632 0.2477
vn -0.1704 -0.7405 0.6501
vn -0.1132 -0.9463 -0.3027
vn -0.1213 -0.9919 -0.0379
vn -0.0182 0.0858 0.9962
vn -0.0587 -0.3136 0.9477
vn -0.0713 0.2521 0.9651
vn -0.1131 -0.3510 0.9295
vn -0.0449 0.8792 0.4744
vn -0.0397 0.6003 0.7988
vn 0.0309 -0.1414 -0.9895
vn -0.0667 -0.7359 -0.6738
vn -0.0272 -0.4260 -0.9043
vn -0.1768 -0.6247 -0.7606
vn -0.0324 0.4808 -0.8762
vn -0.1625 0.4723 -0.8663
vn -0.1905 -0.0271 -0.9813
vn -0.0450 0.0350 -0.9984
vn -0.0510 0.8898 -0.4534
vn 0.0121 0.9905 -0.1367
vn -0.0192 0.9989 -0.0418
vn -0.1424 0.9250 -0.3524
vn -0.0643 0.9979 0.0002
vn -0.2173 0.4005 0.8902
vn -0.2283 -0.2567 0.9391
vn -0.3950 -0.3645 0.8433
vn -0.2427 -0.8994 0.3634
vn -0.0542 -0.9255 -0.3749
vn -0.4422 -0.8696 -0.2196
vn -0.8584 -0.3013 0.4153
vn -0.6448 -0.6764 0.3560
vn -0.1532 0.9199 0.3610
vn -0.6836 0.2111 0.6987
vn -0.5891 0.7467 0.3088
vn -0.9072 -0.1992 0.3705
vn -0.9636 0.1798 0.1980
vn -0.9226 -0.2537 0.2906
vn -0.8730 -0.4755 -0.1090
vn -0.8254 -0.4150 0.3828
vn -0.7185 -0.6672 -0.1963
vn -0.5865 -0.5047 -0.6335
vn -0.6073 -0.0398 -0.7934
vn -0.4834 0.6890 -0.5400
vn -0.8036 -0.3023 -0.5127
vn -0.6137 0.2506 -0.7487
vn -0.8661 0.1482 -0.4773
vn -0.4019 0.9146 -0.0442
vn -0.2293 0.9650 -0.1276
vn -0.8551 0.4818 -0.1915
vn -0.9281 0.2807 -0.2445
s 1
f 1/1/1 2/2/2 3/3/3
f 1/1/1 3/3/3 4/4/4
f 3/3/3 5/5/5 4/4/4
f 6/6/6 2/7/2 1/8/1
f 7/9/7 6/10/6 1/1/1
f 6/6/6 8/11/8 2/7/2
f 3/12/3 9/13/9 5/14/5
f 10/15/10 11/16/11 9/13/9
f 10/15/10 12/17/12 11/16/11
f 11/18/11 13/19/13 9/20/9
f 9/20/9 13/19/13 5/21/5
f 14/22/14 13/19/13 15/23/15
f 16/24/16 15/25/15 8/26/8
f 16/24/16 17/27/17 15/25/15
f 15/25/15 11/28/11 8/26/8
f 15/25/15 13/29/13 11/28/11
f 18/30/18 19/31/19 20/32/20
f 7/33/7 21/34/21 20/32/20
f 22/35/22 19/31/19 18/30/18
f 22/35/22 23/36/23 19/31/19
f 24/37/24 18/30/18 20/32/20
f 25/38/25 26/39/26 23/40/23
f 25/38/25 23/40/23 27/41/27
f 19/42/19 26/39/26 17/27/17
f 23/40/23 26/39/26 19/42/19
f 25/38/25 28/43/28 26/39/26
f 20/32/20 19/31/19 29/44/29
f 29/44/29 8/11/8 6/6/6
f 20/32/20 29/44/29 6/6/6
f 17/27/17 16/24/16 29/45/29
f 30/46/30 31/47/31 28/43/28
f 31/47/31 32/48/32 28/43/28
f 33/49/33 34/50/34 31/51/31
f 14/22/14 32/52/32 34/50/34
f 14/22/14 34/50/34 35/53/35
f 7/9/7 4/4/4 36/54/36
f 35/55/35 37/56/37 38/57/38
f 4/4/4 35/55/35 38/57/38
f 4/4/4 38/57/38 36/54/36
f 36/54/36 24/58/24 21/59/21
f 7/9/7 36/54/36 21/59/21
f 33/49/33 39/60/39 40/61/40
f 37/62/37 34/50/34 40/61/40
f 36/54/36 38/57/38 41/63/41
f 38/57/38 40/64/40 41/63/41
f 42/65/42 36/54/36 41/63/41
f 38/57/38 37/56/37 40/64/40
f 41/63/41 40/64/40 43/66/43
f 33/49/33 30/67/30 44/68/44
f 31/51/31 30/67/30 33/49/33
f 45/69/45 46/70/46 47/71/47
f 48/72/48 49/73/49 47/74/47
f 49/73/49 44/75/44 47/74/47
f 50/76/50 46/70/46 51/77/51
f 52/78/52 33/49/33 44/68/44
f 39/60/39 33/49/33 52/78/52
f 43/66/43 53/79/53 54/80/54
f 43/81/43 39/60/39 53/82/53
f 52/83/52 49/73/49 55/84/55
f 56/85/56 52/83/52 55/84/55
f 44/68/44 49/86/49 52/78/52
f 53/87/53 52/83/52 56/85/56
f 53/82/53 39/60/39 52/78/52
f 25/38/25 27/41/27 51/77/51
f 57/88/57 22/35/22 18/30/18
f 58/89/58 22/35/22 59/90/59
f 60/91/60 57/88/57 24/37/24
f 57/88/57 60/91/60 61/92/61
f 59/90/59 57/88/57 62/93/62
f 62/93/62 61/92/61 63/94/63
f 54/80/54 42/65/42 41/63/41
f 54/80/54 61/95/61 42/65/42
f 54/80/54 63/96/63 61/95/61
f 64/97/64 63/96/63 54/80/54
f 65/98/65 64/97/64 54/80/54
f 66/99/66 67/100/67 50/101/50
f 68/102/68 69/103/69 50/76/50
f 50/101/50 67/100/67 68/104/68
f 50/76/50 51/77/51 70/105/70
f 71/106/71 69/103/69 68/102/68
f 71/107/71 68/104/68 72/108/72
f 72/109/72 48/72/48 71/110/71
f 71/110/71 48/72/48 69/111/69
f 66/99/66 73/112/73 67/100/67
f 73/112/73 74/113/74 67/100/67
f 72/108/72 68/104/68 67/100/67
f 74/113/74 72/108/72 67/100/67
f 75/114/75 76/115/76 77/116/77
f 77/117/77 76/118/76 78/119/78
f 76/118/76 74/113/74 78/119/78
f 79/120/79 80/121/80 77/116/77
f 79/122/79 77/117/77 81/123/81
f 81/123/81 77/117/77 78/119/78
f 82/124/82 74/113/74 73/112/73
f 83/125/83 78/119/78 82/124/82
f 84/126/84 48/72/48 72/109/72
f 84/126/84 85/127/85 48/72/48
f 55/84/55 48/72/48 85/127/85
f 86/128/86 65/98/65 87/129/87
f 87/130/87 56/85/56 55/84/55
f 65/98/65 56/131/56 87/129/87
f 86/128/86 88/132/88 89/133/89
f 86/128/86 87/129/87 88/132/88
f 88/134/88 87/130/87 85/127/85
f 84/126/84 75/114/75 85/127/85
f 90/135/90 75/114/75 80/121/80
f 90/135/90 91/136/91 92/137/92
f 85/127/85 90/135/90 92/137/92
f 75/114/75 77/116/77 80/121/80
f 93/138/93 94/139/94 89/133/89
f 88/132/88 93/138/93 89/133/89
f 93/138/93 88/132/88 92/140/92
f 95/141/95 93/138/93 96/142/96
f 91/136/91 90/135/90 97/143/97
f 97/144/97 93/138/93 91/145/91
f 97/144/97 96/142/96 93/138/93
f 98/146/98 99/147/99 100/148/100
f 100/149/100 66/99/66 70/150/70
f 100/151/100 70/105/70 101/152/101
f 70/105/70 51/77/51 101/152/101
f 58/89/58 98/153/98 100/154/100
f 101/155/101 58/89/58 100/154/100
f 102/156/102 99/147/99 103/157/103
f 102/158/102 73/112/73 66/99/66
f 104/159/104 105/160/105 106/161/106
f 104/159/104 99/147/99 105/160/105
f 98/146/98 105/160/105 99/147/99
f 59/90/59 106/162/106 105/163/105
f 59/90/59 105/163/105 58/89/58
f 99/147/99 104/159/104 103/157/103
f 107/164/107 108/165/108 103/157/103
f 73/112/73 102/158/102 108/166/108
f 108/166/108 82/124/82 73/112/73
f 82/124/82 108/166/108 109/167/109
f 110/168/110 109/169/109 111/170/111
f 107/164/107 111/170/111 109/169/109
f 82/124/82 109/167/109 110/171/110
f 104/159/104 112/172/112 113/173/113
f 104/159/104 113/173/113 103/157/103
f 107/164/107 113/173/113 114/174/114
f 63/94/63 115/175/115 62/93/62
f 116/176/116 59/90/59 62/93/62
f 112/172/112 116/177/116 117/178/117
f 116/177/116 115/179/115 117/178/117
f 115/175/115 116/176/116 62/93/62
f 86/128/86 89/133/89 64/97/64
f 115/180/115 118/181/118 117/182/117
f 117/182/117 118/181/118 94/139/94
f 112/172/112 117/178/117 119/183/119
f 112/172/112 119/183/119 120/184/120
f 114/174/114 112/172/112 120/184/120
f 94/139/94 119/185/119 117/182/117
f 119/185/119 94/139/94 95/141/95
f 95/141/95 121/186/121 119/185/119
f 119/185/119 121/186/121 120/187/120
f 95/141/95 122/188/122 121/186/121
f 123/189/123 124/190/124 125/191/125
f 83/125/83 125/191/125 124/190/124
f 79/192/79 126/193/126 80/194/80
f 79/122/79 81/123/81 126/195/126
f 127/196/127 123/189/123 128/197/128
f 123/189/123 127/196/127 124/190/124
f 126/195/126 124/190/124 127/196/127
f 128/198/128 129/199/129 127/200/127
f 130/201/130 123/189/123 131/202/131
f 131/202/131 123/189/123 125/191/125
f 123/189/123 132/203/132 128/197/128
f 133/204/133 130/205/130 134/206/134
f 133/207/133 132/203/132 123/189/123
f 132/208/132 133/204/133 135/209/135
f 136/210/136 137/211/137 135/212/135
f 138/213/138 125/191/125 139/214/139
f 138/213/138 140/215/140 125/191/125
f 140/215/140 131/202/131 125/191/125
f 141/216/141 90/135/90 80/121/80
f 141/217/141 80/194/80 126/193/126
f 126/193/126 142/218/142 141/217/141
f 126/193/126 129/199/129 142/218/142
f 143/219/143 144/220/144 145/221/145
f 144/222/144 143/223/143 141/217/141
f 146/224/146 147/225/147 144/220/144
f 142/218/142 146/226/146 144/222/144
f 142/218/142 129/199/129 148/227/148
f 149/228/149 148/227/148 137/211/137
f 146/224/146 150/229/150 151/230/151
f 150/231/150 146/226/146 142/218/142
f 147/225/147 146/224/146 151/230/151
f 152/232/152 148/227/148 149/228/149
f 152/232/152 150/231/150 148/227/148
f 152/233/152 153/234/153 151/230/151
f 152/233/152 151/230/151 150/229/150
f 154/235/154 155/236/155 111/170/111
f 155/236/155 110/168/110 111/170/111
f 156/237/156 155/236/155 154/235/154
f 110/171/110 155/238/155 82/124/82
f 157/239/157 158/240/158 159/241/159
f 154/235/154 157/239/157 159/241/159
f 154/235/154 159/241/159 156/237/156
f 154/235/154 107/164/107 160/242/160
f 154/235/154 160/242/160 161/243/161
f 161/243/161 160/242/160 162/244/162
f 161/243/161 157/239/157 154/235/154
f 157/239/157 163/245/163 158/240/158
f 163/245/163 157/239/157 161/243/161
f 164/246/164 139/247/139 163/245/163
f 138/248/138 164/249/164 165/250/165
f 164/246/164 138/251/138 139/247/139
f 166/252/166 167/253/167 161/243/161
f 167/253/167 163/245/163 161/243/161
f 168/254/168 163/245/163 167/253/167
f 145/221/145 169/255/169 122/256/122
f 170/257/170 122/256/122 169/255/169
f 121/186/121 122/188/122 170/258/170
f 169/255/169 171/259/171 170/257/170
f 147/225/147 169/255/169 144/220/144
f 172/260/172 173/261/173 170/257/170
f 160/242/160 114/174/114 173/262/173
f 172/263/172 160/242/160 173/262/173
f 160/242/160 172/263/172 162/244/162
f 162/244/162 172/263/172 174/264/174
f 172/260/172 171/259/171 174/265/174
f 174/264/174 175/266/175 166/252/166
f 161/243/161 162/244/162 166/252/166
f 176/267/176 175/268/175 174/265/174
f 174/264/174 166/252/166 162/244/162
f 166/269/166 177/270/177 167/271/167
f 175/272/175 178/273/178 166/269/166
f 166/269/166 178/273/178 177/270/177
f 178/274/178 175/268/175 176/267/176
f 171/259/171 147/225/147 151/230/151
f 171/259/171 169/255/169 147/225/147
f 151/230/151 176/267/176 171/259/171
f 178/274/178 176/267/176 179/275/179
f 176/267/176 151/230/151 153/234/153
f 179/275/179 176/267/176 153/234/153
f 180/276/180 134/206/134 140/277/140
f 181/278/181 134/206/134 180/276/180
f 182/279/182 181/278/181 180/276/180
f 183/280/183 133/204/133 181/278/181
f 133/204/133 136/281/136 135/209/135
f 136/281/136 133/204/133 183/280/183
f 183/280/183 181/278/181 184/282/184
f 165/250/165 185/283/185 186/284/186
f 180/276/180 140/277/140 165/285/165
f 180/276/180 165/285/165 186/286/186
f 187/287/187 186/284/186 185/283/185
f 186/286/186 188/288/188 182/279/182
f 187/287/187 188/289/188 186/284/186
f 189/290/189 190/291/190 177/270/177
f 190/291/190 167/271/167 177/270/177
f 190/291/190 189/290/189 187/287/187
f 191/292/191 192/293/192 193/294/193
f 137/211/137 136/210/136 149/228/149
f 192/293/192 191/292/191 149/228/149
f 136/210/136 192/293/192 149/228/149
f 192/293/192 183/295/183 194/296/194
f 193/294/193 192/293/192 194/296/194
f 191/297/191 195/298/195 153/234/153
f 152/233/152 191/297/191 153/234/153
f 152/232/152 149/228/149 191/292/191
f 196/299/196 195/298/195 197/300/197
f 198/301/198 193/294/193 197/302/197
f 197/300/197 195/298/195 198/303/198
f 153/234/153 195/298/195 179/275/179
f 179/275/179 195/298/195 199/304/199
f 196/299/196 199/304/199 195/298/195
f 177/270/177 200/305/200 201/306/201
f 200/307/200 178/274/178 179/275/179
f 178/273/178 200/305/200 177/270/177
f 202/308/202 203/309/203 199/304/199
f 203/310/203 189/290/189 201/306/201
f 201/311/201 199/304/199 203/309/203
f 204/312/204 205/313/205 187/287/187
f 187/287/187 205/313/205 188/289/188
f 204/312/204 206/314/206 205/313/205
f 184/282/184 182/279/182 207/315/207
f 208/316/208 184/282/184 207/315/207
f 208/316/208 207/315/207 209/317/209
f 210/318/210 211/319/211 206/320/206
f 211/319/211 207/315/207 206/320/206
f 209/317/209 207/315/207 211/319/211
f 204/312/204 189/290/189 212/321/212
f 213/322/213 204/312/204 214/323/214
f 204/312/204 213/322/213 206/314/206
f 215/324/215 210/325/210 213/322/213
f 215/324/215 213/322/213 216/326/216
f 217/327/217 210/325/210 215/324/215
f 217/328/217 211/319/211 210/318/210
f 216/329/216 218/330/218 219/331/219
f 211/319/211 219/332/219 220/333/220
f 217/334/217 215/335/215 219/336/219
f 194/296/194 209/337/209 221/338/221
f 208/339/208 209/337/209 194/296/194
f 222/340/222 223/341/223 196/299/196
f 222/342/222 197/302/197 221/338/221
f 193/294/193 194/296/194 197/302/197
f 197/300/197 222/340/222 196/299/196
f 197/302/197 194/296/194 221/338/221
f 218/343/218 220/344/220 219/336/219
f 224/345/224 218/330/218 225/346/225
f 226/347/226 222/342/222 224/348/224
f 222/342/222 221/338/221 224/348/224
f 214/323/214 212/321/212 227/349/227
f 227/349/227 212/321/212 228/350/228
f 202/351/202 228/350/228 212/321/212
f 202/351/202 212/321/212 203/310/203
f 203/310/203 212/321/212 189/290/189
f 202/308/202 223/341/223 228/352/228
f 202/308/202 196/299/196 223/341/223
f 202/308/202 199/304/199 196/299/196
f 229/353/229 216/326/216 214/323/214
f 230/354/230 216/355/216 229/356/229
f 225/346/225 216/329/216 230/357/230
f 227/349/227 229/353/229 214/323/214
f 4/4/4 5/5/5 14/358/14
f 2/7/2 8/11/8 12/359/12
f 6/6/6 7/33/7 20/32/20
f 7/9/7 1/1/1 4/4/4
f 29/44/29 16/360/16 8/11/8
f 12/17/12 10/15/10 2/361/2
f 10/362/10 9/363/9 3/364/3
f 3/12/3 2/361/2 10/15/10
f 11/28/11 12/365/12 8/26/8
f 13/19/13 14/22/14 5/21/5
f 15/25/15 17/27/17 32/48/32
f 24/37/24 20/32/20 21/34/21
f 19/42/19 17/27/17 29/45/29
f 34/50/34 32/52/32 31/51/31
f 28/43/28 25/38/25 45/69/45
f 28/43/28 32/48/32 26/39/26
f 17/27/17 26/39/26 32/48/32
f 15/23/15 32/52/32 14/22/14
f 35/53/35 34/50/34 37/62/37
f 14/358/14 35/55/35 4/4/4
f 24/58/24 36/54/36 42/65/42
f 60/366/60 24/58/24 42/65/42
f 43/81/43 40/61/40 39/60/39
f 34/50/34 33/49/33 40/61/40
f 30/46/30 45/69/45 47/71/47
f 25/38/25 51/77/51 45/69/45
f 45/69/45 30/46/30 28/43/28
f 69/103/69 47/71/47 46/70/46
f 30/67/30 47/367/47 44/68/44
f 51/77/51 46/70/46 45/69/45
f 54/80/54 41/63/41 43/66/43
f 54/80/54 53/79/53 65/98/65
f 49/73/49 48/72/48 55/84/55
f 53/79/53 56/131/56 65/98/65
f 27/368/27 23/36/23 22/35/22
f 22/35/22 58/89/58 27/368/27
f 58/89/58 101/155/101 27/368/27
f 51/77/51 27/41/27 101/152/101
f 59/90/59 22/35/22 57/88/57
f 18/30/18 24/37/24 57/88/57
f 42/65/42 61/95/61 60/366/60
f 62/93/62 57/88/57 61/92/61
f 70/150/70 66/99/66 50/101/50
f 69/103/69 46/70/46 50/76/50
f 69/111/69 48/72/48 47/74/47
f 74/113/74 76/118/76 72/108/72
f 72/109/72 76/115/76 84/126/84
f 78/119/78 83/125/83 81/123/81
f 82/124/82 78/119/78 74/113/74
f 65/98/65 86/128/86 64/97/64
f 55/84/55 85/127/85 87/130/87
f 90/135/90 85/127/85 75/114/75
f 75/114/75 84/126/84 76/115/76
f 92/137/92 88/134/88 85/127/85
f 122/188/122 95/141/95 96/142/96
f 94/139/94 93/138/93 95/141/95
f 92/140/92 91/145/91 93/138/93
f 143/369/143 97/143/97 90/135/90
f 102/156/102 100/148/100 99/147/99
f 66/99/66 100/149/100 102/158/102
f 104/159/104 106/161/106 116/370/116
f 105/163/105 98/153/98 58/89/58
f 106/162/106 59/90/59 116/176/116
f 103/157/103 113/173/113 107/164/107
f 108/165/108 102/156/102 103/157/103
f 107/164/107 109/169/109 108/165/108
f 112/172/112 114/174/114 113/173/113
f 160/242/160 107/164/107 114/174/114
f 154/235/154 111/170/111 107/164/107
f 63/96/63 64/97/64 115/180/115
f 112/172/112 104/159/104 116/177/116
f 115/180/115 64/97/64 118/181/118
f 118/181/118 64/97/64 89/133/89
f 120/184/120 173/262/173 114/174/114
f 118/181/118 89/133/89 94/139/94
f 121/186/121 173/371/173 120/187/120
f 155/238/155 156/372/156 83/125/83
f 83/125/83 82/124/82 155/238/155
f 125/191/125 83/125/83 156/372/156
f 81/123/81 83/125/83 124/190/124
f 124/190/124 126/195/126 81/123/81
f 129/199/129 126/193/126 127/200/127
f 129/199/129 128/198/128 132/373/132
f 130/205/130 140/277/140 134/206/134
f 140/277/140 130/205/130 131/374/131
f 123/189/123 130/201/130 133/207/133
f 137/211/137 132/373/132 135/212/135
f 165/285/165 140/277/140 138/375/138
f 90/135/90 141/216/141 143/369/143
f 144/222/144 141/217/141 142/218/142
f 122/188/122 96/142/96 145/376/145
f 145/377/145 97/144/97 143/378/143
f 96/142/96 97/144/97 145/377/145
f 129/199/129 137/211/137 148/227/148
f 129/199/129 132/373/132 137/211/137
f 148/227/148 150/231/150 142/218/142
f 158/379/158 125/191/125 159/380/159
f 159/380/159 125/191/125 156/372/156
f 139/214/139 125/191/125 158/379/158
f 185/283/185 164/249/164 168/381/168
f 168/254/168 164/246/164 163/245/163
f 185/283/185 165/250/165 164/249/164
f 168/381/168 167/271/167 190/291/190
f 144/220/144 169/255/169 145/221/145
f 121/186/121 170/258/170 173/371/173
f 171/259/171 172/260/172 170/257/170
f 174/265/174 171/259/171 176/267/176
f 181/278/181 133/204/133 134/206/134
f 183/295/183 192/293/192 136/210/136
f 184/282/184 181/278/181 182/279/182
f 190/291/190 185/283/185 168/381/168
f 180/276/180 186/286/186 182/279/182
f 187/287/187 185/283/185 190/291/190
f 184/382/184 194/296/194 183/295/183
f 193/294/193 198/301/198 191/292/191
f 191/297/191 198/303/198 195/298/195
f 179/275/179 199/304/199 201/311/201
f 179/275/179 201/311/201 200/307/200
f 201/306/201 189/290/189 177/270/177
f 182/279/182 188/288/188 205/383/205
f 182/279/182 205/383/205 206/320/206
f 209/317/209 211/319/211 220/333/220
f 206/320/206 207/315/207 182/279/182
f 204/312/204 187/287/187 189/290/189
f 214/323/214 204/312/204 212/321/212
f 210/325/210 206/314/206 213/322/213
f 219/332/219 211/319/211 217/328/217
f 194/296/194 184/382/184 208/339/208
f 225/346/225 218/330/218 216/329/216
f 209/337/209 220/384/220 221/338/221
f 224/348/224 221/338/221 220/384/220
f 218/343/218 224/385/224 220/344/220
f 222/340/222 226/386/226 223/341/223
f 230/387/230 224/388/224 225/389/225
f 226/390/226 224/391/224 230/354/230
f 223/341/223 227/392/227 228/352/228
f 226/390/226 230/354/230 229/356/229
f 229/393/229 227/392/227 223/341/223
f 229/393/229 223/341/223 226/386/226
f 216/326/216 213/322/213 214/323/214
f 158/240/158 163/245/163 139/247/139
f 216/394/216 219/336/219 215/335/215
