# www.textures.com
v -3.857896 -0.723530 0.049466
v -4.087358 -0.944069 0.127754
v -3.884998 -0.013631 0.034867
v -4.153050 0.366002 0.245466
v -4.212526 -0.294798 0.063860
v -4.249652 -0.570555 0.699653
v -3.405264 -0.726297 0.030280
v -3.712283 -2.175355 0.227458
v -3.787943 -1.880834 0.081495
v -3.353376 -2.115863 0.020204
v -3.633841 -1.512703 0.038607
v -3.977215 -1.448489 0.128245
v -4.107586 -1.420377 0.837221
v -3.396666 -2.609184 0.064115
v -3.425100 -2.694956 0.431686
v -3.816352 -2.127168 1.087445
v -4.025912 -1.848673 1.295020
v -2.546281 -2.219918 0.018264
v -3.112921 -2.681841 0.015798
v -3.526582 -2.620743 1.115760
v -2.763961 -3.279428 0.111315
v -3.067912 -3.150412 0.913076
v -2.379161 -3.067108 0.015212
v -3.605937 -2.695557 1.662724
v -2.475347 -1.492419 0.019021
v -2.797963 -0.599418 0.028323
v -3.161787 0.209700 0.021462
v -4.336668 -1.042676 1.724532
v -4.393742 -0.296881 1.614095
v -2.063115 -2.394642 0.018541
v -1.830704 -1.600510 0.019915
v -1.832908 -0.626851 0.035000
v -1.875796 -0.084352 0.023669
v -1.386960 -2.541340 0.031185
v -1.130937 -1.647769 0.053061
v -1.035264 -0.722107 0.061505
v -0.566503 0.022798 0.065720
v -0.434740 -1.490725 0.190886
v -0.343520 -1.037454 0.203544
v -0.201381 -0.492769 0.199076
v -0.296756 -2.299202 0.059172
v -0.092744 -1.703682 0.171798
v -1.586884 -3.782738 0.064239
v -1.294448 -3.258186 0.009456
v -1.058553 -3.848400 0.012579
v -0.387674 -3.326168 0.008884
v -2.087876 -3.783679 0.176486
v -2.313511 -3.450053 0.135178
v -1.408094 -4.032646 0.059937
v -1.892380 -3.475218 0.006186
v -0.905770 -4.182556 0.058399
v -1.554592 -4.089218 0.780074
v -0.289696 -3.958367 0.014255
v -0.349212 -4.233095 0.087816
v -0.833855 -4.290591 0.955419
v -0.125305 -4.314290 0.744174
v -2.304591 -3.718872 0.865240
v 0.209380 -0.904935 0.312338
v 0.308193 -0.026356 0.177830
v 0.716081 -0.190205 0.266381
v 0.371139 -1.945717 0.208056
v 0.453054 -2.720407 0.035883
v 0.746329 -2.139950 0.125593
v 1.139611 -2.673969 0.047103
v 0.971811 -3.651163 -0.003970
v 1.013956 -1.614638 0.325107
v 0.256607 -1.418610 0.257315
v 0.830684 -1.039233 0.329532
v 1.350872 -1.987881 0.104107
v 1.179523 -0.329370 0.185441
v 1.501931 -0.807348 0.247537
v 0.258878 -4.135352 0.104965
v 0.632388 -4.074799 0.074566
v 0.406211 -3.925511 0.013383
v 1.012820 -4.119688 0.560999
v 1.377965 -3.890670 0.038958
v 0.321696 -4.259462 0.552081
v 1.758626 -3.799506 0.391249
v 1.579712 -3.170468 0.000661
v 1.474483 -4.060952 1.351095
v 1.342603 -1.256944 0.258358
v 1.933257 -2.118382 0.036029
v 1.843445 -1.131858 0.203640
v 1.894830 -0.266658 0.039888
v 2.204321 -3.364071 0.008013
v 2.200238 -3.541758 0.486757
v 2.388361 -2.924831 0.004414
v 2.789174 -3.029273 0.498160
v 3.229555 -2.584359 0.705765
v 2.858276 -3.106124 1.752592
v 2.797323 -2.407371 0.008310
v 2.805379 -2.909633 0.033072
v 4.132459 -0.394551 1.471674
v 4.067850 -1.032912 1.228292
v 4.034694 -0.527496 0.729547
v 3.976123 -1.290325 1.655915
v 3.786301 -1.815153 1.475489
v 3.274940 -0.717360 0.024994
v 2.533369 -0.464050 0.029516
v 3.458567 0.258027 0.038216
v 2.202598 -0.812517 0.036753
v 2.271506 0.286704 0.027103
v 3.863290 -0.250557 0.157456
v 2.781724 -1.498259 0.032606
v 3.438740 -1.024000 0.041985
v 3.864185 -0.798313 0.106563
v 3.536912 -1.973025 0.184521
v 3.476010 -2.322178 1.170013
v 3.480659 -1.776355 0.074551
v 3.787752 -1.226431 0.155661
v 3.814765 -1.613146 0.779231
v 3.826142 -1.063296 0.266638
v 3.968843 -1.053951 0.914111
v 3.916205 -1.116310 0.540663
v -4.296504 0.039278 1.091210
v -2.528487 0.429365 0.021199
v -2.253892 -3.840375 1.768904
v -2.825946 -3.510040 1.950102
v -1.215323 -4.346220 2.114483
v -1.708941 -4.077837 1.415358
v -0.321958 -4.434657 2.045543
v -0.647636 -4.386602 2.422164
v -1.608354 -4.303418 2.409445
v -1.881778 -4.257328 2.237253
v -1.118934 -4.066937 2.437541
v -0.749436 -3.982385 2.724950
v -1.408136 -3.979865 2.762169
v -0.843935 -3.729222 2.935665
v -0.071338 -4.086493 3.054300
v -2.605083 -3.966496 2.261451
v -3.210692 -3.461879 2.267237
v -2.776988 -3.723558 2.486544
v -2.287702 -4.065880 2.461052
v -3.110801 -3.264747 2.488301
v -3.709685 -2.811922 2.430360
v -3.800201 -2.623032 2.169966
v -1.793101 -3.804097 2.471590
v -2.134804 -3.716401 2.692373
v -2.241760 -3.438961 3.111505
v -2.880433 -3.070632 2.928173
v -2.843543 -3.197849 2.747639
v -1.504673 -3.740345 3.240868
v -2.347407 -3.276938 2.720629
v -3.280098 -2.556741 2.469563
v -1.694198 -3.540519 2.812955
v -2.428579 -3.629271 2.519322
v -1.404019 -3.265689 3.141041
v -2.332111 -2.899389 2.926721
v -0.586720 -3.264372 3.225257
v -1.280977 -3.044933 3.677099
v -0.408430 -3.638045 3.535159
v -0.041411 -3.122897 3.480547
v -0.754779 -3.032399 3.764526
v 0.124385 -4.190132 2.531749
v -4.021242 -1.012860 2.638301
v -3.726897 -1.542319 3.191713
v -4.094239 -0.919496 3.135859
v -3.437799 -2.391424 2.742096
v -2.861022 -2.534651 2.726372
v -3.468232 -1.888917 2.771021
v -4.223252 -2.202736 2.326903
v -4.260537 -1.802243 2.186830
v -3.826044 -1.875101 2.579678
v -4.203064 -1.752048 2.532740
v -3.071103 -2.390868 3.095590
v -4.457968 -1.081873 2.508763
v -3.028656 -1.789330 2.950539
v -3.458846 -0.988748 3.073343
v -3.012409 -1.543413 3.509862
v -2.981610 -2.291722 3.303814
v -0.320576 -2.685015 3.356881
v -0.149529 -2.347246 3.305470
v -1.175444 -2.334327 3.534741
v -1.111234 -2.767399 3.293684
v -2.002977 -2.902052 3.476485
v -1.917839 -2.578322 3.212101
v -2.270594 -2.079170 3.424815
v -2.348804 -2.294008 3.036349
v -1.701068 -1.933902 3.266089
v -1.604430 -1.674422 3.373137
v -2.038133 -1.549803 3.211278
v -1.666607 -1.261422 3.468930
v -1.923467 -1.975641 3.504494
v -2.418964 -1.787857 3.509868
v -2.599016 -1.460827 3.366052
v -2.613691 -1.042886 3.712225
v -2.106112 -0.826597 3.643316
v -2.434952 -0.937818 3.327570
v -1.178217 -2.121439 3.283422
v -0.713922 -1.353760 3.001793
v -0.982252 -1.008707 2.742659
v -1.331260 -0.835417 3.068219
v -1.182457 -1.560953 3.310999
v -0.616393 -1.802033 3.204525
v -0.357807 -1.691296 3.167267
v -1.032319 -1.849242 3.365829
v -0.343791 -1.981551 3.298826
v -1.124879 -1.742129 3.188245
v 0.085907 -1.322672 2.686172
v -0.208967 -0.858679 2.670311
v 0.760290 -4.260777 1.222498
v 0.823650 -4.352098 2.086923
v 0.122950 -4.358068 1.299903
v 1.101003 -4.344306 2.424128
v 0.629293 -4.417002 2.422160
v 0.993162 -3.837501 2.453377
v 0.334710 -4.596095 2.284170
v 1.705662 -3.363904 2.726512
v 1.065068 -3.900039 2.860833
v 3.330787 -1.649676 3.526611
v 2.859455 -2.823719 3.034167
v 3.537774 -2.206275 3.440481
v 2.971919 -2.487707 3.729172
v 2.711079 -2.925148 3.480774
v 1.408411 -4.294102 2.181832
v 2.197380 -3.660654 1.163829
v 2.160045 -3.741471 1.892202
v 2.222837 -3.934707 2.233757
v 1.815728 -4.088274 2.391581
v 1.791594 -3.455703 2.519994
v 2.324128 -3.310700 2.442289
v 2.762823 -3.173964 2.441767
v 2.500258 -3.697962 2.381011
v 2.922291 -3.299630 2.285179
v 2.053874 -3.297360 3.267713
v 3.126095 -2.998921 2.371434
v 3.070240 -2.966593 2.801476
v 3.507691 -2.068795 2.974086
v 3.776744 -1.097185 3.211276
v 3.920853 -1.413560 2.904793
v 3.528399 -2.372190 2.131025
v 3.567864 -2.265304 2.471006
v 3.829523 -2.135055 2.804312
v 3.401276 -2.674703 2.482311
v 3.556346 -2.632330 2.294442
v 3.742744 -1.763358 2.509366
v 3.851081 -1.888469 2.210454
v 3.942869 -1.657242 2.405861
v 4.094676 -1.405952 2.287644
v 3.999674 -1.231027 2.072708
v 4.165552 -0.776202 2.269498
v 3.830558 -1.063487 2.471542
v 1.036215 -3.472579 3.144921
v 0.331338 -3.762356 2.767630
v -0.151299 -4.536346 2.364708
v 0.526847 -3.885751 3.380784
v 0.378944 -1.595451 3.024381
v 0.554315 -2.079246 3.023269
v 0.886990 -1.507052 2.825027
v 0.940670 -2.244681 3.084337
v 0.957761 -3.014283 3.442734
v 1.143745 -3.373875 3.585690
v 1.276852 -2.491766 3.287725
v 0.445524 -2.948671 3.382779
v 0.487908 -2.605367 3.180842
v -0.014361 -3.541111 3.098536
v 0.478407 -3.235051 3.719201
v 1.368918 -2.078659 3.264976
v 0.114641 -1.714033 3.115275
v 0.241775 -0.865915 3.111189
v 0.973199 -0.979727 3.305423
v 0.940851 -0.665019 2.936265
v 1.263263 -1.009473 2.960736
v 1.554799 -1.207570 2.988271
v 1.522063 -0.905192 2.817465
v 1.456718 -1.672778 3.032627
v 1.952883 -1.424465 3.160990
v 2.313675 -1.438648 3.388409
v 1.839812 -2.138699 3.332216
v 2.292635 -2.059712 3.736759
v 1.684721 -2.683970 3.555321
v 2.294703 -2.808902 3.263349
v 2.786680 -2.027296 3.465739
v 1.496908 -3.206038 3.161223
v 2.647273 -1.573228 3.769886
v 3.109476 -1.793795 3.885183
v 3.051956 -1.123109 3.452037
v 3.267828 -1.036676 3.753431
v -4.534572 -0.874303 2.304807
v -4.541660 -0.667691 2.510651
v -4.116180 0.932600 0.980087
v -4.031879 0.715013 0.054566
v -3.902186 1.473336 0.845116
v -3.694199 0.797679 0.046537
v -4.269713 0.546694 1.219647
v -4.127582 1.248123 1.371813
v -4.386861 0.943120 2.036617
v -4.299045 1.356363 2.149048
v -3.871500 1.790788 1.327173
v -4.429794 0.279158 1.931587
v -3.746089 1.462033 0.117908
v -3.579137 2.195457 1.249701
v -3.551489 1.814359 0.080267
v -2.756617 1.286155 0.014193
v -3.206589 1.655336 0.027251
v -3.314501 2.365985 0.680184
v -3.195334 2.333782 0.053832
v -2.051609 1.121168 0.018612
v -1.551909 0.743308 0.013132
v -1.547656 1.804027 0.007946
v -2.119921 2.130963 0.007613
v -2.597422 2.668278 0.009217
v -0.566007 2.691551 0.009426
v -0.714250 1.569515 0.010191
v -1.323232 2.731814 0.007942
v -0.770163 0.724210 0.021482
v -0.207684 0.398681 0.091184
v 0.096190 1.332266 0.020027
v -0.180970 2.115170 0.014083
v -2.943522 2.796950 1.008575
v -2.832698 2.711232 0.058161
v -3.986254 2.044321 2.111559
v -3.614617 2.656119 2.247090
v -3.257844 2.950142 2.001432
v -3.345806 3.079582 2.501888
v -3.106053 3.375621 2.448475
v -2.730211 3.201490 1.562217
v -2.353001 3.282871 1.075938
v -2.154753 3.780623 1.932995
v -1.741353 3.587823 1.060372
v -1.515512 3.983262 1.699690
v -2.478858 3.074680 0.323231
v -1.885656 3.422530 0.332423
v -2.171302 3.039742 -0.000438
v -1.815447 3.256655 0.015293
v -2.828217 3.467054 2.235494
v -2.451397 3.837998 2.326416
v -2.077263 3.793516 2.425216
v -1.829893 4.073158 2.152619
v -1.890557 3.914015 2.757639
v -2.755748 3.470217 2.520791
v -2.406069 3.531374 2.660079
v -1.579599 4.123437 2.437123
v -1.357721 4.254221 2.333119
v -1.430763 3.507307 0.034196
v -0.868344 3.679112 0.101198
v -0.936664 3.345191 -0.004962
v -0.377534 3.572983 0.034401
v -0.106577 3.779900 0.161964
v -1.254758 3.706452 0.773064
v -0.557860 3.846790 0.888813
v -0.797682 4.048090 1.443221
v -0.688628 4.411590 1.934875
v -1.161873 4.394795 2.075368
v -0.120397 4.049188 1.365977
v -0.119779 4.659163 2.244469
v -0.615101 4.388710 2.107889
v -0.603952 4.621084 2.285572
v -0.901300 4.199697 2.558630
v -0.566391 4.378713 2.526410
v -0.690264 4.112195 2.197855
v -1.401551 4.190904 2.876979
v -0.501921 4.573100 2.910965
v 0.387143 0.592732 0.066729
v 0.616217 2.081200 0.021757
v 0.814874 1.086435 0.032977
v 1.551764 1.718464 0.028769
v 0.759833 0.356174 0.120523
v 1.370048 0.419797 0.049569
v 1.597839 1.079900 0.030946
v 2.453618 1.402012 0.035163
v 1.405809 2.367378 0.052704
v 2.166807 2.478076 0.039349
v 3.146075 2.081758 0.100913
v 3.389051 1.589290 0.111985
v 3.037613 1.171842 0.044752
v 2.809582 2.507145 0.127530
v 0.403395 2.872252 0.028077
v 1.462254 2.911070 0.065573
v 1.059571 3.453076 0.063825
v 2.330023 2.942004 0.106638
v 2.746966 2.667977 0.941250
v 3.216078 2.401855 1.717720
v 3.385239 1.937539 1.276567
v 3.350249 1.905208 0.756252
v 3.117903 2.859246 2.146298
v 3.608600 2.029640 2.058012
v 3.708603 1.166015 1.123034
v 3.505986 1.483498 0.209485
v 3.866813 0.555687 0.761335
v 3.585531 1.129323 0.103299
v 3.952059 0.702561 1.561014
v 4.027995 1.168776 2.114089
v 3.782556 0.688038 0.165416
v 3.885851 0.199203 0.196556
v 0.065350 3.397490 -0.000403
v 0.320901 3.845328 0.779569
v 0.548361 3.650144 0.056177
v 1.092652 3.684041 0.937270
v 1.638841 3.351993 0.106835
v 1.700942 3.408880 0.626924
v 0.672512 4.038970 1.463724
v 0.085892 4.391135 1.800240
v 0.167119 4.775527 1.969277
v 0.743361 4.559884 2.295125
v 0.901315 4.439930 1.959713
v 1.581877 3.988377 1.827786
v 2.051158 3.253394 1.025348
v 2.468521 3.260189 1.804189
v 2.455338 3.571802 2.060138
v 2.674676 2.957692 1.487606
v -0.020159 4.475845 2.408804
v 0.300810 4.185953 2.481047
v 1.401267 4.237517 2.403049
v 1.873649 4.069759 2.297328
v 2.500582 3.424011 2.456931
v 1.195294 4.351803 2.888250
v 2.234058 3.446915 2.700330
v 2.857267 3.261346 2.266084
v -4.593401 0.410644 2.449406
v -4.586160 0.111111 2.440115
v -4.723012 -0.118639 2.345503
v -4.072344 -0.353899 2.550352
v -4.290471 0.450212 2.571087
v -4.472190 0.806686 2.475164
v -4.307935 1.052838 2.493168
v -4.310098 -0.208558 2.870299
v -3.998384 0.922877 2.475316
v -3.855757 1.310850 2.711808
v -4.096762 1.699358 2.355980
v -3.977930 1.835434 2.710918
v -4.044026 2.134838 2.433241
v -3.792543 2.314001 2.490329
v -3.708341 1.528023 3.003925
v -3.643385 2.816192 2.639774
v -3.586774 2.708401 2.515542
v -3.175975 1.673303 2.954804
v -3.412838 2.195371 2.833302
v -2.674857 2.530802 2.768756
v -3.021119 2.729825 2.695324
v -2.738091 2.586600 3.324550
v -3.146846 3.101854 2.768001
v -3.825058 0.723307 2.674658
v -3.793428 -0.140596 2.949836
v -3.805779 0.102627 3.511880
v -3.479801 0.508177 3.177443
v -3.243556 -0.435696 3.366470
v -3.080427 -0.306629 3.719333
v -3.354078 -0.840263 3.608943
v -3.823112 0.877880 3.259458
v -3.300790 1.188563 3.585199
v -2.762450 1.702672 3.265059
v -3.079937 1.953311 3.459307
v -3.220785 0.594412 3.702344
v -2.986765 0.698202 3.349098
v -2.826889 -0.178711 3.488361
v -2.482946 0.034578 3.718728
v -2.555185 0.751310 3.762617
v -2.440224 1.557590 3.751182
v -2.224347 2.573548 3.206873
v -2.150288 3.134520 2.731980
v -2.131050 3.443341 3.183207
v -1.391997 3.507572 3.103040
v -1.855702 -0.625561 3.450264
v -1.894343 0.159231 3.455692
v -2.083042 -0.030565 3.630324
v -2.140185 0.348191 3.599230
v -2.265891 -0.043661 3.561387
v -2.346963 0.461924 3.532728
v -1.961727 0.950757 3.408567
v -1.983015 2.442317 3.682766
v -1.791303 2.212345 3.553115
v -2.227736 1.436613 3.505239
v -1.962351 1.550917 3.687820
v -2.270020 0.987343 3.601698
v -1.562557 2.906362 3.720214
v -0.444609 3.991951 3.132586
v -1.139883 3.557640 3.611982
v -1.215431 2.724416 3.680124
v -0.753116 3.345654 3.660159
v -0.216656 3.853700 3.678305
v -1.507366 1.932572 3.471625
v -1.590367 2.182326 3.756057
v -1.306686 1.428643 3.485631
v -0.942187 2.181917 3.712128
v -0.765846 1.877069 3.476148
v -0.238110 2.566947 3.703924
v -0.829378 2.999738 3.882141
v -0.223128 3.101585 3.663616
v -0.277062 3.458864 3.896359
v -1.074270 2.507330 3.510923
v -0.886597 -0.387237 2.603258
v -1.338046 -0.061274 2.863308
v -1.558589 0.003505 3.137363
v -1.701009 0.661532 3.509527
v -1.206447 0.706809 2.768051
v -0.762810 0.252674 2.508496
v -0.887064 1.119975 2.691813
v -0.352244 0.173696 2.898794
v -0.535206 1.174288 2.522042
v -0.227889 0.800195 2.832982
v -0.441407 1.733294 3.358410
v -0.046830 1.340000 3.021147
v -0.335994 -0.548700 2.989183
v -0.122824 -0.092711 2.743494
v -0.002812 2.159516 3.619917
v 0.585745 3.385068 3.475849
v 0.366029 3.746667 3.714782
v 0.553158 2.921283 3.887794
v 1.858780 3.772210 2.812342
v 1.224045 3.926339 2.941923
v 1.825619 3.796191 3.093262
v 1.265184 3.918113 3.353509
v 0.601955 4.354780 3.202723
v 0.283441 3.819615 3.367947
v 0.701079 3.868867 3.589171
v 2.227067 3.540780 2.891027
v 0.182080 0.705868 3.151923
v 0.612475 1.717139 3.236115
v 1.400167 0.995828 3.167617
v 1.177588 1.566808 3.531734
v 0.541117 0.678445 3.347753
v 0.327599 1.414020 3.347152
v 0.749499 0.963121 3.138637
v 0.404665 1.796919 3.572942
v 1.035963 2.144628 3.320534
v 1.905074 1.602539 3.163779
v 1.337972 2.571921 3.652140
v 0.864182 2.305396 3.716373
v 1.875997 2.405549 3.251370
v 0.432998 2.705672 3.620452
v 1.013327 2.779148 3.549398
v 1.119723 3.127565 3.900264
v 1.824593 2.953748 3.550271
v 1.501969 3.273979 3.723709
v 1.717301 3.173981 3.087225
v 2.419868 2.116449 3.336976
v 2.478458 2.485132 3.468542
v 2.222760 3.187507 3.431641
v 2.391985 3.139276 2.970879
v 0.387084 -0.035741 3.070640
v 0.967904 0.843603 3.497220
v 1.057331 0.061057 3.111748
v 0.608349 -0.195423 3.379892
v 1.278044 -0.393413 3.447453
v 1.218089 0.285794 3.528320
v 1.714535 -0.324830 2.948393
v 1.713956 0.196969 3.062421
v 1.972353 0.789998 3.279067
v 2.177292 0.011257 3.069010
v 2.012118 -0.464619 3.038772
v 2.455264 -0.366359 3.070993
v 1.621301 1.043207 3.558760
v 2.319737 1.345355 3.006408
v 2.170098 1.833612 3.095142
v 2.992157 2.959868 2.665456
v 2.910612 3.082528 3.289900
v 2.759043 3.481934 2.624250
v 3.510161 2.865414 3.040223
v 3.162120 2.802905 3.429420
v 3.101143 -0.308112 3.408258
v 2.709445 0.076413 3.074268
v 2.586090 -0.741552 3.212609
v 2.918711 -0.759756 3.558783
v 3.415933 -0.543449 3.643530
v 4.347147 1.239762 2.660412
v 4.001241 1.593982 2.293136
v 4.205955 0.665198 2.528246
v 3.982337 1.978564 2.490768
v 3.776567 2.297194 3.084968
v 3.726571 2.415189 2.603344
v 3.758214 2.116751 2.400921
v 4.167971 1.753477 2.854751
v 3.536445 2.553838 2.411041
v 3.570179 2.747263 2.637439
v 3.894993 2.061765 3.541181
v 4.369760 1.396868 3.104362
v 4.366451 0.636575 2.784609
v 3.966425 1.361419 3.624447
v 4.293706 0.625166 3.287387
v 2.957174 2.563806 3.935806
v 3.177808 1.446989 3.579517
v 3.376987 1.546911 3.799112
v 2.856321 2.282541 3.730037
v 3.344344 2.441046 3.835871
v 3.103077 2.682809 3.805974
v 3.132875 2.908142 3.819239
v 2.505039 0.847571 2.989830
v 2.943270 0.543798 3.292984
v 2.731441 1.289479 3.225009
v 2.831414 1.576958 3.276209
v 2.344312 0.239888 3.045467
v 3.306762 0.365033 3.304532
v 3.913958 -0.054012 3.436331
v 3.423827 0.428198 3.624175
v 3.900864 0.643204 3.550753
v 4.166521 -0.647264 2.981407
v 4.286059 -0.164637 3.136062
v 4.287303 0.031545 2.570102
v 4.226753 -0.038802 2.251219
v 4.310419 0.365996 2.211115
v 4.116519 -0.106297 1.868512
v 4.056801 -0.618832 2.463094
v 3.356974 2.930752 2.506165
v 3.159600 3.174857 2.648189
v -3.262554 3.263270 2.580097
vt 0.760852 0.747557
vt 0.777114 0.752752
vt 0.732784 0.773424
vt 0.742322 0.788461
vt 0.754555 0.776596
vt 0.994739 0.341607
vt 0.987948 0.376653
vt 0.958104 0.355559
vt 0.983867 0.305544
vt 0.745436 0.729338
vt 0.819314 0.688637
vt 0.806269 0.705551
vt 0.799522 0.679012
vt 0.784607 0.711156
vt 0.796992 0.729779
vt 0.985672 0.432609
vt 0.977202 0.449625
vt 0.948108 0.402089
vt 0.984363 0.405650
vt 0.821645 0.663967
vt 0.964703 0.481669
vt 0.932731 0.442649
vt 0.919934 0.422899
vt 0.776875 0.642079
vt 0.814760 0.649927
vt 0.984452 0.481397
vt 0.985873 0.490963
vt 0.928698 0.473385
vt 0.981067 0.528557
vt 0.937582 0.511907
vt 0.805841 0.606560
vt 0.826845 0.620702
vt 0.898458 0.473271
vt 0.744252 0.664569
vt 0.719048 0.708389
vt 0.698644 0.751902
vt 0.899246 0.375719
vt 0.908951 0.336852
vt 0.767527 0.616168
vt 0.726482 0.634637
vt 0.686810 0.668897
vt 0.666250 0.689445
vt 0.750205 0.583758
vt 0.705203 0.604132
vt 0.663293 0.633385
vt 0.616414 0.641092
vt 0.674334 0.581883
vt 0.652230 0.594095
vt 0.625078 0.606613
vt 0.704238 0.546387
vt 0.671929 0.558323
vt 0.808653 0.549045
vt 0.776052 0.554991
vt 0.792818 0.524943
vt 0.748218 0.514839
vt 0.974837 0.575252
vt 0.986127 0.555137
vt 0.981952 0.615458
vt 0.985944 0.587468
vt 0.987980 0.570735
vt 0.980712 0.644657
vt 0.943522 0.608636
vt 0.811636 0.529488
vt 0.806148 0.572396
vt 0.820184 0.592892
vt 0.770532 0.488951
vt 0.783648 0.481980
vt 0.797114 0.501429
vt 0.932882 0.648351
vt 0.979544 0.674492
vt 0.945159 0.686046
vt 0.938380 0.563143
vt 0.626510 0.575008
vt 0.587095 0.603187
vt 0.579107 0.578942
vt 0.664561 0.531137
vt 0.694789 0.500036
vt 0.659991 0.508349
vt 0.668278 0.473075
vt 0.714162 0.447926
vt 0.628310 0.516720
vt 0.646557 0.554372
vt 0.609909 0.544689
vt 0.632511 0.487317
vt 0.567503 0.555233
vt 0.576787 0.525424
vt 0.764485 0.466869
vt 0.740125 0.447854
vt 0.746403 0.461220
vt 0.955271 0.749186
vt 0.983738 0.729840
vt 0.984838 0.771561
vt 0.708920 0.422586
vt 0.980419 0.707658
vt 0.988942 0.713047
vt 0.955694 0.710547
vt 0.966020 0.792472
vt 0.673081 0.438031
vt 0.913543 0.774020
vt 0.601695 0.514579
vt 0.617344 0.459119
vt 0.580335 0.498134
vt 0.539422 0.528435
vt 0.660009 0.408481
vt 0.989520 0.824181
vt 0.961696 0.820416
vt 0.633918 0.412535
vt 0.963301 0.862360
vt 0.954384 0.896319
vt 0.896609 0.865329
vt 0.598399 0.415323
vt 0.615370 0.397860
vt 0.995448 0.852068
vt 0.988672 0.869350
vt 0.227899 0.609633
vt 0.195599 0.625121
vt 0.193733 0.588354
vt 0.928135 0.980816
vt 0.913085 0.966917
vt 0.915860 0.947492
vt 0.197909 0.649574
vt 0.511459 0.456315
vt 0.526203 0.494625
vt 0.465442 0.483978
vt 0.552837 0.495281
vt 0.504188 0.532270
vt 0.470214 0.448067
vt 0.561428 0.447565
vt 0.519381 0.437258
vt 0.492279 0.430374
vt 0.983553 0.932564
vt 0.929847 0.915777
vt 0.548691 0.410831
vt 0.567430 0.400196
vt 0.993637 0.944074
vt 0.987116 0.976511
vt 0.952380 0.956576
vt 0.517262 0.417138
vt 0.506589 0.427313
vt 0.184888 0.616311
vt 0.171612 0.606181
vt 0.155882 0.583926
vt 0.177988 0.565933
vt 0.981404 0.987644
vt 0.964329 0.985171
vt 0.152433 0.598722
vt 0.945189 0.987036
vt 0.938995 0.322354
vt 0.667515 0.733567
vt 0.890842 0.568271
vt 0.882011 0.532642
vt 0.870398 0.628813
vt 0.908554 0.600034
vt 0.875165 0.676335
vt 0.852489 0.651388
vt 0.850926 0.607744
vt 0.860676 0.594047
vt 0.260228 0.105915
vt 0.247024 0.080005
vt 0.254779 0.050751
vt 0.228130 0.106047
vt 0.220602 0.071361
vt 0.202588 0.102169
vt 0.212043 0.145092
vt 0.858019 0.554743
vt 0.860301 0.515403
vt 0.843024 0.539698
vt 0.844049 0.568360
vt 0.848841 0.511242
vt 0.855015 0.471592
vt 0.870214 0.462499
vt 0.229007 0.045644
vt 0.238184 0.017836
vt 0.210138 0.028752
vt 0.069728 0.780210
vt 0.082391 0.801017
vt 0.064709 0.810600
vt 0.173250 0.071760
vt 0.165679 0.030357
vt 0.184376 0.015522
vt 0.094254 0.843810
vt 0.056796 0.833167
vt 0.041318 0.787593
vt 0.060165 0.792068
vt 0.195167 0.053858
vt 0.029646 0.802764
vt 0.014583 0.813219
vt 0.026941 0.823687
vt 0.215437 0.012584
vt 0.146033 0.071463
vt 0.137291 0.017860
vt 0.139836 0.114411
vt 0.115979 0.082867
vt 0.161168 0.126747
vt 0.124786 0.145050
vt 0.112929 0.108525
vt 0.254433 0.149581
vt 0.160108 0.015331
vt 0.171479 0.894143
vt 0.179384 0.844067
vt 0.201600 0.872658
vt 0.115042 0.838741
vt 0.113510 0.806432
vt 0.145827 0.842866
vt 0.859689 0.432921
vt 0.872069 0.413689
vt 0.081937 0.865804
vt 0.127981 0.874116
vt 0.104202 0.882369
vt 0.127044 0.898464
vt 0.138525 0.801401
vt 0.849977 0.410303
vt 0.854266 0.372642
vt 0.158904 0.920068
vt 0.182829 0.803194
vt 0.215061 0.840607
vt 0.213547 0.796982
vt 0.152473 0.791400
vt 0.096203 0.777395
vt 0.092662 0.138229
vt 0.071511 0.152990
vt 0.061668 0.094723
vt 0.087172 0.093605
vt 0.113320 0.045682
vt 0.115441 0.015524
vt 0.082582 0.048450
vt 0.059619 0.052536
vt 0.073298 0.031760
vt 0.095331 0.006174
vt 0.213236 0.725040
vt 0.230042 0.714393
vt 0.236644 0.738858
vt 0.261428 0.715249
vt 0.048509 0.063010
vt 0.210440 0.762735
vt 0.204274 0.734863
vt 0.193670 0.751436
vt 0.170567 0.758831
vt 0.230205 0.775225
vt 0.260528 0.776603
vt 0.288556 0.738718
vt 0.274513 0.758488
vt 0.043273 0.098434
vt 0.033880 0.067717
vt 0.753442 0.030022
vt 0.728998 0.045620
vt 0.700778 0.045228
vt 0.729006 0.005768
vt 0.770511 0.006817
vt 0.782850 0.017104
vt 0.027957 0.106549
vt 0.039710 0.147047
vt 0.023860 0.134542
vt 0.216940 0.705298
vt 0.221231 0.696779
vt 0.016217 0.104124
vt 0.005509 0.102638
vt 0.242480 0.697758
vt 0.229813 0.694196
vt 0.689491 0.012930
vt 0.798288 0.053417
vt 0.758924 0.070017
vt 0.026693 0.074571
vt 0.919642 0.734023
vt 0.873637 0.736917
vt 0.914582 0.699055
vt 0.849229 0.746625
vt 0.849055 0.729056
vt 0.287194 0.193456
vt 0.261139 0.202703
vt 0.277936 0.170829
vt 0.856709 0.709886
vt 0.243583 0.245634
vt 0.236099 0.204725
vt 0.182408 0.361184
vt 0.227061 0.308764
vt 0.210724 0.353848
vt 0.186695 0.316577
vt 0.201077 0.295434
vt 0.865783 0.768223
vt 0.924715 0.817823
vt 0.886547 0.815783
vt 0.863352 0.812943
vt 0.850792 0.792625
vt 0.292346 0.233263
vt 0.260605 0.249034
vt 0.266016 0.278242
vt 0.272828 0.301062
vt 0.291806 0.272712
vt 0.864846 0.862241
vt 0.856715 0.832687
vt 0.857704 0.855014
vt 0.210169 0.259958
vt 0.860811 0.882321
vt 0.278858 0.325745
vt 0.250641 0.321717
vt 0.231583 0.370847
vt 0.189441 0.404842
vt 0.221405 0.411202
vt 0.877743 0.920086
vt 0.270594 0.379621
vt 0.245841 0.381412
vt 0.273390 0.351882
vt 0.277855 0.377205
vt 0.865285 0.911999
vt 0.856271 0.909347
vt 0.258299 0.406787
vt 0.866627 0.937652
vt 0.876302 0.952025
vt 0.866080 0.954721
vt 0.871448 0.965592
vt 0.879618 0.976413
vt 0.892836 0.964844
vt 0.241509 0.656840
vt 0.214943 0.679889
vt 0.212273 0.664186
vt 0.230909 0.682217
vt 0.210076 0.695543
vt 0.262948 0.419114
vt 0.237909 0.438869
vt 0.204730 0.204910
vt 0.231114 0.167198
vt 0.277894 0.152436
vt 0.269813 0.129956
vt 0.197607 0.174677
vt 0.043462 0.206852
vt 0.066695 0.199575
vt 0.058021 0.240571
vt 0.088293 0.217535
vt 0.147635 0.201354
vt 0.176067 0.208096
vt 0.120793 0.229008
vt 0.122641 0.176176
vt 0.100946 0.185932
vt 0.183964 0.145267
vt 0.146917 0.170926
vt 0.100998 0.242971
vt 0.042490 0.177991
vt 0.034690 0.159984
vt 0.787148 0.083726
vt 0.811904 0.027923
vt 0.828882 0.045386
vt 0.843237 0.099477
vt 0.859347 0.061569
vt 0.818794 0.106588
vt 0.867046 0.099952
vt 0.887375 0.085372
vt 0.884466 0.108832
vt 0.076068 0.259774
vt 0.082844 0.293681
vt 0.104034 0.312793
vt 0.121501 0.268099
vt 0.058634 0.282248
vt 0.046331 0.301566
vt 0.139611 0.295300
vt 0.152149 0.247490
vt 0.182049 0.274134
vt 0.158746 0.316643
vt 0.196079 0.231654
vt 0.132412 0.324900
vt 0.166878 0.343197
vt 0.132050 0.360800
vt 0.150026 0.376119
vt 0.866003 0.361399
vt 0.854743 0.350844
vt 0.855450 0.684985
vt 0.949945 0.290958
vt 0.483936 0.018774
vt 0.524170 0.025171
vt 0.508108 0.053853
vt 0.989060 0.283422
vt 0.703802 0.807885
vt 0.693346 0.794137
vt 0.933857 0.293623
vt 0.540095 0.046319
vt 0.541710 0.018561
vt 0.574950 0.031962
vt 0.580654 0.055968
vt 0.529880 0.076439
vt 0.900181 0.270160
vt 0.896518 0.303812
vt 0.668617 0.819962
vt 0.471599 0.045155
vt 0.517221 0.100465
vt 0.461199 0.063821
vt 0.640577 0.772740
vt 0.641295 0.803911
vt 0.643446 0.817387
vt 0.481770 0.105152
vt 0.448841 0.094006
vt 0.615387 0.823563
vt 0.623096 0.738256
vt 0.620631 0.705051
vt 0.577023 0.741727
vt 0.584036 0.776239
vt 0.578677 0.813530
vt 0.506655 0.732635
vt 0.557792 0.699879
vt 0.532083 0.764414
vt 0.594130 0.673279
vt 0.586999 0.638933
vt 0.538465 0.658810
vt 0.517135 0.697119
vt 0.488844 0.139568
vt 0.440349 0.122529
vt 0.569846 0.095280
vt 0.567032 0.132907
vt 0.543742 0.151647
vt 0.571802 0.161479
vt 0.564527 0.180668
vt 0.510807 0.172387
vt 0.478718 0.180688
vt 0.517012 0.219314
vt 0.463884 0.215854
vt 0.491462 0.247448
vt 0.444745 0.155128
vt 0.431376 0.190723
vt 0.549707 0.808380
vt 0.429299 0.142381
vt 0.421280 0.162173
vt 0.528296 0.801825
vt 0.412868 0.185603
vt 0.547047 0.189489
vt 0.544163 0.215650
vt 0.540219 0.232651
vt 0.522932 0.244604
vt 0.494967 0.967842
vt 0.479750 0.964482
vt 0.490239 0.944156
vt 0.561681 0.197418
vt 0.462670 0.976056
vt 0.440373 0.971533
vt 0.454521 0.953166
vt 0.509754 0.961908
vt 0.532985 0.260691
vt 0.523985 0.271759
vt 0.406000 0.207189
vt 0.397314 0.238434
vt 0.388718 0.225965
vt 0.493047 0.770532
vt 0.471530 0.756014
vt 0.376772 0.257290
vt 0.382029 0.277465
vt 0.438479 0.234793
vt 0.428383 0.273837
vt 0.507103 0.792223
vt 0.463377 0.276814
vt 0.490388 0.299099
vt 0.507121 0.278109
vt 0.441089 0.307354
vt 0.496087 0.340211
vt 0.498835 0.306746
vt 0.507083 0.319444
vt 0.519859 0.296823
vt 0.572038 0.953544
vt 0.559440 0.968928
vt 0.544034 0.956290
vt 0.530526 0.965174
vt 0.519388 0.934630
vt 0.568816 0.929501
vt 0.566386 0.976613
vt 0.582068 0.964761
vt 0.509532 0.327888
vt 0.557828 0.621536
vt 0.490233 0.663395
vt 0.523019 0.620435
vt 0.472078 0.612238
vt 0.555350 0.597102
vt 0.529829 0.574495
vt 0.496258 0.587950
vt 0.453720 0.564167
vt 0.451256 0.640621
vt 0.419443 0.613162
vt 0.405213 0.556776
vt 0.413618 0.532887
vt 0.442602 0.532588
vt 0.399747 0.594132
vt 0.465469 0.699639
vt 0.426871 0.657381
vt 0.419375 0.692053
vt 0.397165 0.627749
vt 0.322142 0.447370
vt 0.338767 0.495479
vt 0.303848 0.500825
vt 0.282483 0.428497
vt 0.280830 0.483266
vt 0.263237 0.451881
vt 0.301771 0.398609
vt 0.371917 0.495444
vt 0.337640 0.530050
vt 0.269290 0.530957
vt 0.242730 0.485111
vt 0.232227 0.545245
vt 0.224491 0.501398
vt 0.270429 0.568359
vt 0.308924 0.570376
vt 0.249402 0.471688
vt 0.425804 0.508679
vt 0.438113 0.486420
vt 0.452710 0.461315
vt 0.412438 0.522486
vt 0.212612 0.520336
vt 0.196345 0.542389
vt 0.359999 0.274743
vt 0.398503 0.313377
vt 0.356781 0.305201
vt 0.429111 0.714779
vt 0.455358 0.731534
vt 0.344609 0.324621
vt 0.382401 0.355831
vt 0.403750 0.665630
vt 0.326099 0.361668
vt 0.348336 0.377781
vt 0.424189 0.349544
vt 0.459913 0.330824
vt 0.477125 0.345776
vt 0.475004 0.379445
vt 0.452267 0.373659
vt 0.418498 0.399942
vt 0.354721 0.407158
vt 0.380663 0.449151
vt 0.403337 0.447098
vt 0.354670 0.454049
vt 0.502879 0.352918
vt 0.644513 0.936293
vt 0.601945 0.938359
vt 0.617202 0.921140
vt 0.672984 0.913924
vt 0.437004 0.426444
vt 0.453774 0.408990
vt 0.417649 0.467306
vt 0.657447 0.890716
vt 0.435841 0.466174
vt 0.394462 0.481320
vt 0.590365 0.822186
vt 0.595846 0.947406
vt 0.869350 0.287007
vt 0.221171 0.946856
vt 0.202138 0.945668
vt 0.203245 0.914611
vt 0.246705 0.935835
vt 0.241609 0.949900
vt 0.875917 0.265854
vt 0.600288 0.039030
vt 0.863125 0.304026
vt 0.865902 0.320245
vt 0.883722 0.255350
vt 0.224457 0.903896
vt 0.180397 0.932271
vt 0.281460 0.940128
vt 0.309247 0.932598
vt 0.282194 0.959018
vt 0.306154 0.960301
vt 0.335222 0.952232
vt 0.332278 0.976486
vt 0.353346 0.978697
vt 0.329117 0.917086
vt 0.588815 0.077468
vt 0.586730 0.101036
vt 0.382228 0.970355
vt 0.264990 0.955431
vt 0.376252 0.983036
vt 0.359582 0.899231
vt 0.368023 0.934302
vt 0.410941 0.919322
vt 0.404001 0.939616
vt 0.418417 0.887719
vt 0.399404 0.983845
vt 0.410784 0.960761
vt 0.280832 0.916387
vt 0.245742 0.883827
vt 0.272570 0.864792
vt 0.306048 0.861864
vt 0.267977 0.825238
vt 0.287488 0.809705
vt 0.241462 0.826086
vt 0.302883 0.888806
vt 0.348623 0.856415
vt 0.390222 0.850115
vt 0.383583 0.874554
vt 0.326097 0.834423
vt 0.344473 0.820252
vt 0.304607 0.793050
vt 0.329586 0.772641
vt 0.363155 0.795360
vt 0.401302 0.818268
vt 0.442752 0.866501
vt 0.451196 0.927303
vt 0.470353 0.905872
vt 0.506777 0.891628
vt 0.658507 0.042773
vt 0.634372 0.085966
vt 0.624297 0.065951
vt 0.610335 0.088390
vt 0.634472 0.054977
vt 0.356000 0.758153
vt 0.358996 0.770973
vt 0.331727 0.755172
vt 0.334707 0.744376
vt 0.301566 0.731492
vt 0.612996 0.129660
vt 0.453232 0.837170
vt 0.454806 0.816715
vt 0.407240 0.799519
vt 0.426432 0.790613
vt 0.387843 0.783430
vt 0.596250 0.107449
vt 0.592021 0.125057
vt 0.595624 0.163936
vt 0.487277 0.845562
vt 0.566591 0.893271
vt 0.524145 0.864553
vt 0.499086 0.819928
vt 0.539045 0.838795
vt 0.575388 0.857804
vt 0.617296 0.192766
vt 0.600554 0.204023
vt 0.643746 0.172123
vt 0.646106 0.222629
vt 0.671011 0.208634
vt 0.674656 0.255827
vt 0.465220 0.804675
vt 0.617041 0.266178
vt 0.651283 0.285160
vt 0.630342 0.302931
vt 0.613083 0.239450
vt 0.626274 0.232855
vt 0.525251 0.818487
vt 0.567539 0.825907
vt 0.710610 0.082711
vt 0.682376 0.089258
vt 0.662846 0.084866
vt 0.634563 0.118936
vt 0.673748 0.132649
vt 0.698354 0.119987
vt 0.682329 0.157175
vt 0.721443 0.119699
vt 0.698855 0.162801
vt 0.719353 0.151499
vt 0.694716 0.205229
vt 0.725192 0.182271
vt 0.742813 0.085509
vt 0.734188 0.109020
vt 0.706350 0.241568
vt 0.676544 0.327609
vt 0.650071 0.333554
vt 0.693987 0.299803
vt 0.701123 0.876080
vt 0.666487 0.867343
vt 0.683024 0.852779
vt 0.660882 0.844706
vt 0.625459 0.880284
vt 0.608686 0.850720
vt 0.629490 0.839010
vt 0.605455 0.834411
vt 0.660303 0.349221
vt 0.679945 0.371643
vt 0.717441 0.864791
vt 0.745367 0.153517
vt 0.758751 0.220183
vt 0.815238 0.211121
vt 0.786447 0.244670
vt 0.770340 0.162721
vt 0.750144 0.200550
vt 0.777353 0.179596
vt 0.742194 0.231488
vt 0.761689 0.268324
vt 0.819220 0.276193
vt 0.751310 0.302791
vt 0.736951 0.276419
vt 0.789293 0.313175
vt 0.702577 0.281502
vt 0.726732 0.300828
vt 0.717183 0.322214
vt 0.760816 0.336804
vt 0.730751 0.338896
vt 0.727463 0.369514
vt 0.821539 0.322552
vt 0.807069 0.350608
vt 0.764656 0.363284
vt 0.726480 0.402537
vt 0.754821 0.390734
vt 0.702063 0.392310
vt 0.765710 0.122778
vt 0.797791 0.188091
vt 0.809355 0.144123
vt 0.788559 0.123126
vt 0.845126 0.138556
vt 0.825635 0.170116
vt 0.877250 0.152683
vt 0.858823 0.184906
vt 0.847409 0.226941
vt 0.036290 0.368074
vt 0.046231 0.337807
vt 0.063675 0.359978
vt 0.885028 0.174131
vt 0.875144 0.203828
vt 0.820341 0.235719
vt 0.851025 0.270395
vt 0.825224 0.295639
vt 0.767255 0.424280
vt 0.787869 0.393653
vt 0.743881 0.413003
vt 0.801201 0.426987
vt 0.810107 0.398496
vt 0.104686 0.394017
vt 0.062587 0.389989
vt 0.085926 0.349668
vt 0.112675 0.366881
vt 0.139720 0.402507
vt 0.329813 0.587994
vt 0.331803 0.564013
vt 0.310016 0.608014
vt 0.158151 0.559999
vt 0.133772 0.579679
vt 0.157329 0.538496
vt 0.093882 0.570728
vt 0.114974 0.588177
vt 0.130163 0.595793
vt 0.130016 0.554726
vt 0.799089 0.478484
vt 0.785744 0.466392
vt 0.803255 0.462478
vt 0.824723 0.450589
vt 0.787873 0.447436
vt 0.088982 0.538239
vt 0.132739 0.528275
vt 0.169062 0.505282
vt 0.104956 0.504343
vt 0.144654 0.486452
vt 0.030417 0.536554
vt 0.062919 0.482439
vt 0.072828 0.499014
vt 0.027865 0.517362
vt 0.051861 0.541700
vt 0.036245 0.550214
vt 0.827393 0.386491
vt 0.833530 0.378578
vt 0.035059 0.561119
vt 0.831293 0.361949
vt 0.050935 0.576207
vt 0.826631 0.396989
vt 0.826882 0.349549
vt 0.030495 0.421701
vt 0.067967 0.423773
vt 0.038696 0.452663
vt 0.037810 0.470952
vt 0.007472 0.470291
vt 0.007630 0.458759
vt 0.869092 0.233796
vt 0.874004 0.218095
vt 0.036631 0.385556
vt 0.008965 0.492431
vt 0.093866 0.430556
vt 0.146991 0.442066
vt 0.106308 0.446007
vt 0.122987 0.471209
vt 0.194059 0.441400
vt 0.172936 0.457407
vt 0.282260 0.630238
vt 0.269247 0.628849
vt 0.286801 0.608782
vt 0.252811 0.614367
vt 0.195419 0.485199
vt 0.213164 0.474303
vt 0.221004 0.459322
vt 0.255978 0.659663
vt 0.182740 0.518929
vt 0.369676 0.526322
vt 0.351412 0.539101
vt 0.727982 0.879293
vt 0.386690 0.514091
vt 0.379427 0.527162
vt 0.755005 0.428547
vt 0.736716 0.411000
vt 0.403288 0.507554
vt 0.400250 0.514901
vt 0.344032 0.560309
vt 0.769881 0.444603
vt 0.579428 0.139299
vt 0.701196 0.907098
vt 0.417076 0.488469
vt 0.569947 0.173533
vt 0.583877 0.123007
vt 0.411978 0.977546
vt 0.420649 0.976617
vt 0.035365 0.325036
vn -0.1753 -0.0278 -0.9841
vn -0.7329 -0.1575 -0.6618
vn -0.1766 0.0520 -0.9829
vn -0.9131 0.1004 -0.3953
vn -0.7081 -0.0073 -0.7061
vn -0.9863 -0.0887 -0.1390
vn -0.0217 -0.0052 -0.9998
vn -0.7886 -0.4291 -0.4404
vn -0.6322 -0.2860 -0.7200
vn -0.1872 -0.0697 -0.9798
vn -0.1344 -0.0152 -0.9908
vn -0.7347 -0.2144 -0.6436
vn -0.9442 -0.2916 -0.1529
vn -0.5136 -0.5459 -0.6620
vn -0.7594 -0.6246 -0.1823
vn -0.8667 -0.4759 -0.1496
vn -0.8900 -0.4077 -0.2043
vn 0.0002 0.0029 -1.0000
vn -0.2974 -0.3170 -0.9006
vn -0.8172 -0.5603 -0.1348
vn -0.4644 -0.6049 -0.6468
vn -0.6806 -0.7238 -0.1137
vn -0.0659 -0.1305 -0.9893
vn -0.7876 -0.5783 -0.2127
vn -0.0021 0.0074 -1.0000
vn 0.0003 -0.0005 -1.0000
vn -0.0133 0.0004 -0.9999
vn -0.9583 -0.1904 -0.2131
vn -0.9700 -0.0289 -0.2414
vn 0.0101 -0.0006 -0.9999
vn 0.0224 0.0075 -0.9997
vn 0.0198 -0.0028 -0.9998
vn 0.0140 -0.0160 -0.9998
vn 0.0187 0.0179 -0.9997
vn 0.0875 0.0309 -0.9957
vn 0.1024 -0.0246 -0.9944
vn 0.0973 -0.0702 -0.9928
vn 0.1327 0.0871 -0.9873
vn 0.1705 -0.0093 -0.9853
vn 0.1543 -0.1208 -0.9806
vn 0.0595 0.1080 -0.9924
vn 0.0959 0.1633 -0.9819
vn -0.1252 -0.1428 -0.9818
vn -0.0056 -0.0037 -1.0000
vn -0.0428 -0.0768 -0.9961
vn -0.0007 0.0199 -0.9998
vn -0.4275 -0.7115 -0.5577
vn -0.1364 -0.2419 -0.9607
vn -0.2681 -0.6432 -0.7172
vn -0.1159 -0.1870 -0.9755
vn -0.1271 -0.7282 -0.6734
vn -0.3403 -0.9361 -0.0885
vn 0.0204 -0.1471 -0.9889
vn 0.0197 -0.7716 -0.6358
vn -0.1529 -0.9833 -0.0984
vn 0.0104 -0.9950 -0.0990
vn -0.5277 -0.8436 -0.0995
vn 0.1110 -0.0104 -0.9938
vn 0.0936 -0.1763 -0.9799
vn -0.0284 -0.1666 -0.9856
vn 0.0660 0.1953 -0.9785
vn 0.0080 0.1061 -0.9943
vn -0.0621 0.2455 -0.9674
vn -0.0318 0.0813 -0.9962
vn 0.0136 -0.0664 -0.9977
vn -0.1273 0.1792 -0.9755
vn 0.1086 0.1040 -0.9886
vn -0.0339 -0.0257 -0.9991
vn -0.1319 0.1904 -0.9728
vn -0.1720 -0.1478 -0.9739
vn -0.1633 -0.1209 -0.9792
vn 0.0930 -0.7456 -0.6599
vn 0.1333 -0.7057 -0.6958
vn 0.0105 -0.2148 -0.9766
vn 0.2670 -0.9480 -0.1734
vn 0.2505 -0.6432 -0.7236
vn 0.1346 -0.9763 -0.1696
vn 0.4683 -0.8607 -0.1998
vn -0.0124 0.0070 -0.9999
vn 0.3850 -0.9120 -0.1415
vn -0.1742 0.0816 -0.9813
vn -0.0595 0.0892 -0.9942
vn -0.1894 -0.0100 -0.9818
vn -0.1182 -0.0859 -0.9893
vn 0.3705 -0.4980 -0.7840
vn 0.5780 -0.7923 -0.1954
vn 0.0274 -0.0076 -0.9996
vn 0.6856 -0.7144 -0.1401
vn 0.7801 -0.6123 -0.1287
vn 0.7183 -0.6758 -0.1655
vn 0.1093 -0.0198 -0.9938
vn 0.5124 -0.4762 -0.7147
vn 0.9964 0.0250 -0.0816
vn 0.9767 -0.2010 -0.0750
vn 0.9833 -0.0056 -0.1817
vn 0.9617 -0.2739 0.0057
vn 0.9075 -0.4127 -0.0779
vn 0.0725 0.0070 -0.9973
vn -0.0075 -0.0036 -1.0000
vn 0.1767 0.0162 -0.9841
vn -0.1514 -0.1011 -0.9833
vn -0.0056 -0.0017 -1.0000
vn 0.6875 0.0130 -0.7261
vn -0.0231 0.0079 -0.9997
vn 0.1801 -0.0408 -0.9828
vn 0.6585 -0.1430 -0.7389
vn 0.7792 -0.3385 -0.5276
vn 0.8262 -0.5566 -0.0874
vn 0.5060 -0.1611 -0.8474
vn 0.7331 -0.0445 -0.6786
vn 0.9148 -0.3684 -0.1659
vn 0.8169 -0.1607 -0.5539
vn 0.9566 -0.2015 -0.2103
vn 0.9580 -0.2124 -0.1926
vn -0.9831 0.0737 -0.1674
vn -0.0004 -0.0068 -1.0000
vn -0.4526 -0.8502 -0.2687
vn -0.5812 -0.7239 -0.3718
vn -0.1742 -0.9812 -0.0827
vn -0.3860 -0.9184 -0.0863
vn -0.0960 -0.9855 -0.1397
vn -0.1372 -0.8466 0.5143
vn -0.1088 -0.7587 0.6423
vn -0.2826 -0.9433 -0.1739
vn -0.1377 -0.6150 0.7764
vn -0.1486 -0.7500 0.6445
vn -0.2528 -0.7847 0.5660
vn -0.0765 -0.8525 0.5171
vn -0.0432 -0.9354 0.3510
vn -0.5452 -0.8338 -0.0870
vn -0.6978 -0.7128 0.0712
vn -0.3999 -0.4725 0.7854
vn -0.2719 -0.7196 0.6389
vn -0.4967 -0.3806 0.7800
vn -0.6220 -0.4964 0.6056
vn -0.7877 -0.5612 -0.2540
vn -0.1292 -0.7747 0.6190
vn -0.2069 -0.4739 0.8559
vn -0.3948 -0.6134 0.6840
vn -0.7752 -0.0975 0.6241
vn -0.6148 -0.5779 0.5367
vn -0.2724 -0.7363 0.6194
vn -0.1955 -0.8061 0.5585
vn -0.6060 -0.4461 0.6585
vn -0.3301 -0.8048 0.4933
vn -0.3630 -0.4506 0.8156
vn -0.1951 -0.3812 0.9037
vn -0.4041 -0.3421 0.8483
vn -0.2513 -0.2738 0.9284
vn -0.1521 -0.1662 0.9743
vn -0.0919 -0.5568 0.8255
vn -0.0832 0.3303 0.9402
vn -0.0041 -0.0983 0.9952
vn 0.0459 -0.5057 0.8615
vn -0.7661 -0.2009 0.6105
vn -0.5085 -0.3532 0.7853
vn -0.6986 -0.0471 0.7140
vn -0.5942 -0.4424 0.6717
vn -0.5054 -0.4380 0.7434
vn -0.7222 -0.4367 0.5363
vn -0.8898 -0.4429 0.1095
vn -0.9500 -0.2923 -0.1096
vn -0.3753 -0.2205 0.9003
vn -0.6140 -0.2550 0.7470
vn -0.6680 -0.7101 0.2225
vn -0.7459 -0.1771 0.6421
vn -0.1725 -0.0828 0.9815
vn -0.5047 -0.1695 0.8465
vn -0.4031 -0.3794 0.8328
vn -0.2154 -0.0657 0.9743
vn 0.1889 0.2663 0.9452
vn 0.2152 0.1346 0.9673
vn 0.0580 0.1105 0.9922
vn -0.0756 0.2785 0.9575
vn -0.3331 -0.2879 0.8979
vn -0.0938 0.1443 0.9851
vn -0.3290 -0.5389 0.7754
vn -0.2420 0.0388 0.9695
vn 0.1430 0.3978 0.9063
vn -0.1237 -0.2165 0.9684
vn 0.0432 0.0190 0.9989
vn 0.1959 -0.0810 0.9773
vn 0.1492 0.2583 0.9545
vn 0.0668 0.1077 0.9919
vn 0.1411 -0.0037 0.9900
vn 0.1097 -0.1802 0.9775
vn -0.0409 -0.1779 0.9832
vn 0.2362 -0.0143 0.9716
vn 0.1279 0.3227 0.9378
vn 0.2261 0.4981 0.8371
vn 0.4739 0.1181 0.8726
vn 0.5360 0.2490 0.8067
vn 0.3084 -0.0525 0.9498
vn 0.1185 0.5175 0.8475
vn 0.0901 0.5187 0.8502
vn 0.0972 0.3430 0.9343
vn 0.1086 0.2162 0.9703
vn 0.1726 0.2305 0.9576
vn 0.0218 0.0509 0.9985
vn -0.2187 0.1039 0.9702
vn 0.2070 -0.9718 -0.1128
vn 0.1838 -0.9711 -0.1523
vn 0.0631 -0.9926 -0.1034
vn 0.1423 -0.7314 0.6670
vn 0.2313 -0.6770 0.6987
vn 0.3602 -0.6827 0.6357
vn 0.1107 -0.9882 0.1063
vn 0.4733 -0.8733 0.1158
vn 0.2734 -0.8751 0.3993
vn 0.6958 -0.1337 0.7057
vn 0.4329 -0.7986 0.4181
vn 0.5885 -0.4359 0.6809
vn 0.2977 -0.3744 0.8782
vn 0.2411 -0.6948 0.6775
vn 0.3101 -0.9491 -0.0553
vn 0.5682 -0.8165 -0.1026
vn 0.5682 -0.7795 -0.2636
vn 0.5652 -0.8186 -0.1021
vn 0.2925 -0.6596 0.6924
vn 0.2467 -0.5760 0.7793
vn 0.1938 -0.5481 0.8136
vn 0.3834 -0.7003 0.6022
vn 0.5626 -0.6467 0.5151
vn 0.7279 -0.6513 0.2143
vn 0.2167 -0.6898 0.6908
vn 0.7073 -0.7067 0.0177
vn 0.4837 -0.7777 0.4015
vn 0.8175 -0.4410 0.3704
vn 0.7033 -0.2232 0.6749
vn 0.9334 -0.2809 0.2235
vn 0.8583 -0.4844 -0.1695
vn 0.9212 -0.3541 -0.1610
vn 0.8491 -0.4470 0.2816
vn 0.7454 -0.5598 0.3619
vn 0.8301 -0.5178 -0.2069
vn 0.9507 -0.2868 0.1180
vn 0.8855 -0.4579 0.0789
vn 0.7310 -0.3332 0.5955
vn 0.9665 -0.2044 0.1555
vn 0.9378 -0.2239 -0.2655
vn 0.9465 -0.1858 0.2639
vn 0.9288 -0.2207 0.2976
vn 0.4165 -0.8116 0.4097
vn 0.1642 -0.8857 0.4342
vn -0.1225 -0.8901 0.4390
vn 0.1125 -0.7528 0.6486
vn 0.0008 0.2168 0.9762
vn 0.1661 0.2321 0.9584
vn 0.1366 -0.1495 0.9793
vn -0.2065 0.3561 0.9113
vn -0.1698 0.2347 0.9571
vn 0.2294 -0.4674 0.8537
vn -0.2816 0.3471 0.8945
vn -0.0638 0.6038 0.7946
vn 0.0219 0.3810 0.9243
vn -0.0326 -0.6305 0.7755
vn 0.3207 -0.1937 0.9272
vn -0.3320 0.3040 0.8929
vn 0.1750 0.4365 0.8825
vn -0.1343 -0.3172 0.9388
vn -0.0705 -0.1444 0.9870
vn -0.3890 0.0048 0.9212
vn 0.4349 -0.2870 0.8535
vn -0.1471 0.2856 0.9470
vn 0.0996 0.0485 0.9938
vn -0.3689 0.3438 0.8635
vn -0.3896 0.2768 0.8784
vn -0.5658 0.3787 0.7325
vn -0.4186 0.3461 0.8396
vn -0.1297 -0.0584 0.9898
vn -0.0320 -0.0998 0.9945
vn -0.1315 -0.1887 0.9732
vn -0.2179 -0.1407 0.9658
vn 0.2531 -0.5486 0.7969
vn 0.0764 0.0836 0.9936
vn 0.0372 -0.0213 0.9991
vn -0.1518 0.1639 0.9747
vn -0.0051 0.1888 0.9820
vn -0.9730 -0.2195 -0.0716
vn -0.6353 -0.0842 0.7677
vn -0.9454 0.2579 -0.1994
vn -0.6467 0.1752 -0.7424
vn -0.8852 0.4151 -0.2100
vn -0.0523 0.0451 -0.9976
vn -0.9517 0.1531 -0.2663
vn -0.9156 0.3198 -0.2436
vn -0.9601 0.2372 -0.1480
vn -0.9445 0.3285 0.0081
vn -0.8424 0.4682 -0.2666
vn -0.9533 0.1341 -0.2705
vn -0.6620 0.3023 -0.6858
vn -0.7784 0.5707 -0.2618
vn -0.6173 0.3259 -0.7161
vn -0.0148 -0.0019 -0.9999
vn -0.0872 0.0188 -0.9960
vn -0.7572 0.6317 -0.1664
vn -0.5508 0.4341 -0.7129
vn -0.0043 -0.0074 -1.0000
vn 0.0053 -0.0156 -0.9999
vn -0.0007 -0.0040 -1.0000
vn -0.0057 -0.0051 -1.0000
vn -0.1242 0.2640 -0.9565
vn 0.0102 -0.0018 -0.9999
vn 0.0065 -0.0065 -1.0000
vn -0.0012 -0.0039 -1.0000
vn 0.0313 -0.0452 -0.9985
vn 0.0693 -0.0809 -0.9943
vn 0.0117 -0.0315 -0.9994
vn 0.0116 0.0005 -0.9999
vn -0.6624 0.7171 -0.2167
vn -0.4483 0.5931 -0.6688
vn -0.8720 0.4320 -0.2301
vn -0.7996 0.5789 -0.1597
vn -0.6859 0.6500 -0.3272
vn -0.7393 0.5539 -0.3829
vn -0.5326 0.8448 0.0525
vn -0.5829 0.7418 -0.3316
vn -0.5298 0.8135 -0.2396
vn -0.4565 0.8378 -0.2993
vn -0.3750 0.8882 -0.2654
vn -0.3454 0.8180 -0.4600
vn -0.5420 0.7687 -0.3397
vn -0.4163 0.8608 -0.2929
vn -0.2770 0.4206 -0.8639
vn -0.2545 0.4477 -0.8572
vn -0.5701 0.7890 -0.2292
vn -0.3625 0.9256 0.1087
vn -0.4675 0.8661 0.1767
vn -0.5251 0.8453 -0.0986
vn -0.6138 0.7279 0.3056
vn -0.4338 0.7924 0.4289
vn -0.2668 0.4519 0.8512
vn -0.4499 0.8815 0.1437
vn -0.2749 0.9378 0.2122
vn -0.2135 0.6706 -0.7105
vn -0.1297 0.7698 -0.6250
vn 0.0048 0.1268 -0.9919
vn 0.0067 0.3081 -0.9513
vn 0.0158 0.8318 -0.5548
vn -0.2676 0.9403 -0.2102
vn -0.0879 0.9601 -0.2654
vn -0.1600 0.8672 -0.4715
vn -0.1643 0.9431 -0.2892
vn -0.2338 0.9683 -0.0883
vn -0.0137 0.8818 -0.4715
vn -0.1169 0.9652 0.2339
vn -0.4357 0.8848 0.1651
vn -0.6195 0.7850 0.0034
vn -0.1784 0.9782 -0.1059
vn -0.6505 0.7501 -0.1193
vn -0.0034 0.8259 0.5638
vn -0.2928 0.7962 0.5294
vn -0.0357 0.8676 0.4960
vn 0.0178 -0.1207 -0.9925
vn 0.0166 0.0075 -0.9998
vn -0.0045 -0.0458 -0.9989
vn 0.0037 0.0095 -0.9999
vn -0.0176 -0.1866 -0.9823
vn -0.0808 -0.0826 -0.9933
vn -0.0041 -0.0086 -1.0000
vn 0.0256 0.0170 -0.9995
vn 0.0067 0.0288 -0.9996
vn 0.0496 0.0684 -0.9964
vn 0.5974 0.4009 -0.6946
vn 0.5693 0.3295 -0.7532
vn 0.0615 0.0388 -0.9973
vn 0.5559 0.5287 -0.6415
vn 0.0355 0.0065 -0.9993
vn 0.0353 0.0483 -0.9982
vn 0.1739 0.5841 -0.7928
vn 0.4457 0.5949 -0.6689
vn 0.7024 0.6911 -0.1703
vn 0.7611 0.5643 -0.3198
vn 0.8376 0.5047 -0.2093
vn 0.8490 0.5199 -0.0946
vn 0.6650 0.5470 -0.5085
vn 0.7847 0.4585 -0.4172
vn 0.9202 0.3491 -0.1770
vn 0.8579 0.4148 -0.3033
vn 0.9637 0.2412 -0.1142
vn 0.6491 0.2156 -0.7295
vn 0.9423 0.2064 -0.2634
vn 0.8869 0.2523 -0.3870
vn 0.7891 0.2143 -0.5757
vn 0.8053 0.1045 -0.5835
vn 0.0131 0.1463 -0.9892
vn 0.1308 0.9575 -0.2572
vn 0.1971 0.6595 -0.7254
vn 0.2919 0.8997 -0.3244
vn 0.2886 0.6521 -0.7010
vn 0.4513 0.8871 -0.0970
vn 0.1748 0.8381 -0.5167
vn 0.0042 0.6269 -0.7791
vn 0.0179 0.9311 -0.3643
vn 0.2800 0.8272 0.4872
vn 0.3602 0.8233 -0.4386
vn 0.4123 0.8045 -0.4275
vn 0.5539 0.7819 -0.2860
vn 0.6182 0.6454 -0.4487
vn 0.6303 0.7145 -0.3035
vn 0.6793 0.6922 -0.2438
vn 0.3802 0.6935 0.6119
vn 0.0880 0.8412 0.5335
vn 0.4001 0.9161 0.0254
vn 0.4983 0.8664 0.0323
vn 0.3490 0.9365 0.0340
vn 0.3453 0.8419 0.4148
vn 0.3580 0.9336 -0.0158
vn 0.5864 0.7097 -0.3904
vn -0.9076 0.0710 0.4137
vn -0.7896 0.0866 0.6075
vn -0.9498 0.0901 0.2995
vn -0.8713 -0.1765 0.4579
vn -0.3818 0.1528 0.9115
vn -0.7210 0.3505 0.5977
vn -0.6521 0.1587 0.7413
vn -0.9051 0.0029 0.4251
vn -0.4019 -0.0374 0.9149
vn -0.8472 0.0066 0.5312
vn -0.9290 0.2224 0.2957
vn -0.7815 0.1305 0.6101
vn -0.8688 0.4480 0.2111
vn -0.8234 0.5274 0.2095
vn -0.4375 0.2097 0.8745
vn -0.8349 0.4946 0.2416
vn -0.8032 0.4767 -0.3572
vn -0.6115 0.3899 0.6885
vn -0.1526 0.2198 0.9635
vn -0.6173 0.5015 0.6061
vn 0.1303 0.0739 0.9887
vn -0.5455 0.4267 0.7214
vn -0.1198 0.3300 0.9363
vn -0.8504 0.1313 0.5095
vn -0.7289 -0.0065 0.6845
vn -0.5284 0.0701 0.8461
vn -0.2634 0.2106 0.9414
vn -0.1650 0.0407 0.9855
vn -0.2689 -0.0744 0.9603
vn -0.3190 -0.0885 0.9436
vn -0.5131 0.2564 0.8191
vn -0.4546 0.2268 0.8613
vn -0.1071 0.1776 0.9783
vn -0.4617 0.3629 0.8094
vn -0.1170 0.1224 0.9856
vn 0.1161 0.1508 0.9817
vn 0.1889 0.0487 0.9808
vn 0.0090 -0.0281 0.9996
vn -0.0937 -0.0589 0.9939
vn -0.1464 0.1250 0.9813
vn -0.2805 0.2927 0.9141
vn -0.7248 0.4818 0.4925
vn -0.5698 0.4610 0.6803
vn -0.3344 0.5385 0.7734
vn 0.5561 0.1257 0.8216
vn 0.5715 -0.0250 0.8202
vn 0.1386 -0.0837 0.9868
vn 0.1174 0.1357 0.9838
vn 0.2310 0.0476 0.9718
vn 0.3839 0.0673 0.9209
vn 0.1845 -0.0812 0.9795
vn -0.3047 0.2068 0.9297
vn -0.1262 0.0515 0.9907
vn 0.1406 0.0434 0.9891
vn -0.0255 -0.0493 0.9985
vn 0.4841 -0.1460 0.8627
vn -0.3612 0.2659 0.8938
vn -0.1695 0.7698 0.6154
vn -0.4187 0.6095 0.6732
vn 0.0565 -0.2229 0.9732
vn -0.2457 0.3370 0.9089
vn 0.1016 0.3249 0.9403
vn 0.2243 -0.2858 0.9316
vn -0.0076 -0.0127 0.9999
vn 0.2140 -0.3332 0.9182
vn -0.1160 -0.0688 0.9909
vn 0.2247 -0.3927 0.8918
vn -0.0089 -0.1192 0.9928
vn -0.2051 -0.0935 0.9743
vn 0.1273 -0.1818 0.9751
vn -0.0278 0.3643 0.9309
vn 0.0180 -0.1280 0.9916
vn 0.0804 0.2026 0.9760
vn 0.6072 0.0739 0.7911
vn 0.7374 -0.0205 0.6752
vn 0.2675 -0.1199 0.9561
vn 0.5795 -0.2134 0.7866
vn -0.1017 0.2765 0.9556
vn 0.5058 -0.5119 0.6944
vn -0.2529 -0.1203 0.9600
vn -0.1013 -0.2508 0.9627
vn -0.5261 0.0957 0.8450
vn 0.0381 -0.6376 0.7694
vn -0.5099 -0.4785 0.7148
vn -0.0085 -0.0692 0.9976
vn -0.3207 0.0466 0.9460
vn -0.0171 -0.2421 0.9701
vn 0.2517 0.2241 0.9415
vn 0.0870 0.4763 0.8750
vn 0.0146 -0.1355 0.9907
vn 0.5340 0.8188 0.2109
vn 0.2912 0.6800 0.6729
vn 0.5072 0.6374 0.5800
vn 0.2850 0.6659 0.6894
vn 0.1329 0.8051 0.5781
vn 0.1932 0.5905 0.7836
vn 0.2029 0.6125 0.7640
vn 0.5008 0.7284 0.4676
vn -0.4979 -0.0826 0.8633
vn -0.1105 -0.5763 0.8098
vn -0.0446 -0.2758 0.9602
vn -0.0575 -0.1089 0.9924
vn 0.0269 0.0176 0.9995
vn -0.1793 -0.0543 0.9823
vn -0.2225 -0.3744 0.9002
vn 0.0534 -0.5182 0.8536
vn 0.3157 -0.2703 0.9095
vn 0.3766 0.0974 0.9213
vn 0.2111 -0.4204 0.8824
vn 0.1616 -0.4137 0.8960
vn 0.0353 -0.3852 0.9222
vn 0.1222 -0.4152 0.9015
vn -0.0985 -0.2952 0.9503
vn 0.1076 0.3238 0.9400
vn 0.2929 -0.2023 0.9345
vn 0.0581 0.8272 0.5589
vn 0.2733 0.7093 0.6497
vn -0.4448 -0.3467 0.8258
vn -0.3363 -0.0413 0.9408
vn 0.1900 0.7890 0.5843
vn 0.3083 0.8270 0.4700
vn -0.6459 -0.0169 0.7633
vn -0.2105 -0.0152 0.9775
vn -0.3448 -0.1644 0.9242
vn -0.0762 -0.1367 0.9877
vn 0.0156 -0.1999 0.9797
vn -0.0588 -0.1090 0.9923
vn 0.1552 -0.2414 0.9579
vn 0.2388 -0.1494 0.9595
vn 0.2167 -0.1611 0.9629
vn 0.0335 -0.0719 0.9969
vn -0.2492 0.0239 0.9682
vn -0.1899 0.1618 0.9684
vn 0.0073 -0.3797 0.9251
vn -0.0258 -0.0879 0.9958
vn -0.0508 -0.2366 0.9703
vn 0.3983 0.7050 0.5868
vn 0.2990 0.8935 0.3352
vn 0.4128 0.8826 0.2250
vn 0.6557 0.7255 0.2089
vn 0.3802 0.7469 0.5456
vn -0.4456 0.2073 0.8709
vn -0.3963 0.0557 0.9164
vn -0.4582 0.3122 0.8322
vn -0.0195 0.2919 0.9563
vn 0.0160 -0.0007 0.9999
vn 0.9381 0.1379 -0.3176
vn 0.7718 0.3020 -0.5596
vn 0.9491 0.0958 -0.3000
vn 0.7980 0.4876 -0.3542
vn 0.8147 0.5638 0.1356
vn 0.8521 0.4623 -0.2452
vn 0.6681 0.5367 -0.5154
vn 0.8675 0.4928 -0.0677
vn 0.7363 0.4442 -0.5104
vn 0.7460 0.6341 -0.2036
vn 0.7241 0.4104 0.5543
vn 0.9477 0.2297 0.2215
vn 0.9819 -0.0341 -0.1864
vn 0.5385 0.0305 0.8421
vn 0.8400 -0.0778 0.5370
vn -0.3145 0.3521 0.8815
vn -0.6771 -0.2809 0.6802
vn -0.1380 -0.1463 0.9796
vn -0.5892 -0.3133 0.7448
vn 0.5497 0.3284 0.7681
vn -0.3879 0.5532 0.7372
vn -0.1482 0.8795 0.4522
vn -0.1165 -0.0391 0.9924
vn -0.3117 0.0245 0.9499
vn -0.3720 -0.1209 0.9203
vn -0.5238 -0.3289 0.7858
vn 0.1680 -0.0151 0.9857
vn -0.5745 0.0176 0.8183
vn 0.4976 -0.1600 0.8525
vn -0.4382 -0.1400 0.8879
vn 0.3843 -0.1389 0.9127
vn 0.9087 -0.3352 0.2490
vn 0.8671 -0.2495 0.4312
vn 0.9858 -0.1392 -0.0941
vn 0.9669 -0.1984 -0.1602
vn 0.9838 0.0749 -0.1629
vn 0.9813 0.0221 -0.1911
vn 0.9315 -0.3216 0.1698
vn 0.7064 0.7075 -0.0210
vn 0.6349 0.5057 0.5841
vn -0.5651 0.7885 0.2427
s 1
f 1/1/1 2/2/2 3/3/3
f 4/4/4 3/3/3 5/5/5
f 5/6/5 2/7/2 6/8/6
f 6/8/6 4/9/4 5/6/5
f 3/3/3 7/10/7 1/1/1
f 2/2/2 5/5/5 3/3/3
f 8/11/8 9/12/9 10/13/10
f 10/13/10 9/12/9 11/14/11
f 12/15/12 11/14/11 9/12/9
f 9/16/9 8/17/8 13/18/13
f 12/19/12 9/16/9 13/18/13
f 8/11/8 10/13/10 14/20/14
f 8/17/8 15/21/15 16/22/16
f 8/17/8 16/22/16 13/18/13
f 17/23/17 13/18/13 16/22/16
f 12/19/12 13/18/13 2/7/2
f 12/15/12 2/2/2 11/14/11
f 2/7/2 13/18/13 6/8/6
f 18/24/18 19/25/19 10/13/10
f 14/26/14 19/27/19 15/21/15
f 20/28/20 16/22/16 15/21/15
f 14/26/14 15/21/15 8/17/8
f 21/29/21 22/30/22 15/21/15
f 21/29/21 15/21/15 19/27/19
f 23/31/23 21/32/21 19/25/19
f 14/20/14 10/13/10 19/25/19
f 15/21/15 22/30/22 20/28/20
f 20/28/20 24/33/24 16/22/16
f 10/13/10 11/14/11 25/34/25
f 11/14/11 7/10/7 25/34/25
f 7/10/7 26/35/26 25/34/25
f 7/10/7 11/14/11 1/1/1
f 27/36/27 26/35/26 7/10/7
f 28/37/28 6/8/6 13/18/13
f 13/18/13 17/23/17 28/37/28
f 1/1/1 11/14/11 2/2/2
f 6/8/6 28/37/28 29/38/29
f 18/24/18 30/39/30 23/31/23
f 30/39/30 18/24/18 31/40/31
f 31/40/31 18/24/18 25/34/25
f 25/34/25 26/35/26 32/41/32
f 26/35/26 33/42/33 32/41/32
f 31/40/31 25/34/25 32/41/32
f 34/43/34 31/40/31 35/44/35
f 32/41/32 33/42/33 36/45/36
f 33/42/33 37/46/37 36/45/36
f 35/44/35 31/40/31 36/45/36
f 32/41/32 36/45/36 31/40/31
f 38/47/38 35/44/35 36/45/36
f 39/48/39 38/47/38 36/45/36
f 39/48/39 36/45/36 40/49/40
f 36/45/36 37/46/37 40/49/40
f 41/50/41 34/43/34 35/44/35
f 35/44/35 38/47/38 41/50/41
f 41/50/41 38/47/38 42/51/42
f 43/52/43 44/53/44 45/54/45
f 45/54/45 44/53/44 46/55/46
f 47/56/47 21/29/21 48/57/48
f 49/58/49 47/56/47 43/59/43
f 43/59/43 47/56/47 50/60/50
f 49/58/49 51/61/51 52/62/52
f 45/54/45 49/63/49 43/52/43
f 50/64/50 44/53/44 43/52/43
f 23/31/23 50/64/50 48/65/48
f 47/56/47 48/57/48 50/60/50
f 50/64/50 23/31/23 44/53/44
f 34/43/34 23/31/23 30/39/30
f 48/65/48 21/32/21 23/31/23
f 23/31/23 34/43/34 44/53/44
f 45/54/45 46/55/46 53/66/53
f 54/67/54 51/68/51 53/66/53
f 51/68/51 45/54/45 53/66/53
f 46/55/46 44/53/44 41/50/41
f 55/69/55 52/62/52 51/61/51
f 54/70/54 56/71/56 51/61/51
f 56/71/56 55/69/55 51/61/51
f 47/56/47 57/72/57 22/30/22
f 34/43/34 30/39/30 31/40/31
f 47/56/47 49/58/49 52/62/52
f 34/43/34 41/50/41 44/53/44
f 51/68/51 49/63/49 45/54/45
f 57/72/57 47/56/47 52/62/52
f 58/73/58 39/48/39 40/49/40
f 40/49/40 37/46/37 59/74/59
f 58/73/58 40/49/40 59/74/59
f 58/73/58 59/74/59 60/75/60
f 41/50/41 61/76/61 62/77/62
f 41/50/41 62/77/62 46/55/46
f 41/50/41 42/51/42 61/76/61
f 62/77/62 63/78/63 64/79/64
f 62/77/62 64/79/64 65/80/65
f 62/77/62 61/76/61 63/78/63
f 63/78/63 61/76/61 66/81/66
f 67/82/67 68/83/68 66/81/66
f 68/83/68 67/82/67 58/73/58
f 63/78/63 66/81/66 69/84/69
f 64/79/64 63/78/63 69/84/69
f 61/76/61 67/82/67 66/81/66
f 68/83/68 70/85/70 71/86/71
f 38/47/38 39/48/39 67/82/67
f 39/48/39 58/73/58 67/82/67
f 60/75/60 70/85/70 68/83/68
f 58/73/58 60/75/60 68/83/68
f 53/66/53 72/87/72 54/67/54
f 73/88/73 74/89/74 65/80/65
f 75/90/75 73/91/73 76/92/76
f 76/93/76 73/88/73 65/80/65
f 73/91/73 72/94/72 74/95/74
f 74/89/74 72/87/72 53/66/53
f 74/89/74 46/55/46 65/80/65
f 74/89/74 53/66/53 46/55/46
f 54/70/54 77/96/77 56/71/56
f 72/94/72 77/96/77 54/70/54
f 72/94/72 73/91/73 77/96/77
f 77/96/77 73/91/73 75/90/75
f 78/97/78 75/90/75 76/92/76
f 76/93/76 65/80/65 79/98/79
f 65/80/65 64/79/64 79/98/79
f 80/99/80 75/90/75 78/97/78
f 81/100/81 68/83/68 71/86/71
f 64/79/64 69/84/69 82/101/82
f 66/81/66 81/100/81 69/84/69
f 69/84/69 81/100/81 83/102/83
f 64/79/64 82/101/82 79/98/79
f 84/103/84 71/86/71 70/85/70
f 61/76/61 42/51/42 67/82/67
f 65/80/65 46/55/46 62/77/62
f 42/51/42 38/47/38 67/82/67
f 68/83/68 81/100/81 66/81/66
f 81/100/81 71/86/71 83/102/83
f 85/104/85 76/93/76 79/98/79
f 85/105/85 86/106/86 78/97/78
f 82/101/82 69/84/69 83/102/83
f 85/104/85 79/98/79 87/107/87
f 87/107/87 79/98/79 82/101/82
f 88/108/88 89/109/89 90/110/90
f 87/107/87 91/111/91 92/112/92
f 91/111/91 87/107/87 82/101/82
f 87/113/87 92/114/92 85/105/85
f 92/114/92 88/108/88 85/105/85
f 85/105/85 88/108/88 86/106/86
f 92/114/92 89/109/89 88/108/88
f 93/115/93 94/116/94 95/117/95
f 94/118/94 96/119/96 97/120/97
f 93/115/93 96/121/96 94/116/94
f 98/122/98 99/123/99 100/124/100
f 71/86/71 101/125/101 83/102/83
f 101/125/101 71/86/71 84/103/84
f 101/125/101 84/103/84 99/123/99
f 101/125/101 99/123/99 98/122/98
f 100/124/100 99/123/99 102/126/102
f 99/123/99 84/103/84 102/126/102
f 103/127/103 98/122/98 100/124/100
f 83/102/83 104/128/104 82/101/82
f 104/128/104 83/102/83 101/125/101
f 104/128/104 98/122/98 105/129/105
f 104/128/104 101/125/101 98/122/98
f 106/130/106 105/129/105 98/122/98
f 107/131/107 108/132/108 89/109/89
f 91/111/91 109/133/109 107/134/107
f 109/135/109 110/136/110 111/137/111
f 104/128/104 109/133/109 91/111/91
f 104/128/104 105/129/105 109/133/109
f 109/133/109 105/129/105 110/138/110
f 109/135/109 111/137/111 107/131/107
f 105/129/105 112/139/112 110/138/110
f 105/129/105 106/130/106 112/139/112
f 103/127/103 106/130/106 98/122/98
f 113/140/113 114/141/114 95/117/95
f 114/141/114 106/142/106 95/117/95
f 106/142/106 103/143/103 95/117/95
f 112/144/112 114/145/114 110/136/110
f 106/142/106 114/141/114 112/146/112
f 97/120/97 111/137/111 94/118/94
f 113/147/113 94/118/94 111/137/111
f 111/137/111 114/145/114 113/147/113
f 108/132/108 111/137/111 97/120/97
f 110/136/110 114/145/114 111/137/111
f 111/137/111 108/132/108 107/131/107
f 89/109/89 92/114/92 107/131/107
f 104/128/104 91/111/91 82/101/82
f 92/112/92 91/111/91 107/134/107
f 113/140/113 95/117/95 94/116/94
f 115/148/115 6/8/6 29/38/29
f 23/31/23 19/25/19 18/24/18
f 18/24/18 10/13/10 25/34/25
f 33/42/33 26/35/26 116/149/116
f 21/29/21 47/56/47 22/30/22
f 78/97/78 76/92/76 85/105/85
f 117/150/117 118/151/118 57/72/57
f 55/69/55 119/152/119 120/153/120
f 55/69/55 121/154/121 119/152/119
f 121/154/121 122/155/122 119/152/119
f 119/152/119 123/156/123 124/157/124
f 122/158/122 125/159/125 123/160/123
f 122/155/122 123/156/123 119/152/119
f 124/157/124 117/150/117 119/152/119
f 119/152/119 117/150/117 120/153/120
f 125/159/125 126/161/126 127/162/127
f 128/163/128 126/161/126 129/164/129
f 117/150/117 130/165/130 118/151/118
f 130/165/130 131/166/131 118/151/118
f 130/165/130 132/167/132 131/166/131
f 133/168/133 132/167/132 130/165/130
f 131/166/131 132/167/132 134/169/134
f 24/33/24 118/151/118 131/166/131
f 135/170/135 131/166/131 134/169/134
f 131/166/131 136/171/136 24/33/24
f 131/166/131 135/170/135 136/171/136
f 117/150/117 124/157/124 130/165/130
f 124/157/124 123/156/123 133/168/133
f 123/160/123 137/172/137 133/173/133
f 138/174/138 133/173/133 137/172/137
f 138/174/138 137/172/137 127/162/127
f 139/175/139 140/176/140 141/177/141
f 142/178/142 139/179/139 143/180/143
f 141/177/141 144/181/144 134/182/134
f 138/183/138 143/184/143 141/177/141
f 141/177/141 143/184/143 139/175/139
f 142/178/142 143/180/143 145/185/145
f 145/185/145 143/180/143 138/174/138
f 138/183/138 141/177/141 146/186/146
f 133/187/133 146/186/146 132/188/132
f 141/177/141 134/182/134 146/186/146
f 133/173/133 138/174/138 146/189/146
f 146/186/146 134/182/134 132/188/132
f 147/190/147 148/191/148 139/179/139
f 149/192/149 150/193/150 147/190/147
f 147/190/147 139/179/139 142/178/142
f 127/162/127 128/163/128 145/185/145
f 128/163/128 142/178/142 145/185/145
f 126/161/126 128/163/128 127/162/127
f 151/194/151 149/192/149 142/178/142
f 142/178/142 128/163/128 151/194/151
f 149/192/149 147/190/147 142/178/142
f 149/192/149 152/195/152 153/196/153
f 125/159/125 122/158/122 126/161/126
f 154/197/154 126/161/126 122/158/122
f 138/174/138 127/162/127 145/185/145
f 123/160/123 125/159/125 137/172/137
f 125/159/125 127/162/127 137/172/137
f 133/168/133 130/165/130 124/157/124
f 139/179/139 148/191/148 140/198/140
f 155/199/155 156/200/156 157/201/157
f 158/202/158 159/203/159 160/204/160
f 136/171/136 135/170/135 161/205/161
f 136/171/136 161/205/161 162/206/162
f 135/207/135 163/208/163 161/209/161
f 144/181/144 163/208/163 135/207/135
f 161/209/161 163/208/163 164/210/164
f 144/181/144 158/202/158 163/208/163
f 158/202/158 160/204/160 163/208/163
f 155/199/155 163/208/163 160/204/160
f 163/208/163 155/199/155 164/210/164
f 160/204/160 165/211/165 156/200/156
f 155/199/155 160/204/160 156/200/156
f 161/205/161 164/212/164 162/206/162
f 166/213/166 162/206/162 164/212/164
f 155/199/155 166/214/166 164/210/164
f 156/200/156 167/215/167 168/216/168
f 168/216/168 167/215/167 169/217/169
f 170/218/170 167/215/167 156/200/156
f 148/219/148 159/203/159 140/176/140
f 140/176/140 159/203/159 141/177/141
f 144/181/144 141/177/141 158/202/158
f 158/202/158 141/177/141 159/203/159
f 171/220/171 172/221/172 173/222/173
f 171/220/171 173/222/173 174/223/174
f 152/195/152 171/220/171 153/196/153
f 148/191/148 175/224/175 165/225/165
f 174/223/174 173/222/173 176/226/176
f 173/222/173 177/227/177 176/226/176
f 176/226/176 178/228/178 170/229/170
f 176/226/176 170/229/170 175/224/175
f 176/226/176 175/224/175 150/193/150
f 176/226/176 150/193/150 174/223/174
f 175/224/175 170/229/170 165/225/165
f 174/223/174 150/193/150 153/196/153
f 177/227/177 178/228/178 176/226/176
f 153/196/153 171/220/171 174/223/174
f 179/230/179 180/231/180 181/232/181
f 182/233/182 181/232/181 180/231/180
f 177/227/177 173/222/173 183/234/183
f 181/232/181 184/235/184 183/236/183
f 177/237/177 183/236/183 184/235/184
f 156/200/156 165/211/165 170/218/170
f 169/217/169 167/215/167 178/238/178
f 185/239/185 169/217/169 184/235/184
f 184/235/184 181/232/181 185/239/185
f 185/239/185 181/232/181 186/240/186
f 181/232/181 182/233/182 187/241/187
f 188/242/188 186/240/186 181/232/181
f 181/232/181 183/236/183 179/230/179
f 167/215/167 170/218/170 178/238/178
f 183/234/183 189/243/189 179/244/179
f 177/237/177 169/217/169 178/238/178
f 177/237/177 184/235/184 169/217/169
f 190/245/190 191/246/191 192/247/192
f 189/243/189 173/222/173 172/221/172
f 193/248/193 194/249/194 190/245/190
f 190/245/190 194/249/194 195/250/195
f 196/251/196 197/252/197 194/253/194
f 197/252/197 196/251/196 189/243/189
f 189/254/189 196/255/196 180/231/180
f 198/256/198 196/251/196 194/253/194
f 193/257/193 198/256/198 194/253/194
f 189/243/189 172/221/172 197/252/197
f 193/258/193 182/233/182 180/231/180
f 198/259/198 193/258/193 180/231/180
f 192/247/192 193/248/193 190/245/190
f 193/248/193 192/247/192 182/260/182
f 196/255/196 198/259/198 180/231/180
f 190/245/190 195/250/195 199/261/199
f 173/222/173 189/243/189 183/234/183
f 190/245/190 200/262/200 191/246/191
f 148/219/148 165/211/165 159/203/159
f 189/243/189 180/263/180 179/244/179
f 165/211/165 160/204/160 159/203/159
f 201/264/201 202/265/202 203/266/203
f 80/99/80 202/265/202 201/264/201
f 202/265/202 204/267/204 205/268/205
f 204/269/204 206/270/206 205/271/205
f 202/265/202 207/272/207 121/154/121
f 205/268/205 207/272/207 202/265/202
f 208/273/208 209/274/209 206/270/206
f 210/275/210 211/276/211 212/277/212
f 211/276/211 213/278/213 214/279/214
f 80/99/80 215/280/215 202/265/202
f 80/99/80 216/281/216 217/282/217
f 80/99/80 217/282/217 215/280/215
f 217/282/217 218/283/218 215/280/215
f 215/280/215 219/284/219 204/267/204
f 215/280/215 204/267/204 202/265/202
f 206/270/206 204/269/204 219/285/219
f 219/285/219 220/286/220 206/270/206
f 219/284/219 215/280/215 218/283/218
f 211/276/211 208/273/208 221/287/221
f 221/287/221 220/286/220 219/285/219
f 222/288/222 221/287/221 223/289/223
f 216/281/216 90/110/90 217/282/217
f 217/282/217 224/290/224 223/291/223
f 217/282/217 223/291/223 218/283/218
f 90/110/90 224/290/224 217/282/217
f 224/290/224 222/292/222 223/291/223
f 223/289/223 221/287/221 219/285/219
f 223/291/223 219/284/219 218/283/218
f 206/270/206 220/286/220 208/273/208
f 208/273/208 211/276/211 225/293/225
f 211/276/211 214/279/214 225/293/225
f 208/273/208 220/286/220 221/287/221
f 224/290/224 226/294/226 222/292/222
f 222/288/222 226/295/226 227/296/227
f 221/287/221 227/296/227 211/276/211
f 212/277/212 211/276/211 227/296/227
f 227/296/227 228/297/228 212/277/212
f 229/298/229 212/277/212 228/297/228
f 230/299/230 229/298/229 228/297/228
f 108/132/108 97/120/97 231/300/231
f 108/132/108 231/300/231 90/110/90
f 232/301/232 233/302/233 234/303/234
f 228/297/228 227/296/227 234/303/234
f 226/295/226 234/303/234 227/296/227
f 234/303/234 233/302/233 228/297/228
f 230/299/230 228/297/228 233/302/233
f 235/304/235 232/301/232 234/303/234
f 235/305/235 234/306/234 226/294/226
f 236/307/236 233/302/233 232/301/232
f 233/302/233 236/307/236 230/299/230
f 224/290/224 90/110/90 226/294/226
f 231/300/231 235/305/235 226/294/226
f 226/294/226 90/110/90 231/300/231
f 231/300/231 232/308/232 235/305/235
f 231/300/231 237/309/237 232/308/232
f 232/308/232 237/309/237 236/310/236
f 237/309/237 238/311/238 236/310/236
f 239/312/239 237/309/237 240/313/240
f 241/314/241 239/315/239 240/316/240
f 239/315/239 241/314/241 242/317/242
f 237/309/237 97/120/97 240/313/240
f 238/318/238 239/315/239 242/317/242
f 238/319/238 242/320/242 236/307/236
f 242/320/242 230/299/230 236/307/236
f 237/309/237 239/312/239 238/311/238
f 231/300/231 97/120/97 237/309/237
f 203/266/203 202/265/202 121/154/121
f 222/288/222 227/296/227 221/287/221
f 209/274/209 243/321/243 244/322/244
f 209/274/209 244/322/244 154/197/154
f 206/270/206 209/274/209 154/197/154
f 207/323/207 154/197/154 245/324/245
f 244/322/244 243/321/243 246/325/246
f 154/197/154 244/322/244 126/161/126
f 247/326/247 248/327/248 249/328/249
f 248/327/248 250/329/250 249/328/249
f 251/330/251 246/325/246 252/331/252
f 251/330/251 253/332/253 254/333/254
f 253/332/253 255/334/255 254/333/254
f 243/321/243 252/331/252 246/325/246
f 256/335/256 246/325/246 251/330/251
f 256/335/256 251/330/251 257/336/257
f 250/329/250 255/334/255 253/332/253
f 250/329/250 253/332/253 258/337/258
f 248/327/248 255/334/255 250/329/250
f 246/325/246 256/335/256 129/164/129
f 171/220/171 255/334/255 172/221/172
f 254/333/254 255/334/255 152/195/152
f 255/334/255 171/220/171 152/195/152
f 152/195/152 257/336/257 254/333/254
f 197/252/197 259/338/259 195/339/195
f 259/338/259 197/252/197 248/327/248
f 248/327/248 197/252/197 172/221/172
f 248/327/248 172/221/172 255/334/255
f 248/327/248 247/326/247 259/338/259
f 190/245/190 199/261/199 260/340/260
f 199/261/199 259/341/259 247/342/247
f 261/343/261 199/261/199 247/342/247
f 249/344/249 261/343/261 247/342/247
f 262/345/262 199/261/199 261/343/261
f 263/346/263 261/343/261 249/344/249
f 264/347/264 263/346/263 249/344/249
f 264/347/264 265/348/265 263/346/263
f 249/328/249 250/329/250 266/349/266
f 250/329/250 258/337/258 266/349/266
f 267/350/267 266/349/266 258/337/258
f 268/351/268 267/350/267 269/352/269
f 269/352/269 267/350/267 258/337/258
f 249/328/249 266/349/266 264/353/264
f 267/350/267 265/354/265 264/353/264
f 264/353/264 266/349/266 267/350/267
f 270/355/270 271/356/271 272/357/272
f 272/357/272 213/278/213 273/358/273
f 214/279/214 213/278/213 272/357/272
f 225/293/225 214/279/214 272/357/272
f 225/293/225 272/357/272 274/359/274
f 271/356/271 274/359/274 272/357/272
f 225/293/225 274/359/274 209/274/209
f 274/359/274 252/331/252 243/321/243
f 271/356/271 253/332/253 251/330/251
f 270/355/270 269/352/269 271/356/271
f 252/331/252 274/359/274 271/356/271
f 271/356/271 269/352/269 253/332/253
f 269/352/269 270/355/270 268/351/268
f 251/330/251 252/331/252 271/356/271
f 272/357/272 273/358/273 270/355/270
f 270/355/270 275/360/275 268/351/268
f 270/355/270 273/358/273 275/360/275
f 273/358/273 213/278/213 276/361/276
f 273/358/273 277/362/277 275/360/275
f 277/362/277 273/358/273 276/361/276
f 210/275/210 276/361/276 213/278/213
f 229/298/229 210/275/210 212/277/212
f 210/275/210 278/363/278 276/361/276
f 209/274/209 274/359/274 243/321/243
f 246/325/246 129/164/129 244/322/244
f 244/322/244 129/164/129 126/161/126
f 257/336/257 251/330/251 254/333/254
f 151/194/151 256/335/256 257/336/257
f 257/336/257 152/195/152 151/194/151
f 269/352/269 258/337/258 253/332/253
f 279/364/279 166/213/166 280/365/280
f 279/364/279 28/37/28 162/206/162
f 24/33/24 136/171/136 162/206/162
f 118/151/118 24/33/24 22/30/22
f 52/62/52 55/69/55 120/153/120
f 203/266/203 121/154/121 55/69/55
f 245/366/245 122/155/122 121/154/121
f 256/335/256 128/163/128 129/164/129
f 135/207/135 134/182/134 144/181/144
f 151/194/151 152/195/152 149/192/149
f 175/224/175 148/191/148 147/190/147
f 256/335/256 151/194/151 128/163/128
f 162/206/162 166/213/166 279/364/279
f 150/193/150 175/224/175 147/190/147
f 190/245/190 260/340/260 200/262/200
f 153/196/153 150/193/150 149/192/149
f 203/266/203 55/69/55 56/71/56
f 201/264/201 203/266/203 56/71/56
f 205/271/205 154/197/154 207/323/207
f 205/271/205 206/270/206 154/197/154
f 225/293/225 209/274/209 208/273/208
f 213/278/213 211/276/211 210/275/210
f 80/99/80 201/264/201 75/90/75
f 121/154/121 207/272/207 245/366/245
f 245/324/245 154/197/154 122/158/122
f 195/339/195 194/253/194 197/252/197
f 199/261/199 195/250/195 259/341/259
f 115/148/115 281/367/281 4/9/4
f 282/368/282 281/369/281 283/370/283
f 4/9/4 281/367/281 282/371/282
f 282/372/282 284/373/284 3/3/3
f 115/148/115 285/374/285 281/367/281
f 281/369/281 286/375/286 283/370/283
f 285/376/285 286/375/286 281/369/281
f 287/377/287 286/375/286 285/376/285
f 286/375/286 288/378/288 289/379/289
f 287/380/287 285/374/285 290/381/290
f 282/372/282 291/382/291 284/373/284
f 283/370/283 291/383/291 282/368/282
f 283/370/283 289/379/289 292/384/292
f 291/383/291 283/370/283 293/385/293
f 27/36/27 284/373/284 294/386/294
f 294/386/294 284/373/284 295/387/295
f 291/382/291 293/388/293 295/387/295
f 295/387/295 284/373/284 291/382/291
f 296/389/296 297/390/297 293/385/293
f 296/389/296 293/385/293 283/370/283
f 283/370/283 292/384/292 296/389/296
f 295/387/295 293/388/293 297/391/297
f 116/149/116 294/386/294 298/392/298
f 27/36/27 294/386/294 116/149/116
f 299/393/299 116/149/116 298/392/298
f 298/392/298 294/386/294 300/394/300
f 294/386/294 301/395/301 300/394/300
f 295/387/295 302/396/302 301/395/301
f 295/387/295 297/391/297 302/396/302
f 295/387/295 301/395/301 294/386/294
f 33/42/33 116/149/116 299/393/299
f 300/394/300 303/397/303 304/398/304
f 303/397/303 300/394/300 305/399/305
f 299/393/299 306/400/306 37/46/37
f 306/400/306 299/393/299 304/398/304
f 304/398/304 299/393/299 300/394/300
f 37/46/37 306/400/306 307/401/307
f 307/401/307 306/400/306 308/402/308
f 306/400/306 304/398/304 308/402/308
f 304/398/304 303/397/303 309/403/309
f 298/392/298 300/394/300 299/393/299
f 289/379/289 283/370/283 286/375/286
f 301/395/301 305/399/305 300/394/300
f 310/404/310 297/390/297 296/389/296
f 297/390/297 310/404/310 311/405/311
f 312/406/312 313/407/313 292/384/292
f 292/384/292 313/407/313 314/408/314
f 292/384/292 310/404/310 296/389/296
f 292/384/292 314/408/314 310/404/310
f 314/408/314 313/407/313 315/409/315
f 315/409/315 316/410/316 314/408/314
f 310/404/310 317/411/317 318/412/318
f 318/412/318 319/413/319 320/414/320
f 319/413/319 318/412/318 317/411/317
f 321/415/321 320/414/320 319/413/319
f 322/416/322 318/412/318 323/417/323
f 320/414/320 323/417/323 318/412/318
f 322/416/322 310/404/310 318/412/318
f 311/405/311 310/404/310 322/416/322
f 324/418/324 305/399/305 301/395/301
f 301/395/301 302/396/302 324/418/324
f 302/419/302 322/416/322 324/420/324
f 311/405/311 322/416/322 302/419/302
f 322/416/322 323/417/323 324/420/324
f 324/418/324 325/421/325 305/399/305
f 324/420/324 323/417/323 325/422/325
f 326/423/326 319/413/319 317/411/317
f 319/413/319 326/423/326 327/424/327
f 327/424/327 328/425/328 319/413/319
f 328/425/328 329/426/329 319/413/319
f 329/427/329 328/428/328 330/429/330
f 327/424/327 326/423/326 331/430/331
f 327/431/327 331/432/331 332/433/332
f 327/431/327 332/433/332 328/428/328
f 329/427/329 330/429/330 333/434/333
f 314/408/314 316/410/316 326/423/326
f 333/435/333 334/436/334 329/426/329
f 314/408/314 326/423/326 317/411/317
f 335/437/335 323/417/323 336/438/336
f 335/437/335 325/422/325 323/417/323
f 335/437/335 336/438/336 337/439/337
f 305/399/305 337/440/337 303/397/303
f 303/397/303 337/440/337 338/441/338
f 338/442/338 337/439/337 336/438/336
f 336/438/336 339/443/339 338/442/338
f 340/444/340 336/438/336 323/417/323
f 339/443/339 336/438/336 341/445/341
f 305/399/305 325/421/325 337/440/337
f 337/440/337 325/421/325 335/446/335
f 342/447/342 341/445/341 340/444/340
f 340/444/340 320/414/320 342/447/342
f 343/448/343 342/447/342 344/449/344
f 342/447/342 320/414/320 321/415/321
f 342/447/342 321/415/321 344/449/344
f 341/445/341 342/447/342 345/450/345
f 346/451/346 347/452/347 348/453/348
f 345/450/345 342/447/342 343/448/343
f 321/415/321 329/426/329 344/449/344
f 344/449/344 329/426/329 334/436/334
f 334/436/334 349/454/349 344/449/344
f 344/449/344 349/454/349 347/452/347
f 350/455/350 351/456/351 349/457/349
f 349/457/349 334/458/334 352/459/352
f 353/460/353 350/455/350 349/457/349
f 351/456/351 347/461/347 349/457/349
f 351/456/351 350/455/350 347/461/347
f 350/455/350 348/462/348 347/461/347
f 317/411/317 310/404/310 314/408/314
f 321/415/321 319/413/319 329/426/329
f 336/438/336 340/444/340 341/445/341
f 323/417/323 320/414/320 340/444/340
f 347/452/347 343/448/343 344/449/344
f 334/458/334 333/434/333 352/459/352
f 348/453/348 350/463/350 346/451/346
f 308/402/308 304/398/304 309/403/309
f 307/401/307 308/402/308 354/464/354
f 355/465/355 308/402/308 309/403/309
f 356/466/356 355/465/355 357/467/357
f 356/466/356 308/402/308 355/465/355
f 354/464/354 59/74/59 307/401/307
f 59/74/59 354/464/354 358/468/358
f 358/468/358 356/466/356 359/469/359
f 356/466/356 358/468/358 354/464/354
f 354/464/354 308/402/308 356/466/356
f 356/466/356 360/470/360 359/469/359
f 360/470/360 356/466/356 357/467/357
f 102/126/102 360/470/360 361/471/361
f 357/467/357 361/471/361 360/470/360
f 357/467/357 355/465/355 362/472/362
f 357/467/357 362/472/362 363/473/363
f 361/471/361 363/473/363 364/474/364
f 365/475/365 366/476/366 364/474/364
f 366/476/366 361/471/361 364/474/364
f 363/473/363 367/477/367 364/474/364
f 357/467/357 363/473/363 361/471/361
f 303/397/303 368/478/368 309/403/309
f 309/403/309 368/478/368 355/465/355
f 362/472/362 368/478/368 369/479/369
f 362/472/362 369/479/369 363/473/363
f 355/465/355 368/478/368 362/472/362
f 370/480/370 369/479/369 368/478/368
f 363/473/363 371/481/371 367/477/367
f 372/482/372 373/483/373 374/484/374
f 367/485/367 372/482/372 375/486/375
f 374/484/374 375/486/375 372/482/372
f 367/485/367 375/486/375 364/487/364
f 371/488/371 372/482/372 367/485/367
f 373/483/373 376/489/376 377/490/377
f 374/484/374 373/483/373 377/490/377
f 378/491/378 379/492/379 375/486/375
f 379/492/379 378/491/378 380/493/380
f 380/493/380 381/494/381 379/492/379
f 378/491/378 382/495/382 380/493/380
f 378/491/378 383/496/383 382/495/382
f 93/115/93 380/493/380 382/495/382
f 379/492/379 365/497/365 375/486/375
f 375/486/375 374/484/374 378/491/378
f 102/126/102 366/476/366 100/124/100
f 100/124/100 366/476/366 381/498/381
f 384/499/384 100/124/100 381/498/381
f 100/124/100 384/499/384 385/500/385
f 379/501/379 381/498/381 365/475/365
f 365/475/365 381/498/381 366/476/366
f 102/126/102 361/471/361 366/476/366
f 102/126/102 359/469/359 360/470/360
f 364/487/364 375/486/375 365/497/365
f 374/484/374 377/490/377 378/491/378
f 381/494/381 380/493/380 384/502/384
f 384/502/384 380/493/380 385/503/385
f 339/443/339 386/504/386 338/442/338
f 341/445/341 345/450/345 387/505/387
f 386/504/386 339/443/339 388/506/388
f 368/478/368 388/507/388 370/480/370
f 368/478/368 386/508/386 388/507/388
f 388/506/388 339/443/339 387/505/387
f 388/506/388 387/505/387 370/509/370
f 370/509/370 387/505/387 389/510/389
f 370/480/370 390/511/390 369/479/369
f 390/512/390 370/509/370 389/510/389
f 389/510/389 391/513/391 390/512/390
f 371/488/371 390/512/390 391/513/391
f 389/510/389 387/505/387 392/514/392
f 392/514/392 387/505/387 345/450/345
f 345/450/345 393/515/393 392/514/392
f 394/516/394 395/517/395 396/518/396
f 392/514/392 393/515/393 396/518/396
f 393/515/393 394/516/394 396/518/396
f 392/514/392 396/518/396 397/519/397
f 389/510/389 392/514/392 397/519/397
f 397/519/397 398/520/398 389/510/389
f 399/521/399 398/520/398 397/519/397
f 399/521/399 397/519/397 400/522/400
f 391/513/391 389/510/389 398/520/398
f 391/513/391 372/482/372 371/488/371
f 372/482/372 391/513/391 398/520/398
f 372/482/372 398/520/398 401/523/401
f 398/520/398 399/521/399 401/523/401
f 402/524/402 395/517/395 346/451/346
f 395/525/395 402/526/402 403/527/403
f 395/525/395 403/527/403 404/528/404
f 405/529/405 397/519/397 404/530/404
f 400/522/400 405/529/405 406/531/406
f 403/527/403 407/532/407 404/528/404
f 408/533/408 406/531/406 405/529/405
f 399/521/399 400/522/400 409/534/409
f 409/534/409 400/522/400 406/531/406
f 376/489/376 399/521/399 409/534/409
f 373/483/373 401/523/401 399/521/399
f 376/489/376 373/483/373 399/521/399
f 339/443/339 341/445/341 387/505/387
f 400/522/400 397/519/397 405/529/405
f 404/530/404 397/519/397 396/518/396
f 394/516/394 346/451/346 395/517/395
f 396/518/396 395/517/395 404/530/404
f 286/375/286 287/377/287 288/378/288
f 297/391/297 311/535/311 302/396/302
f 289/379/289 312/406/312 292/384/292
f 386/508/386 303/397/303 338/441/338
f 393/515/393 343/448/343 394/516/394
f 347/452/347 394/516/394 343/448/343
f 394/516/394 347/452/347 346/451/346
f 350/455/350 353/460/353 346/536/346
f 303/397/303 386/508/386 368/478/368
f 371/481/371 363/473/363 369/479/369
f 401/523/401 373/483/373 372/482/372
f 393/515/393 345/450/345 343/448/343
f 369/479/369 390/511/390 371/481/371
f 346/536/346 353/460/353 402/526/402
f 410/537/410 287/380/287 290/381/290
f 411/538/411 412/539/412 413/540/413
f 413/540/413 414/541/414 411/538/411
f 411/538/411 414/541/414 410/542/410
f 415/543/415 287/380/287 410/537/410
f 416/544/416 288/378/288 287/377/287
f 411/545/411 410/537/410 290/381/290
f 412/546/412 411/545/411 290/381/290
f 415/543/415 416/547/416 287/380/287
f 157/201/157 417/548/417 413/540/413
f 417/548/417 414/541/414 413/540/413
f 413/540/413 412/539/412 280/549/280
f 418/550/418 419/551/419 416/552/416
f 416/552/416 419/551/419 420/553/420
f 420/553/420 419/551/419 421/554/421
f 420/553/420 421/554/421 422/555/422
f 421/554/421 423/556/423 422/555/422
f 419/551/419 424/557/424 421/554/421
f 416/544/416 420/558/420 288/378/288
f 420/558/420 422/559/422 312/406/312
f 421/554/421 425/560/425 423/556/423
f 414/541/414 418/550/418 415/561/415
f 415/561/415 418/550/418 416/552/416
f 425/560/425 426/562/426 423/556/423
f 424/557/424 427/563/427 428/564/428
f 429/565/429 428/564/428 427/563/427
f 428/564/428 429/565/429 430/566/430
f 431/567/431 429/565/429 427/563/427
f 426/562/426 425/560/425 315/568/315
f 430/566/430 432/569/432 428/564/428
f 432/569/432 425/560/425 428/564/428
f 429/565/429 332/433/332 430/566/430
f 421/554/421 428/564/428 425/560/425
f 430/566/430 332/433/332 432/569/432
f 433/570/433 434/571/434 435/572/435
f 436/573/436 435/572/435 437/574/437
f 434/571/434 417/548/417 168/216/168
f 417/548/417 157/201/157 168/216/168
f 438/575/438 436/573/436 437/574/437
f 434/571/434 439/576/439 435/572/435
f 437/574/437 435/572/435 439/576/439
f 419/551/419 418/550/418 433/570/433
f 435/572/435 440/577/440 433/570/433
f 436/573/436 427/563/427 424/557/424
f 436/573/436 424/557/424 440/577/440
f 419/551/419 433/570/433 440/577/440
f 419/551/419 440/577/440 424/557/424
f 440/577/440 435/572/435 436/573/436
f 434/571/434 433/570/433 414/541/414
f 433/570/433 418/550/418 414/541/414
f 441/578/441 442/579/442 443/580/443
f 444/581/444 445/582/445 441/578/441
f 438/575/438 444/581/444 436/573/436
f 444/581/444 441/578/441 436/573/436
f 443/580/443 427/563/427 441/578/441
f 446/583/446 445/582/445 444/581/444
f 441/578/441 427/563/427 436/573/436
f 186/240/186 188/242/188 446/583/446
f 446/583/446 438/575/438 186/240/186
f 447/584/447 446/583/446 188/242/188
f 447/584/447 445/582/445 446/583/446
f 445/582/445 447/584/447 448/585/448
f 445/582/445 448/585/448 449/586/449
f 449/586/449 442/579/442 445/582/445
f 442/579/442 449/586/449 450/587/450
f 424/557/424 428/564/428 421/554/421
f 410/542/410 414/541/414 415/561/415
f 434/571/434 414/541/414 417/548/417
f 445/582/445 442/579/442 441/578/441
f 427/563/427 443/580/443 431/567/431
f 446/583/446 444/581/444 438/575/438
f 442/579/442 431/567/431 443/580/443
f 330/429/330 451/588/451 452/589/452
f 451/588/451 330/429/330 332/433/332
f 452/589/452 352/459/352 330/429/330
f 450/587/450 453/590/453 452/589/452
f 454/591/454 455/592/455 456/593/456
f 456/593/456 455/592/455 457/594/457
f 458/595/458 454/591/454 456/593/456
f 457/596/457 459/597/459 458/598/458
f 458/598/458 456/599/456 457/596/457
f 187/241/187 454/600/454 458/598/458
f 187/241/187 458/598/458 447/584/447
f 458/598/458 459/597/459 447/584/447
f 457/594/457 455/592/455 460/601/460
f 461/602/461 449/586/449 462/603/462
f 463/604/463 462/603/462 449/586/449
f 462/603/462 463/604/463 464/605/464
f 463/604/463 449/586/449 465/606/465
f 465/606/465 464/605/464 463/604/463
f 450/587/450 449/586/449 461/602/461
f 460/601/460 459/607/459 457/594/457
f 460/601/460 465/608/465 459/607/459
f 465/608/465 460/601/460 464/609/464
f 450/587/450 461/602/461 466/610/466
f 466/610/466 453/590/453 450/587/450
f 467/611/467 453/590/453 468/612/468
f 467/611/467 353/460/353 453/590/453
f 453/590/453 353/460/353 352/459/352
f 452/589/452 453/590/453 352/459/352
f 453/590/453 466/610/466 468/612/468
f 466/610/466 469/613/469 470/614/470
f 468/612/468 466/610/466 470/614/470
f 470/614/470 471/615/471 468/612/468
f 467/611/467 468/612/468 471/615/471
f 472/616/472 473/617/473 464/609/464
f 460/601/460 474/618/474 472/616/472
f 475/619/475 472/616/472 474/618/474
f 464/609/464 460/601/460 472/616/472
f 474/618/474 476/620/476 475/619/475
f 475/619/475 476/620/476 477/621/477
f 466/610/466 462/603/462 469/613/469
f 469/613/469 462/603/462 473/622/473
f 478/623/478 479/624/479 480/625/480
f 469/626/469 481/627/481 478/623/478
f 478/628/478 480/629/480 470/614/470
f 475/619/475 481/627/481 472/616/472
f 473/617/473 481/627/481 469/626/469
f 472/616/472 481/627/481 473/617/473
f 479/624/479 475/619/475 477/621/477
f 479/624/479 481/627/481 475/619/475
f 478/623/478 481/627/481 479/624/479
f 192/247/192 482/630/482 483/631/483
f 192/247/192 483/631/483 484/632/484
f 484/632/484 454/591/454 192/247/192
f 485/633/485 455/592/455 484/632/484
f 486/634/486 484/632/484 483/631/483
f 486/634/486 483/631/483 487/635/487
f 488/636/488 474/618/474 486/634/486
f 482/630/482 489/637/489 483/631/483
f 486/634/486 474/618/474 485/633/485
f 484/632/484 486/634/486 485/633/485
f 489/637/489 487/635/487 483/631/483
f 485/633/485 474/618/474 460/601/460
f 490/638/490 486/634/486 491/639/491
f 474/618/474 488/636/488 492/640/492
f 488/636/488 490/638/490 492/640/492
f 493/641/493 492/640/492 490/638/490
f 476/620/476 474/618/474 492/640/492
f 192/247/192 494/642/494 482/630/482
f 494/642/494 495/643/495 482/630/482
f 455/592/455 485/633/485 460/601/460
f 464/605/464 473/622/473 462/603/462
f 465/606/465 448/585/448 459/597/459
f 462/603/462 466/610/466 461/602/461
f 470/614/470 469/613/469 478/628/478
f 484/632/484 455/592/455 454/591/454
f 490/638/490 488/636/488 486/634/486
f 491/639/491 486/634/486 487/635/487
f 476/620/476 496/644/496 477/621/477
f 480/625/480 479/624/479 497/645/497
f 498/646/498 480/625/480 497/645/497
f 499/647/499 497/645/497 479/624/479
f 500/648/500 501/649/501 502/650/502
f 502/650/502 501/649/501 503/651/503
f 501/649/501 504/652/504 505/653/505
f 467/611/467 471/615/471 504/652/504
f 501/649/501 505/653/505 506/654/506
f 506/654/506 503/651/503 501/649/501
f 505/653/505 498/655/498 506/654/506
f 505/653/505 480/629/480 498/655/498
f 504/652/504 471/615/471 505/653/505
f 506/656/506 498/646/498 497/645/497
f 506/656/506 497/645/497 503/657/503
f 500/648/500 502/650/502 507/658/507
f 508/659/508 491/639/491 489/637/489
f 509/660/509 510/661/510 511/662/511
f 508/659/508 512/663/512 493/641/493
f 492/640/492 493/641/493 513/664/513
f 491/639/491 508/659/508 493/641/493
f 513/664/513 493/641/493 512/663/512
f 513/664/513 512/663/512 514/665/514
f 492/640/492 515/666/515 496/644/496
f 492/640/492 513/664/513 509/660/509
f 509/660/509 515/666/515 492/640/492
f 491/639/491 493/641/493 490/638/490
f 515/666/515 516/667/516 496/644/496
f 511/662/511 515/666/515 509/660/509
f 511/662/511 517/668/517 516/667/516
f 516/667/516 518/669/518 519/670/519
f 517/668/517 520/671/520 516/667/516
f 496/644/496 519/670/519 521/672/521
f 511/662/511 516/667/516 515/666/515
f 519/670/519 496/644/496 516/667/516
f 477/621/477 521/672/521 499/647/499
f 522/673/522 521/672/521 519/670/519
f 519/670/519 518/669/518 522/673/522
f 522/673/522 499/647/499 521/672/521
f 522/673/522 523/674/523 499/647/499
f 518/669/518 523/674/523 522/673/522
f 523/674/523 518/669/518 524/675/524
f 525/676/525 523/674/523 524/675/524
f 526/677/526 523/674/523 525/676/525
f 527/678/527 528/679/528 520/671/520
f 520/671/520 528/679/528 524/675/524
f 518/669/518 520/671/520 524/675/524
f 526/677/526 525/676/525 529/680/529
f 516/667/516 520/671/520 518/669/518
f 507/681/507 526/677/526 530/682/530
f 503/657/503 526/677/526 502/683/502
f 526/677/526 507/681/507 502/683/502
f 530/682/530 526/677/526 529/680/529
f 531/684/531 494/642/494 200/262/200
f 531/684/531 200/262/200 260/340/260
f 489/637/489 495/643/495 508/659/508
f 532/685/532 514/665/514 533/686/533
f 262/345/262 533/686/533 534/687/534
f 534/687/534 533/686/533 512/663/512
f 512/663/512 531/684/531 534/687/534
f 260/340/260 262/345/262 534/687/534
f 512/663/512 533/686/533 514/665/514
f 535/688/535 533/686/533 262/345/262
f 536/689/536 510/661/510 532/685/532
f 536/689/536 532/685/532 533/686/533
f 508/659/508 495/643/495 531/684/531
f 532/685/532 513/664/513 514/665/514
f 512/663/512 508/659/508 531/684/531
f 532/685/532 509/660/509 513/664/513
f 536/689/536 537/690/537 538/691/538
f 537/690/537 536/689/536 535/688/535
f 538/691/538 510/661/510 536/689/536
f 539/692/539 510/661/510 538/691/538
f 263/346/263 537/690/537 535/688/535
f 261/343/261 263/346/263 535/688/535
f 540/693/540 541/694/541 542/695/542
f 537/690/537 541/696/541 538/691/538
f 541/696/541 540/697/540 538/691/538
f 538/691/538 540/697/540 539/692/539
f 517/668/517 543/698/543 539/692/539
f 539/692/539 543/698/543 510/661/510
f 517/668/517 539/692/539 544/699/544
f 509/660/509 532/685/532 510/661/510
f 545/700/545 527/678/527 520/671/520
f 520/671/520 517/668/517 545/700/545
f 517/668/517 511/662/511 543/698/543
f 510/661/510 543/698/543 511/662/511
f 499/647/499 523/674/523 497/645/497
f 497/645/497 526/677/526 503/657/503
f 477/621/477 496/644/496 521/672/521
f 499/647/499 479/624/479 477/621/477
f 497/645/497 523/674/523 526/677/526
f 529/680/529 525/676/525 524/675/524
f 531/684/531 495/643/495 494/642/494
f 531/684/531 260/340/260 534/687/534
f 533/686/533 535/688/535 536/689/536
f 546/701/546 530/682/530 547/702/547
f 546/701/546 548/703/548 530/682/530
f 548/703/548 507/681/507 530/682/530
f 546/701/546 547/702/547 549/704/549
f 547/702/547 530/682/530 529/680/529
f 529/680/529 528/679/528 550/705/550
f 550/705/550 547/702/547 529/680/529
f 551/706/551 552/707/552 553/708/553
f 553/708/553 554/709/554 551/706/551
f 555/710/555 551/706/551 277/362/277
f 277/362/277 551/706/551 554/709/554
f 542/695/542 553/708/553 552/707/552
f 556/711/556 383/496/383 557/712/557
f 558/713/558 383/496/383 556/711/556
f 557/714/557 559/715/559 556/716/556
f 560/717/560 559/715/559 561/718/561
f 562/719/562 561/718/561 559/715/559
f 560/717/560 563/720/563 559/715/559
f 556/716/556 559/715/559 563/720/563
f 562/721/562 564/722/564 561/723/561
f 561/723/561 549/704/549 560/724/560
f 546/701/546 549/704/549 565/725/565
f 565/725/565 549/704/549 561/723/561
f 565/725/565 561/723/561 564/722/564
f 563/720/563 560/717/560 566/726/566
f 556/716/556 563/720/563 567/727/567
f 567/727/567 563/720/563 566/726/566
f 568/728/568 556/716/556 567/727/567
f 567/727/567 569/729/569 570/730/570
f 568/728/568 567/727/567 570/730/570
f 566/726/566 569/729/569 567/727/567
f 571/731/571 572/732/572 573/733/573
f 572/732/572 571/731/571 574/734/574
f 573/733/573 575/735/575 571/731/571
f 571/731/571 575/735/575 576/736/576
f 566/726/566 575/735/575 573/733/573
f 576/737/576 528/679/528 571/738/571
f 576/736/576 575/735/575 577/739/577
f 528/679/528 574/740/574 571/738/571
f 566/726/566 550/741/550 575/735/575
f 550/741/550 577/739/577 575/735/575
f 560/717/560 550/741/550 566/726/566
f 549/704/549 550/705/550 560/724/560
f 528/679/528 576/737/576 550/705/550
f 577/742/577 550/705/550 576/737/576
f 574/740/574 528/679/528 527/743/527
f 578/744/578 552/707/552 579/745/579
f 579/745/579 580/746/580 578/744/578
f 580/746/580 581/747/581 545/748/545
f 580/746/580 544/749/544 578/744/578
f 544/749/544 580/746/580 545/748/545
f 578/750/578 539/692/539 582/751/582
f 552/707/552 578/744/578 582/752/582
f 581/747/581 527/753/527 545/748/545
f 527/753/527 581/747/581 572/732/572
f 527/753/527 572/732/572 574/734/574
f 552/707/552 582/752/582 542/695/542
f 579/745/579 583/754/583 580/746/580
f 551/706/551 583/754/583 579/745/579
f 584/755/584 585/756/585 555/710/555
f 580/746/580 583/754/583 581/747/581
f 583/754/583 585/756/585 572/732/572
f 583/754/583 572/732/572 581/747/581
f 586/757/586 585/756/585 584/755/584
f 586/757/586 573/733/573 585/756/585
f 573/733/573 572/732/572 585/756/585
f 583/754/583 555/710/555 585/756/585
f 555/710/555 583/754/583 551/706/551
f 587/758/587 584/755/584 229/298/229
f 229/298/229 584/755/584 555/710/555
f 584/755/584 588/759/588 570/730/570
f 570/730/570 586/757/586 584/755/584
f 588/759/588 584/755/584 587/758/587
f 586/757/586 569/729/569 573/733/573
f 552/707/552 551/706/551 579/745/579
f 588/759/588 568/728/568 570/730/570
f 589/760/589 590/761/590 591/762/591
f 590/761/590 241/314/241 592/763/592
f 587/758/587 589/764/589 588/759/588
f 590/765/590 587/758/587 593/766/593
f 587/758/587 590/765/590 589/764/589
f 241/314/241 590/761/590 593/767/593
f 589/764/589 568/728/568 588/759/588
f 590/761/590 592/763/592 591/762/591
f 591/762/591 383/496/383 558/713/558
f 383/496/383 591/762/591 382/495/382
f 568/728/568 589/764/589 558/768/558
f 277/362/277 278/363/278 555/710/555
f 568/728/568 558/768/558 556/716/556
f 569/729/569 566/726/566 573/733/573
f 549/704/549 547/702/547 550/705/550
f 570/730/570 569/729/569 586/757/586
f 558/713/558 589/760/589 591/762/591
f 429/565/429 431/567/431 452/589/452
f 450/587/450 452/589/452 431/567/431
f 188/242/188 187/241/187 447/584/447
f 450/587/450 431/567/431 442/579/442
f 447/584/447 459/597/459 448/585/448
f 449/586/449 448/585/448 465/606/465
f 470/614/470 505/653/505 471/615/471
f 491/639/491 487/635/487 489/637/489
f 482/630/482 495/643/495 489/637/489
f 452/589/452 451/588/451 429/565/429
f 332/433/332 429/565/429 451/588/451
f 557/712/557 383/496/383 377/490/377
f 377/490/377 564/769/564 562/770/562
f 507/658/507 408/771/408 500/648/500
f 594/772/594 565/773/565 564/769/564
f 505/653/505 470/614/470 480/629/480
f 504/652/504 501/649/501 407/532/407
f 492/640/492 496/644/496 476/620/476
f 539/692/539 540/697/540 582/751/582
f 544/699/544 545/700/545 517/668/517
f 524/675/524 528/679/528 529/680/529
f 595/774/595 548/703/548 546/701/546
f 507/681/507 548/703/548 408/775/408
f 595/776/595 546/777/546 594/772/594
f 553/708/553 542/695/542 541/694/541
f 377/490/377 559/778/559 557/712/557
f 559/778/559 377/490/377 562/770/562
f 565/725/565 594/779/594 546/701/546
f 578/750/578 544/699/544 539/692/539
f 591/762/591 592/763/592 382/495/382
f 540/693/540 542/695/542 582/752/582
f 17/23/17 162/206/162 28/37/28
f 22/30/22 24/33/24 20/28/20
f 16/22/16 24/33/24 17/23/17
f 52/62/52 120/153/120 57/72/57
f 299/393/299 37/46/37 33/42/33
f 37/46/37 307/401/307 59/74/59
f 201/264/201 77/96/77 75/90/75
f 216/281/216 80/99/80 86/106/86
f 89/109/89 108/132/108 90/110/90
f 86/106/86 88/108/88 216/281/216
f 241/314/241 93/115/93 592/763/592
f 96/119/96 240/313/240 97/120/97
f 93/115/93 241/314/241 240/316/240
f 96/121/96 93/115/93 240/316/240
f 385/503/385 95/117/95 103/143/103
f 7/10/7 3/3/3 27/36/27
f 26/35/26 27/36/27 116/149/116
f 70/85/70 359/469/359 84/103/84
f 86/106/86 80/99/80 78/97/78
f 103/127/103 100/124/100 385/500/385
f 28/37/28 279/364/279 29/38/29
f 24/33/24 162/206/162 17/23/17
f 57/72/57 120/153/120 117/150/117
f 181/232/181 187/241/187 188/242/188
f 77/96/77 201/264/201 56/71/56
f 88/108/88 90/110/90 216/281/216
f 242/317/242 241/314/241 593/767/593
f 262/345/262 260/340/260 199/261/199
f 553/708/553 267/350/267 268/351/268
f 554/709/554 275/360/275 277/362/277
f 210/275/210 555/710/555 278/363/278
f 210/275/210 229/298/229 555/710/555
f 276/361/276 278/363/278 277/362/277
f 267/350/267 541/694/541 265/354/265
f 268/351/268 275/360/275 553/708/553
f 57/72/57 118/151/118 22/30/22
f 166/214/166 155/199/155 413/540/413
f 169/217/169 439/576/439 168/216/168
f 439/576/439 169/217/169 185/239/185
f 157/201/157 413/540/413 155/199/155
f 413/540/413 280/549/280 166/214/166
f 156/200/156 168/216/168 157/201/157
f 200/262/200 494/642/494 191/246/191
f 242/320/242 587/758/587 230/299/230
f 230/299/230 587/758/587 229/298/229
f 4/9/4 6/8/6 115/148/115
f 284/373/284 27/36/27 3/3/3
f 282/372/282 3/3/3 4/4/4
f 313/407/313 426/780/426 315/409/315
f 95/117/95 380/493/380 93/115/93
f 93/115/93 382/495/382 592/763/592
f 378/491/378 377/490/377 383/496/383
f 402/526/402 353/460/353 403/527/403
f 405/781/405 500/648/500 408/771/408
f 405/781/405 404/528/404 500/648/500
f 500/648/500 404/528/404 407/532/407
f 595/776/595 409/534/409 548/782/548
f 594/772/594 376/489/376 409/534/409
f 406/531/406 548/782/548 409/534/409
f 376/489/376 564/769/564 377/490/377
f 403/527/403 504/652/504 407/532/407
f 115/148/115 290/381/290 285/374/285
f 290/381/290 115/148/115 29/38/29
f 288/378/288 312/406/312 289/379/289
f 422/559/422 313/407/313 312/406/312
f 316/410/316 315/409/315 596/783/596
f 316/410/316 331/430/331 326/423/326
f 333/434/333 330/429/330 352/459/352
f 328/428/328 332/433/332 330/429/330
f 353/460/353 349/457/349 352/459/352
f 359/469/359 70/85/70 60/75/60
f 60/75/60 59/74/59 358/468/358
f 60/75/60 358/468/358 359/469/359
f 95/117/95 385/503/385 380/493/380
f 84/103/84 359/469/359 102/126/102
f 280/365/280 412/546/412 279/364/279
f 29/38/29 412/546/412 290/381/290
f 288/378/288 420/558/420 312/406/312
f 313/407/313 422/559/422 423/784/423
f 596/785/596 432/569/432 316/786/316
f 425/560/425 596/785/596 315/568/315
f 596/785/596 425/560/425 432/569/432
f 432/569/432 332/433/332 331/432/331
f 432/569/432 331/432/331 316/786/316
f 168/216/168 439/576/439 434/571/434
f 438/575/438 437/574/437 186/240/186
f 279/364/279 412/546/412 29/38/29
f 423/784/423 426/780/426 313/407/313
f 185/239/185 186/240/186 437/574/437
f 454/591/454 182/260/182 192/247/192
f 494/642/494 192/247/192 191/246/191
f 454/600/454 187/241/187 182/233/182
f 403/527/403 353/460/353 467/611/467
f 500/648/500 407/532/407 501/649/501
f 408/533/408 548/782/548 406/531/406
f 595/776/595 594/772/594 409/534/409
f 376/489/376 594/772/594 564/769/564
f 535/688/535 262/345/262 261/343/261
f 437/574/437 439/576/439 185/239/185
f 553/708/553 275/360/275 554/709/554
f 403/527/403 467/611/467 504/652/504
f 541/694/541 537/787/537 265/354/265
f 265/348/265 537/690/537 263/346/263
f 553/708/553 541/694/541 267/350/267
f 587/758/587 242/320/242 593/766/593
