# www.textures.com
v 8.273151 2.489936 2.581837
v 7.481460 2.295539 2.151440
v 7.978823 2.976856 2.726716
v 6.766187 2.214155 1.948982
v 7.666331 1.870787 1.859235
v 8.112985 1.652972 2.335059
v 6.605607 1.325527 1.273204
v 7.458058 0.888118 1.633143
v 7.056163 0.431238 1.124045
v 7.726805 1.092655 2.220810
v 7.559676 0.431108 2.037322
v 7.154315 2.944223 2.810004
v 8.706549 2.830919 3.192370
v 8.484133 1.084986 2.686220
v 7.300551 0.300373 2.587168
v 8.955559 1.001532 3.643990
v 8.618818 0.502076 3.111690
v 8.970758 0.479188 3.286176
v 8.725031 0.364172 3.639572
v 8.164482 0.235658 3.140073
v 7.484084 -0.379720 2.002202
v 7.154027 -0.499274 1.266366
v 8.100945 0.742165 3.511928
v 8.058708 -0.328928 3.016215
v 7.701630 -1.436537 3.053774
v 7.732539 -0.861273 2.997447
v 7.428684 -0.427645 3.661474
v 7.991628 3.528713 3.634450
v 8.673929 3.023754 3.985422
v 8.839487 2.113572 3.847582
v 8.582396 3.271473 4.239720
v 7.907989 3.260906 4.495234
v 8.212609 2.117990 4.730836
v 7.306905 3.725687 3.299174
v 7.978259 3.732595 3.955849
v 6.932135 4.057449 3.438849
v 6.250182 3.387714 4.249288
v 7.116864 2.878435 4.727795
v 7.187414 1.773665 4.731020
v 8.560458 1.272052 3.837600
v 8.440583 1.512581 4.207754
v 9.067594 0.482382 3.973729
v 9.288464 0.533656 3.649305
v 7.723292 0.790775 4.047686
v 6.462656 0.221457 4.480021
v 5.781583 1.268048 4.937995
v 6.062939 2.400613 4.784948
v 6.111650 -0.033803 0.769078
v 5.067280 -0.905371 0.734742
v 4.898813 0.216954 0.862581
v 6.591609 -1.712623 0.888936
v 7.088459 -1.212440 1.382540
v 7.456726 -1.785381 1.965676
v 6.117023 -1.404866 4.055514
v 4.578783 4.194219 2.441075
v 5.519520 2.645206 1.899906
v 3.662087 3.539360 2.093489
v 4.479841 2.508386 1.540626
v 6.170879 3.218619 2.526979
v 5.478762 1.334180 1.371224
v 4.318872 0.916250 1.240241
v 3.930326 1.766769 1.689678
v 2.802111 2.642313 1.664513
v 2.276644 3.738045 1.963137
v 2.961415 1.652071 1.417685
v 1.550777 1.975779 1.149236
v 5.930983 4.250442 2.729758
v 3.609796 4.481359 2.294579
v 3.105772 4.593109 2.497869
v 3.311825 4.443657 2.894947
v 5.922811 4.220417 3.314941
v 4.753699 4.266518 3.137910
v 5.331100 3.803586 3.656479
v 3.920325 3.950116 3.169710
v 2.469208 4.057444 3.340509
v 2.525213 3.383668 4.270753
v 4.349006 3.167946 4.291247
v 4.539312 2.783778 4.834981
v 4.758645 1.440147 5.046993
v 3.710371 -0.595851 0.673630
v 2.835946 0.783415 0.881103
v 3.968382 0.372352 5.111570
v 3.133360 2.671080 4.910116
v 3.223257 1.504281 5.151320
v 5.606057 -1.792083 0.403741
v 4.696900 -2.025172 0.223703
v 4.236205 -1.365064 0.485964
v 6.685770 -2.514943 1.257165
v 6.278344 -2.429362 0.695854
v 5.554438 -2.456515 0.271870
v 4.804447 -3.080838 0.232145
v 5.463647 -3.692832 0.178053
v 5.732502 -3.709141 0.704360
v 3.992421 -2.463108 0.636940
v 4.755239 -3.748378 0.777019
v 3.695684 -3.198116 0.949190
v 7.615661 -2.011572 2.997567
v 7.042881 -1.268853 3.535943
v 7.464904 -2.246636 2.740370
v 6.500683 -2.369504 3.513853
v 5.204150 -2.144725 3.995157
v 5.922477 -3.454959 3.446907
v 4.987757 -0.651156 4.793453
v 3.799638 -1.457594 4.375900
v 4.087312 -2.695145 3.387415
v 6.996275 -3.060930 1.754552
v 6.199633 -3.730197 1.071549
v 7.267057 -2.964173 2.882045
v 7.649861 -2.799929 2.119256
v 6.662840 -4.113254 2.783543
v 7.185496 -4.105625 2.363993
v 6.780723 -4.174314 1.800760
v 6.124351 -4.581822 1.497618
v 7.270136 -3.811041 1.556942
v 3.705132 -3.171864 2.272515
v 4.763640 -3.676596 2.747761
v 4.211741 -3.867455 1.639920
v 5.582482 -4.671540 2.296449
v 3.045458 -2.910938 1.486222
v 5.314723 -4.362422 1.323969
v 6.510481 -4.811425 2.160973
v 2.888512 -2.289699 0.711006
v 1.718561 -1.706833 0.647968
v 1.941062 -0.168074 0.737185
v 2.117038 -2.207949 1.063585
v 2.157363 -2.453831 1.666791
v 0.896969 -1.593468 1.010216
v 2.572091 -2.381145 2.559513
v 0.877817 0.863542 0.742935
v 0.851994 -0.586857 0.590101
v 0.553963 0.358851 0.557086
v 2.726970 -1.906200 3.673333
v 1.026247 -1.870300 1.718351
v 0.784800 3.034687 1.549177
v 0.259920 1.931038 0.776530
v 0.450842 3.932158 2.146420
v 1.494608 4.182391 2.175207
v 0.241085 2.778740 0.896781
v 2.016506 4.560859 2.487518
v 2.808211 4.393365 2.121684
v 1.274218 4.111422 3.180167
v 2.060734 2.239109 5.041702
v 0.016449 -1.325762 1.172241
v 0.411038 -1.544948 2.094837
v 1.521056 -1.935432 2.746278
v 0.956613 -1.622998 3.468058
v -0.222687 -1.449390 3.314645
v 2.022580 -1.058457 4.274388
v 2.562737 -0.257986 4.826695
v 0.444092 -1.001125 4.103693
v 1.225526 0.194429 4.799326
v -0.195652 -1.513315 2.366948
v -1.766683 4.146189 1.494069
v -2.421340 3.943785 2.375185
v -1.443941 4.066718 2.866335
v -0.458024 3.943896 1.279361
v -1.191219 4.218575 2.531629
v -2.884511 3.358449 1.184326
v -3.470046 3.472405 2.306666
v -4.681253 2.407222 1.823156
v -3.386960 2.381230 0.712263
v -2.297022 2.294635 0.183498
v -1.764562 3.027999 0.312084
v -1.459889 -0.099604 0.639759
v -2.603336 -0.066097 0.557874
v -2.060022 0.595047 0.354770
v -3.624557 1.491681 0.499699
v -3.835008 0.390275 0.568682
v -4.860373 1.468946 1.093809
v -0.919698 2.454813 0.271566
v -0.599745 1.189500 0.373347
v -0.103774 -0.926638 0.723452
v -0.664935 -0.070144 0.589291
v -1.480536 1.322035 0.134354
v -4.271214 2.948527 2.470109
v -5.511463 1.801669 2.776555
v -4.792524 2.450361 2.944784
v -5.688545 1.414537 1.937943
v 1.141226 2.541997 4.736473
v 0.509327 3.064864 4.362634
v -0.213939 1.834147 4.794962
v 0.518619 0.955746 4.854951
v -0.239592 -0.452275 4.550759
v -1.379697 0.803163 5.066398
v -2.705881 3.496579 3.699660
v -1.564691 3.709266 3.597981
v -1.096184 2.987923 4.353532
v -2.881547 2.804581 4.455036
v 1.367369 3.485974 4.083976
v 0.810119 4.050681 2.670301
v -0.273434 3.747728 3.226170
v 0.305229 3.481256 3.812047
v -0.532472 4.084269 2.581815
v -4.140963 2.465550 4.058270
v -4.993129 1.994714 3.639527
v -2.679229 1.734504 5.010815
v -4.370103 1.119848 4.513992
v -2.897679 0.389628 4.905859
v -0.760715 -1.236336 1.369107
v -1.791514 -1.207282 1.358889
v -1.182583 -1.765117 2.612414
v -2.449535 -2.084346 2.424450
v -2.352357 -1.754377 3.750085
v -1.057661 -1.480381 3.795425
v -2.092428 -0.642270 4.528952
v -3.554663 -0.869412 0.815510
v -3.161747 -1.644204 1.362800
v -5.389401 0.368035 1.029969
v -4.174702 -0.293596 4.395036
v -4.155368 -1.640288 3.592860
v -5.327033 -0.692607 0.794373
v -6.105788 1.098114 2.795439
v -6.615093 0.345321 2.217527
v -6.015052 0.761394 3.272075
v -6.806826 -0.053219 2.410244
v -5.854358 -0.117323 3.644387
v -4.311769 -2.341945 2.369525
v -4.378641 -2.121844 1.677486
v -4.505413 -1.659241 1.198781
v -5.367225 -1.162998 3.449849
v -5.520938 -1.968368 2.940738
v -6.700553 -0.357631 1.432089
v -6.924627 -2.845968 1.134993
v -6.830824 -2.359490 0.801980
v -6.161241 -2.041214 0.978876
v -6.110888 -1.374111 0.849572
v -5.505477 -2.100115 1.318118
v -7.571327 -1.844204 0.611655
v -6.055530 -2.489968 2.110993
v -7.243651 -2.579078 0.632605
v -7.560040 -1.256281 1.184281
v -7.675385 -2.420398 2.257329
v -7.366328 -2.879085 1.895068
v -7.511689 -3.478524 1.044728
v -6.768751 -1.717546 2.688775
v -8.863988 -1.608936 1.207277
v -7.916577 -1.244667 1.731197
v -7.839901 -1.635326 2.212008
v -8.602901 -1.770797 2.054168
v -8.560667 -2.208127 2.297344
v -8.085576 -3.140194 0.241426
v -8.542836 -3.907010 1.304403
v -8.454654 -3.014406 2.227947
v -8.490119 -1.870305 0.192487
v -9.134571 -3.231190 0.056427
v -8.811195 -4.204422 0.882411
v -9.799688 -3.536163 0.249677
v -10.139796 -2.812022 0.060178
v -9.434337 -4.052609 0.519489
v -9.259646 -4.276125 1.195175
v -10.135963 -3.132043 1.108973
v -9.480504 -3.912787 1.441137
v -9.323218 -3.469409 2.022010
v -9.748343 -2.923919 2.069730
v -9.742637 -1.755065 0.475076
v -10.222947 -2.698044 1.489449
v -8.989584 -1.596015 1.851932
v -9.570466 -1.500490 1.423667
v -9.429455 -1.840410 1.754967
v -9.835342 -2.208593 1.735755
v -9.835926 -2.294416 1.223660
vt 0.103103 0.540531
vt 0.125320 0.569750
vt 0.080851 0.550951
vt 0.137034 0.609993
vt 0.153830 0.563468
vt 0.982855 0.355973
vt 0.950666 0.349091
vt 0.976815 0.331474
vt 0.191092 0.615801
vt 0.197104 0.572833
vt 0.235315 0.593340
vt 0.943832 0.311181
vt 0.969790 0.286060
vt 0.943980 0.268730
vt 0.985682 0.250170
vt 0.081326 0.589794
vt 0.974479 0.386717
vt 0.990686 0.420673
vt 0.962222 0.422760
vt 0.910708 0.348445
vt 0.912792 0.277430
vt 0.865762 0.386808
vt 0.872333 0.341928
vt 0.857197 0.353286
vt 0.018842 0.144697
vt 0.033406 0.137707
vt 0.036637 0.160112
vt 0.873404 0.306152
vt 0.930096 0.231803
vt 0.963699 0.206797
vt 0.065282 0.157363
vt 0.045512 0.184073
vt 0.859788 0.273560
vt 0.855608 0.216553
vt 0.864956 0.242102
vt 0.081545 0.225219
vt 0.040263 0.215790
vt 0.972273 0.463673
vt 0.942251 0.457785
vt 0.915072 0.426814
vt 0.944280 0.473856
vt 0.115963 0.036932
vt 0.160692 0.047377
vt 0.123469 0.089297
vt 0.099245 0.071090
vt 0.030151 0.550274
vt 0.034061 0.590649
vt 0.009884 0.553438
vt 0.010280 0.600956
vt 0.235894 0.069068
vt 0.184354 0.085847
vt 0.154717 0.129665
vt 0.171883 0.013654
vt 0.885012 0.399754
vt 0.884701 0.419246
vt 0.088836 0.105685
vt 0.140603 0.008157
vt 0.133861 0.024989
vt 0.228019 0.008734
vt 0.069152 0.122686
vt 0.035726 0.113427
vt 0.853731 0.404622
vt 0.840622 0.391079
vt 0.840147 0.376349
vt 0.853662 0.362583
vt 0.099163 0.161672
vt 0.150060 0.212915
vt 0.205756 0.182549
vt 0.217613 0.128168
vt 0.263110 0.638827
vt 0.307616 0.686164
vt 0.255938 0.699968
vt 0.326406 0.607552
vt 0.293093 0.593218
vt 0.943854 0.178758
vt 0.962671 0.138860
vt 0.898341 0.173638
vt 0.038059 0.248693
vt 0.129904 0.291187
vt 0.044374 0.721758
vt 0.122252 0.673396
vt 0.081778 0.763274
vt 0.137063 0.723796
vt 0.082251 0.640288
vt 0.193371 0.676248
vt 0.217823 0.731079
vt 0.172582 0.749973
vt 0.132102 0.803706
vt 0.078846 0.831632
vt 0.184087 0.797677
vt 0.173221 0.866840
vt 0.030095 0.660769
vt 0.035660 0.768878
vt 0.030335 0.786005
vt 0.019664 0.743490
vt 0.387814 0.027582
vt 0.418444 0.038122
vt 0.398737 0.051454
vt 0.004313 0.656832
vt 0.274560 0.018590
vt 0.329369 0.033330
vt 0.291753 0.054676
vt 0.013057 0.707705
vt 0.361266 0.061604
vt 0.420430 0.097004
vt 0.392974 0.144420
vt 0.316814 0.111798
vt 0.289775 0.143186
vt 0.253755 0.195697
vt 0.296600 0.757662
vt 0.231846 0.803027
vt 0.266707 0.257229
vt 0.347885 0.177782
vt 0.321063 0.226017
vt 0.349551 0.653042
vt 0.368119 0.699456
vt 0.334850 0.728157
vt 0.926541 0.113575
vt 0.957260 0.097003
vt 0.988382 0.110102
vt 0.986139 0.068563
vt 0.419805 0.694992
vt 0.387220 0.654105
vt 0.450927 0.664873
vt 0.934895 0.031734
vt 0.958569 0.019171
vt 0.389474 0.740820
vt 0.458287 0.711944
vt 0.430209 0.759896
vt 0.034852 0.292980
vt 0.081479 0.270666
vt 0.034968 0.312930
vt 0.852819 0.171156
vt 0.848203 0.191884
vt 0.086948 0.327968
vt 0.154839 0.342535
vt 0.094430 0.384062
vt 0.201198 0.278779
vt 0.232830 0.342323
vt 0.186030 0.403346
vt 0.890606 0.106623
vt 0.909901 0.046152
vt 0.824995 0.141672
vt 0.863264 0.134456
vt 0.814972 0.101449
vt 0.827281 0.073631
vt 0.857137 0.048213
vt 0.879568 0.017874
vt 0.865825 0.078840
vt 0.183930 0.465689
vt 0.130808 0.436380
vt 0.140580 0.496098
vt 0.074471 0.457887
vt 0.199397 0.496662
vt 0.124433 0.533922
vt 0.164130 0.524605
vt 0.477902 0.678188
vt 0.041583 0.405447
vt 0.033804 0.345174
vt 0.079805 0.504777
vt 0.041971 0.490893
vt 0.081757 0.523863
vt 0.477218 0.714553
vt 0.033068 0.451815
vt 0.019966 0.418288
vt 0.014623 0.464565
vt 0.379550 0.794505
vt 0.352228 0.850832
vt 0.279322 0.843070
vt 0.385668 0.836657
vt 0.412553 0.843566
vt 0.358301 0.894070
vt 0.431080 0.799340
vt 0.259307 0.501777
vt 0.250257 0.455909
vt 0.231572 0.899560
vt 0.302390 0.896290
vt 0.257702 0.916087
vt 0.264220 0.398924
vt 0.386057 0.890428
vt 0.117838 0.902048
vt 0.180053 0.926986
vt 0.067416 0.918236
vt 0.054359 0.867720
vt 0.127403 0.927469
vt 0.033253 0.843608
vt 0.043367 0.807707
vt 0.441748 0.036422
vt 0.461688 0.063836
vt 0.474427 0.116091
vt 0.484767 0.081576
vt 0.386273 0.217703
vt 0.354613 0.936482
vt 0.315562 0.509994
vt 0.354771 0.501481
vt 0.346451 0.530555
vt 0.306741 0.457061
vt 0.345959 0.429761
vt 0.379002 0.444660
vt 0.317266 0.367612
vt 0.313201 0.315317
vt 0.387644 0.400875
vt 0.380638 0.324145
vt 0.377373 0.495802
vt 0.865941 0.574131
vt 0.818518 0.546167
vt 0.856952 0.522857
vt 0.928240 0.580297
vt 0.886062 0.521004
vt 0.815299 0.614693
vt 0.770353 0.577768
vt 0.722182 0.645102
vt 0.797050 0.668400
vt 0.850990 0.678557
vt 0.874983 0.643967
vt 0.890185 0.791920
vt 0.832326 0.788902
vt 0.859755 0.757063
vt 0.787525 0.711584
vt 0.773132 0.763207
vt 0.724301 0.704363
vt 0.915983 0.665545
vt 0.977596 0.679480
vt 0.975776 0.730387
vt 0.933425 0.725839
vt 0.322156 0.944553
vt 0.278840 0.950018
vt 0.888637 0.721835
vt 0.931858 0.787712
vt 0.959249 0.754353
vt 0.938454 0.821361
vt 0.727797 0.598601
vt 0.657231 0.646749
vt 0.696096 0.606417
vt 0.670752 0.689228
vt 0.434065 0.219725
vt 0.474535 0.205170
vt 0.463987 0.281680
vt 0.428147 0.305116
vt 0.423801 0.363767
vt 0.688542 0.544105
vt 0.636762 0.594287
vt 0.609086 0.517148
vt 0.412616 0.444566
vt 0.450435 0.489294
vt 0.402462 0.499010
vt 0.452825 0.545607
vt 0.416433 0.557758
vt 0.506733 0.559432
vt 0.495210 0.475389
vt 0.448492 0.161893
vt 0.505434 0.109564
vt 0.529547 0.152638
vt 0.500958 0.177641
vt 0.533484 0.132717
vt 0.528720 0.112241
vt 0.535566 0.611650
vt 0.483241 0.622825
vt 0.576197 0.585071
vt 0.447553 0.610081
vt 0.413935 0.603270
vt 0.417551 0.580362
vt 0.487222 0.412070
vt 0.430616 0.398530
vt 0.448628 0.364378
vt 0.490597 0.361077
vt 0.550180 0.472597
vt 0.548765 0.387577
vt 0.604014 0.443063
vt 0.470947 0.317760
vt 0.375335 0.947230
vt 0.354884 0.973968
vt 0.838268 0.416487
vt 0.782669 0.453652
vt 0.772643 0.390269
vt 0.831154 0.473465
vt 0.382287 0.533475
vt 0.808104 0.498754
vt 0.765032 0.510423
vt 0.713578 0.420960
vt 0.730203 0.480613
vt 0.719987 0.539665
vt 0.663374 0.457777
vt 0.873718 0.857990
vt 0.783204 0.825427
vt 0.800291 0.871716
vt 0.695489 0.755674
vt 0.613867 0.373032
vt 0.678542 0.343042
vt 0.696141 0.809120
vt 0.629853 0.689049
vt 0.615706 0.726853
vt 0.506654 0.281193
vt 0.533214 0.292307
vt 0.555797 0.225397
vt 0.580549 0.294473
vt 0.736142 0.307740
vt 0.813869 0.346554
vt 0.769175 0.291510
vt 0.790008 0.313446
vt 0.734472 0.864994
vt 0.636896 0.295862
vt 0.677611 0.269472
vt 0.921696 0.855818
vt 0.626111 0.778673
vt 0.739761 0.170030
vt 0.755721 0.184715
vt 0.747380 0.204960
vt 0.653338 0.837956
vt 0.686488 0.880537
vt 0.649161 0.873048
vt 0.576442 0.864528
vt 0.706507 0.226317
vt 0.757517 0.237510
vt 0.590865 0.906513
vt 0.615821 0.887289
vt 0.580565 0.818401
vt 0.662905 0.154456
vt 0.698721 0.154360
vt 0.748433 0.129775
vt 0.644329 0.215239
vt 0.604604 0.918621
vt 0.507483 0.822655
vt 0.557247 0.793558
vt 0.593857 0.762575
vt 0.621270 0.163636
vt 0.599181 0.157478
vt 0.611536 0.118890
vt 0.642814 0.107260
vt 0.514628 0.785182
vt 0.548163 0.936235
vt 0.579273 0.965936
vt 0.736864 0.080392
vt 0.682394 0.102253
vt 0.527974 0.879645
vt 0.497855 0.941255
vt 0.522323 0.983326
vt 0.474544 0.955817
vt 0.449048 0.922597
vt 0.757155 0.061350
vt 0.492268 0.988768
vt 0.738871 0.041701
vt 0.765877 0.040339
vt 0.550929 0.102226
vt 0.519093 0.080185
vt 0.559285 0.054391
vt 0.498358 0.054951
vt 0.522717 0.017903
vt 0.690791 0.055494
vt 0.500840 0.019606
vt 0.708244 0.035024
vt 0.561409 0.012976
vt 0.661767 0.043183
vt 0.470759 0.874301
vt 0.583282 0.047502
vt 0.484881 0.786048
vt 0.473204 0.812748
vt 0.462070 0.816195
vt 0.451527 0.843788
vt 0.431453 0.858121
vt 0.408115 0.873573
vt 0.601222 0.094825
vt 0.604856 0.068344
vt 0.620588 0.043507
vt 0.623508 0.025345
vt 0.648292 0.019989
vt 0.919877 0.520349
vt 0.948563 0.523834
vt 0.617151 0.712974
vt 0.776337 0.276765
vt 0.018604 0.111794
vt 0.050248 0.893290
vt 0.968114 0.550583
vt 0.972691 0.629486
vn 0.6072 0.2664 -0.7486
vn 0.2567 0.5952 -0.7615
vn 0.2236 0.7089 -0.6690
vn 0.2051 0.6118 -0.7639
vn 0.5833 0.3515 -0.7322
vn 0.6593 0.0155 -0.7517
vn 0.1830 0.3909 -0.9020
vn 0.7760 -0.0024 -0.6308
vn 0.5822 0.1074 -0.8059
vn 0.7660 -0.3161 -0.5598
vn 0.9800 -0.1859 -0.0713
vn 0.2042 0.6368 -0.7435
vn 0.8271 0.4160 -0.3778
vn 0.7420 -0.2031 -0.6389
vn 0.9183 -0.2182 -0.3303
vn 0.8344 0.5507 -0.0232
vn 0.4491 -0.7122 -0.5396
vn 0.8101 -0.3699 -0.4549
vn -0.1319 -0.9416 0.3099
vn 0.8294 -0.5551 -0.0624
vn 0.9672 0.0315 -0.2519
vn 0.7529 -0.0483 -0.6564
vn 0.3646 -0.6199 0.6948
vn 0.9314 -0.2641 -0.2506
vn 0.9250 -0.2039 0.3206
vn 0.6689 -0.0697 -0.7401
vn 0.5869 -0.3197 0.7439
vn 0.4974 0.7290 -0.4702
vn 0.8894 0.3886 0.2407
vn 0.9760 -0.0748 0.2043
vn 0.8079 0.2348 0.5405
vn 0.2156 0.5083 0.8338
vn 0.4556 -0.1007 0.8845
vn 0.4750 0.5710 -0.6695
vn 0.3840 0.9120 0.1445
vn 0.2839 0.9558 0.0760
vn -0.0440 0.6699 0.7411
vn -0.0141 0.3382 0.9410
vn 0.1620 -0.1875 0.9688
vn 0.7791 -0.2596 0.5707
vn 0.6374 -0.4324 0.6378
vn 0.3119 -0.4050 0.8595
vn 0.9165 -0.1999 -0.3466
vn 0.5038 -0.4713 0.7239
vn 0.3778 -0.2914 0.8788
vn 0.1713 -0.0498 0.9840
vn 0.0523 0.2461 0.9678
vn 0.1600 0.1864 -0.9694
vn 0.0253 0.2320 -0.9724
vn -0.0296 0.3158 -0.9484
vn 0.6294 -0.0617 -0.7746
vn 0.8115 -0.1285 -0.5700
vn 0.9033 -0.0631 -0.4243
vn 0.3817 -0.3474 0.8565
vn 0.1706 0.7595 -0.6278
vn 0.2123 0.4799 -0.8512
vn 0.1017 0.3589 -0.9278
vn 0.0445 0.2890 -0.9563
vn 0.3388 0.4526 -0.8249
vn -0.0332 0.3586 -0.9329
vn 0.0247 0.4254 -0.9047
vn 0.0091 0.2144 -0.9767
vn 0.1395 0.2944 -0.9454
vn 0.0318 0.3836 -0.9229
vn 0.2235 0.3982 -0.8896
vn 0.1819 0.3515 -0.9184
vn 0.2475 0.7831 -0.5706
vn 0.0810 0.7784 -0.6225
vn 0.1389 0.9694 -0.2024
vn 0.1075 0.8512 0.5137
vn 0.0265 0.9201 0.3908
vn -0.0654 0.9112 0.4067
vn -0.1048 0.7296 0.6758
vn -0.0277 0.6477 0.7614
vn 0.0067 0.8091 0.5876
vn -0.0119 0.7287 0.6847
vn -0.0021 0.8135 0.5816
vn 0.0451 0.5061 0.8613
vn 0.1008 0.0859 0.9912
vn -0.0283 0.1708 -0.9849
vn 0.1331 0.3070 -0.9424
vn 0.0073 -0.1704 0.9853
vn -0.0192 0.4535 0.8911
vn -0.0386 0.0299 0.9988
vn 0.2455 0.1953 -0.9495
vn -0.1684 0.1363 -0.9762
vn -0.1071 0.1593 -0.9814
vn 0.7589 -0.1859 -0.6241
vn 0.6234 -0.1175 -0.7730
vn 0.3321 0.0260 -0.9429
vn -0.3114 -0.2127 -0.9262
vn 0.2785 -0.5952 -0.7538
vn 0.4460 -0.5603 -0.6980
vn -0.3252 -0.1513 -0.9335
vn -0.3657 -0.7379 -0.5672
vn -0.5045 -0.6081 -0.6130
vn 0.7152 -0.5803 0.3896
vn 0.5032 -0.3289 0.7991
vn 0.8947 -0.1931 0.4027
vn 0.4576 -0.2706 0.8470
vn 0.0593 -0.4632 0.8843
vn 0.0750 -0.5457 0.8346
vn 0.1512 -0.3258 0.9333
vn -0.1266 -0.5264 0.8408
vn -0.3179 -0.6857 0.6548
vn 0.5644 0.0945 -0.8201
vn 0.5823 -0.3016 -0.7549
vn 0.7313 -0.2809 0.6215
vn 0.9663 -0.0811 -0.2444
vn 0.3467 -0.6410 0.6848
vn 0.7579 -0.5506 0.3498
vn 0.5356 -0.6594 -0.5276
vn 0.2129 -0.7900 -0.5749
vn 0.6932 -0.3207 -0.6455
vn -0.5294 -0.7626 0.3717
vn -0.4199 -0.6972 0.5810
vn -0.5700 -0.8215 -0.0148
vn -0.2584 -0.8878 0.3809
vn -0.5413 -0.8246 -0.1644
vn -0.2512 -0.8453 -0.4715
vn 0.3674 -0.8990 0.2384
vn -0.2515 -0.4144 -0.8747
vn -0.1897 -0.3933 -0.8996
vn 0.0690 0.0713 -0.9951
vn -0.3881 -0.7999 -0.4577
vn -0.4592 -0.8875 -0.0373
vn -0.3530 -0.7175 -0.6005
vn -0.3940 -0.8492 0.3517
vn 0.2033 0.1990 -0.9587
vn 0.0022 -0.1368 -0.9906
vn 0.1348 0.0550 -0.9893
vn -0.2553 -0.7470 0.6138
vn -0.4334 -0.8997 -0.0521
vn 0.2765 0.5053 -0.8174
vn 0.3722 0.1962 -0.9072
vn 0.1195 0.8799 -0.4599
vn -0.1938 0.7482 -0.6346
vn 0.5520 0.3207 -0.7697
vn -0.2081 0.9620 -0.1766
vn 0.0950 0.5809 -0.8084
vn -0.3475 0.8414 0.4138
vn -0.0895 0.2631 0.9606
vn -0.2867 -0.8723 -0.3962
vn -0.2824 -0.9593 -0.0079
vn -0.3305 -0.9182 0.2183
vn -0.2056 -0.8898 0.4075
vn 0.0759 -0.9682 0.2383
vn -0.1012 -0.5826 0.8065
vn -0.1161 -0.3446 0.9316
vn -0.0230 -0.6772 0.7355
vn -0.0690 -0.2635 0.9622
vn 0.0454 -0.9949 -0.0903
vn -0.1882 0.9201 -0.3436
vn -0.3436 0.9375 0.0550
vn -0.1128 0.9197 0.3760
vn 0.2812 0.7941 -0.5388
vn -0.0227 0.9863 0.1636
vn -0.4456 0.7129 -0.5415
vn -0.4970 0.8660 -0.0551
vn -0.6175 0.6700 -0.4121
vn -0.4759 0.4462 -0.7579
vn -0.2163 0.2107 -0.9533
vn -0.0863 0.4831 -0.8713
vn -0.0072 -0.4088 -0.9126
vn 0.0005 -0.3232 -0.9463
vn -0.0593 -0.2470 -0.9672
vn -0.3568 0.1407 -0.9235
vn -0.2070 -0.0900 -0.9742
vn -0.4891 0.4139 -0.7677
vn 0.2630 0.2201 -0.9394
vn 0.2231 -0.0624 -0.9728
vn -0.1815 -0.5010 -0.8462
vn -0.0355 -0.1648 -0.9857
vn 0.0641 -0.1313 -0.9893
vn -0.5960 0.8029 0.0087
vn -0.7275 0.6833 0.0619
vn -0.5842 0.7866 0.1997
vn -0.7043 0.5870 -0.3992
vn -0.1218 0.4837 0.8667
vn -0.0901 0.6036 0.7922
vn -0.0402 0.2428 0.9693
vn -0.0171 -0.0844 0.9963
vn 0.0537 -0.4588 0.8869
vn 0.0444 -0.0633 0.9970
vn -0.2750 0.8455 0.4577
vn 0.1061 0.8471 0.5208
vn 0.0104 0.5976 0.8017
vn -0.2174 0.5914 0.7765
vn -0.0994 0.7436 0.6612
vn -0.1662 0.9759 0.1414
vn -0.0031 0.8718 0.4899
vn -0.0901 0.8502 0.5186
vn 0.1256 0.9783 0.1649
vn -0.5068 0.6116 0.6075
vn -0.6464 0.5546 0.5241
vn -0.1305 0.2261 0.9653
vn -0.4518 0.1289 0.8828
vn -0.1570 -0.2214 0.9625
vn -0.1205 -0.8417 -0.5263
vn 0.1164 -0.7088 -0.6958
vn 0.1961 -0.9763 -0.0911
vn 0.2095 -0.9658 -0.1528
vn 0.0565 -0.8161 0.5752
vn 0.1379 -0.8360 0.5311
vn -0.0201 -0.4844 0.8746
vn 0.0207 -0.3671 -0.9300
vn 0.1727 -0.7188 -0.6735
vn -0.3817 0.2607 -0.8867
vn -0.2887 -0.3286 0.8993
vn -0.1608 -0.6805 0.7149
vn -0.0865 0.0292 -0.9958
vn -0.8120 0.5535 0.1851
vn -0.8509 0.5046 -0.1462
vn -0.7441 0.2981 0.5979
vn -0.8791 0.3779 0.2904
vn -0.5983 -0.0564 0.7993
vn 0.0784 -0.9943 0.0723
vn 0.1691 -0.8594 -0.4826
vn 0.1030 -0.5457 -0.8316
vn -0.3273 -0.4155 0.8487
vn -0.1740 -0.6950 0.6977
vn -0.5512 0.5216 -0.6512
vn 0.6051 -0.7423 -0.2878
vn 0.4095 -0.2738 -0.8702
vn 0.4046 -0.4655 -0.7872
vn 0.0226 0.0393 -0.9990
vn 0.1692 -0.7518 -0.6374
vn 0.1453 0.4646 -0.8735
vn 0.1296 -0.9581 0.2555
vn 0.4938 -0.1936 -0.8477
vn -0.3093 0.7427 -0.5939
vn -0.1301 -0.4061 0.9045
vn 0.2842 -0.7294 0.6223
vn 0.6255 -0.7716 -0.1155
vn -0.3461 -0.2959 0.8903
vn -0.1755 0.9752 -0.1347
vn -0.5472 0.8265 0.1321
vn -0.4238 0.2787 0.8618
vn -0.1885 0.6488 0.7373
vn -0.0527 0.2117 0.9759
vn 0.3840 -0.3237 -0.8647
vn 0.3509 -0.7864 0.5084
vn 0.1422 -0.3724 0.9171
vn 0.1205 0.5976 -0.7927
vn 0.0716 -0.2262 -0.9715
vn 0.3240 -0.9126 -0.2492
vn -0.5600 -0.5643 -0.6066
vn -0.6762 0.0521 -0.7349
vn -0.3252 -0.7931 -0.5150
vn -0.2608 -0.9285 0.2644
vn -0.8987 -0.4237 0.1134
vn -0.6658 -0.6328 0.3954
vn -0.2044 -0.5415 0.8155
vn -0.5593 -0.1336 0.8181
vn -0.4990 0.7618 -0.4131
vn -0.9455 0.0838 0.3145
vn -0.0508 0.8423 0.5365
vn -0.8323 0.4043 -0.3793
vn -0.7210 0.5443 0.4288
vn -0.6785 0.5583 0.4775
vn -0.8101 0.5555 0.1876
s 1
f 1/1/1 2/2/2 3/3/3
f 4/4/4 2/2/2 5/5/5
f 2/6/2 6/7/6 5/8/5
f 7/9/7 8/10/8 9/11/9
f 8/10/8 7/9/7 5/5/5
f 5/8/5 10/12/10 8/13/8
f 8/13/8 11/14/11 9/15/9
f 4/4/4 12/16/12 2/2/2
f 12/16/12 3/3/3 2/2/2
f 1/17/1 3/18/3 13/19/13
f 2/6/2 1/17/1 6/7/6
f 13/19/13 14/20/14 6/7/6
f 14/20/14 15/21/15 10/12/10
f 14/20/14 16/22/16 17/23/17
f 18/24/18 17/23/17 16/22/16
f 18/25/18 19/26/19 17/27/17
f 14/20/14 17/23/17 20/28/20
f 11/14/11 21/29/21 9/15/9
f 22/30/22 9/15/9 21/29/21
f 11/14/11 15/21/15 21/29/21
f 11/14/11 10/12/10 15/21/15
f 17/27/17 23/31/23 20/32/20
f 20/28/20 24/33/24 15/21/15
f 24/33/24 25/34/25 26/35/26
f 20/32/20 27/36/27 24/37/24
f 14/20/14 10/12/10 6/7/6
f 24/33/24 26/35/26 15/21/15
f 13/19/13 28/38/28 29/39/29
f 13/19/13 29/39/29 30/40/30
f 28/38/28 31/41/31 29/39/29
f 29/42/29 32/43/32 33/44/33
f 33/44/33 30/45/30 29/42/29
f 28/46/28 12/16/12 34/47/34
f 35/48/35 34/47/34 36/49/36
f 3/18/3 28/38/28 13/19/13
f 3/3/3 12/16/12 28/46/28
f 34/47/34 35/48/35 28/46/28
f 32/43/32 37/50/37 38/51/38
f 33/44/33 38/51/38 39/52/39
f 35/53/35 37/50/37 32/43/32
f 32/43/32 38/51/38 33/44/33
f 30/40/30 40/54/40 14/20/14
f 30/40/30 41/55/41 40/54/40
f 30/45/30 33/44/33 41/56/41
f 28/57/28 35/53/35 31/58/31
f 31/58/31 35/53/35 32/43/32
f 36/59/36 37/50/37 35/53/35
f 40/60/40 19/26/19 42/61/42
f 23/31/23 19/26/19 40/60/40
f 14/20/14 40/54/40 16/22/16
f 16/22/16 40/54/40 42/62/42
f 42/62/42 43/63/43 16/22/16
f 19/26/19 23/31/23 17/27/17
f 16/22/16 19/64/19 18/65/18
f 16/22/16 43/63/43 19/64/19
f 44/66/44 41/56/41 33/44/33
f 23/31/23 40/60/40 44/66/44
f 40/60/40 41/56/41 44/66/44
f 33/44/33 39/52/39 44/66/44
f 39/52/39 45/67/45 44/66/44
f 46/68/46 45/67/45 39/52/39
f 27/36/27 44/66/44 45/67/45
f 44/66/44 20/32/20 23/31/23
f 20/32/20 44/66/44 27/36/27
f 47/69/47 46/68/46 39/52/39
f 48/70/48 49/71/49 50/72/50
f 51/73/51 48/70/48 22/74/22
f 22/30/22 52/75/52 51/76/51
f 21/29/21 25/34/25 53/77/53
f 15/21/15 26/35/26 21/29/21
f 25/78/25 24/37/24 27/36/27
f 26/35/26 25/34/25 21/29/21
f 27/36/27 45/67/45 54/79/54
f 9/11/9 22/74/22 48/70/48
f 6/7/6 10/12/10 5/8/5
f 1/17/1 13/19/13 6/7/6
f 10/12/10 11/14/11 8/13/8
f 22/30/22 21/29/21 52/75/52
f 15/21/15 14/20/14 20/28/20
f 38/51/38 47/69/47 39/52/39
f 21/29/21 53/77/53 52/75/52
f 55/80/55 56/81/56 57/82/57
f 56/81/56 58/83/58 57/82/57
f 59/84/59 4/4/4 56/81/56
f 56/81/56 60/85/60 58/83/58
f 7/9/7 60/85/60 56/81/56
f 60/85/60 61/86/61 62/87/62
f 50/72/50 61/86/61 60/85/60
f 58/83/58 60/85/60 62/87/62
f 62/87/62 63/88/63 58/83/58
f 57/82/57 58/83/58 63/88/63
f 63/88/63 64/89/64 57/82/57
f 62/87/62 65/90/65 63/88/63
f 63/88/63 65/90/65 66/91/66
f 55/80/55 67/92/67 59/84/59
f 68/93/68 57/82/57 69/94/69
f 68/93/68 70/95/70 55/80/55
f 68/96/68 69/97/69 70/98/70
f 34/47/34 59/84/59 67/92/67
f 36/49/36 34/47/34 67/92/67
f 67/92/67 71/99/71 36/49/36
f 71/100/71 72/101/72 73/102/73
f 72/103/72 71/99/71 67/92/67
f 72/103/72 67/92/67 55/80/55
f 55/80/55 70/95/70 72/103/72
f 72/101/72 74/104/74 73/102/73
f 75/105/75 74/104/74 70/98/70
f 71/100/71 73/102/73 37/50/37
f 71/100/71 37/50/37 36/59/36
f 76/106/76 77/107/77 74/104/74
f 47/69/47 37/50/37 78/108/78
f 77/107/77 78/108/78 37/50/37
f 78/108/78 79/109/79 46/68/46
f 47/69/47 78/108/78 46/68/46
f 76/106/76 78/108/78 77/107/77
f 37/50/37 73/102/73 77/107/77
f 50/72/50 80/110/80 61/86/61
f 81/111/81 61/86/61 80/110/80
f 65/90/65 61/86/61 81/111/81
f 81/111/81 66/91/66 65/90/65
f 79/109/79 82/112/82 46/68/46
f 59/84/59 56/81/56 55/80/55
f 68/93/68 55/80/55 57/82/57
f 72/101/72 70/98/70 74/104/74
f 73/102/73 74/104/74 77/107/77
f 76/106/76 74/104/74 75/105/75
f 83/113/83 78/108/78 76/106/76
f 78/108/78 84/114/84 79/109/79
f 62/87/62 61/86/61 65/90/65
f 85/115/85 86/116/86 49/71/49
f 49/71/49 86/116/86 87/117/87
f 51/76/51 88/118/88 89/119/89
f 52/75/52 88/118/88 51/76/51
f 85/120/85 89/119/89 90/121/90
f 91/122/91 86/116/86 90/123/90
f 92/124/92 91/122/91 90/123/90
f 90/121/90 93/125/93 92/126/92
f 94/127/94 86/116/86 91/122/91
f 95/128/95 96/129/96 91/122/91
f 92/124/92 95/128/95 91/122/91
f 89/119/89 85/120/85 51/76/51
f 86/116/86 85/115/85 90/123/90
f 97/130/97 98/131/98 99/132/99
f 53/77/53 25/34/25 99/133/99
f 25/34/25 97/134/97 99/133/99
f 98/131/98 97/130/97 25/78/25
f 100/135/100 101/136/101 102/137/102
f 54/79/54 100/135/100 98/131/98
f 100/135/100 54/79/54 101/136/101
f 45/67/45 103/138/103 54/79/54
f 103/138/103 104/139/104 101/136/101
f 101/136/101 105/140/105 102/137/102
f 104/139/104 105/140/105 101/136/101
f 52/75/52 53/77/53 88/118/88
f 88/118/88 53/77/53 106/141/106
f 107/142/107 93/125/93 89/119/89
f 99/133/99 108/143/108 109/144/109
f 109/144/109 110/145/110 111/146/111
f 106/141/106 53/77/53 109/144/109
f 53/77/53 99/133/99 109/144/109
f 106/141/106 107/142/107 88/118/88
f 88/118/88 107/142/107 89/119/89
f 99/132/99 98/131/98 100/135/100
f 107/142/107 112/147/112 113/148/113
f 112/147/112 107/142/107 114/149/114
f 106/141/106 114/149/114 107/142/107
f 114/149/114 111/146/111 112/147/112
f 108/143/108 110/145/110 109/144/109
f 109/144/109 114/149/114 106/141/106
f 111/146/111 114/149/114 109/144/109
f 105/140/105 115/150/115 116/151/116
f 105/140/105 116/151/116 102/137/102
f 115/150/115 117/152/117 116/151/116
f 116/151/116 117/152/117 118/153/118
f 115/150/115 119/154/119 117/152/117
f 95/155/95 117/152/117 96/156/96
f 93/157/93 95/128/95 92/124/92
f 102/137/102 110/158/110 108/159/108
f 100/135/100 102/137/102 108/159/108
f 95/155/95 120/160/120 117/152/117
f 117/152/117 120/160/120 118/153/118
f 113/161/113 120/160/120 93/162/93
f 118/153/118 120/160/120 113/161/113
f 93/157/93 120/163/120 95/128/95
f 102/137/102 116/151/116 110/158/110
f 113/161/113 121/164/121 118/153/118
f 110/158/110 118/153/118 111/165/111
f 118/153/118 121/164/121 111/165/111
f 116/151/116 118/153/118 110/158/110
f 93/125/93 90/121/90 89/119/89
f 96/129/96 94/127/94 91/122/91
f 99/132/99 100/135/100 108/159/108
f 121/164/121 112/166/112 111/165/111
f 121/164/121 113/161/113 112/166/112
f 50/72/50 87/117/87 80/110/80
f 122/167/122 123/168/123 124/169/124
f 87/117/87 94/127/94 122/167/122
f 124/169/124 80/110/80 122/167/122
f 80/110/80 87/117/87 122/167/122
f 123/168/123 122/167/122 125/170/125
f 125/170/125 126/171/126 127/172/127
f 119/173/119 122/167/122 96/129/96
f 119/173/119 126/171/126 125/170/125
f 122/167/122 119/173/119 125/170/125
f 94/127/94 96/129/96 122/167/122
f 126/174/126 115/150/115 128/175/128
f 124/169/124 129/176/129 81/111/81
f 124/169/124 123/168/123 130/177/130
f 124/169/124 130/177/130 131/178/131
f 80/110/80 124/169/124 81/111/81
f 105/140/105 128/175/128 115/150/115
f 132/179/132 105/140/105 104/139/104
f 94/127/94 87/117/87 86/116/86
f 123/168/123 127/172/127 130/177/130
f 126/174/126 119/154/119 115/150/115
f 127/172/127 123/168/123 125/170/125
f 127/172/127 126/171/126 133/180/133
f 104/139/104 103/138/103 82/112/82
f 132/179/132 128/175/128 105/140/105
f 64/89/64 63/88/63 66/91/66
f 64/89/64 66/91/66 134/181/134
f 66/91/66 135/182/135 134/181/134
f 64/89/64 136/183/136 137/184/137
f 64/89/64 134/181/134 136/183/136
f 135/182/135 66/91/66 129/176/129
f 134/181/134 135/182/135 138/185/138
f 64/89/64 139/186/139 140/187/140
f 69/97/69 140/188/140 139/189/139
f 75/105/75 70/98/70 139/189/139
f 139/189/139 141/190/141 75/105/75
f 69/97/69 139/189/139 70/98/70
f 137/191/137 141/190/141 139/189/139
f 5/5/5 7/9/7 4/4/4
f 12/16/12 4/4/4 59/84/59
f 7/9/7 48/70/48 60/85/60
f 7/9/7 56/81/56 4/4/4
f 13/19/13 30/40/30 14/20/14
f 31/58/31 32/43/32 29/42/29
f 37/50/37 47/69/47 38/51/38
f 48/70/48 85/115/85 49/71/49
f 34/47/34 12/16/12 59/84/59
f 60/85/60 48/70/48 50/72/50
f 57/82/57 140/187/140 69/94/69
f 48/70/48 51/73/51 85/115/85
f 25/78/25 27/36/27 98/131/98
f 98/131/98 27/36/27 54/79/54
f 54/79/54 103/138/103 101/136/101
f 46/68/46 103/138/103 45/67/45
f 119/154/119 96/156/96 117/152/117
f 93/125/93 107/142/107 113/148/113
f 49/71/49 87/117/87 50/72/50
f 81/111/81 129/176/129 66/91/66
f 57/82/57 64/89/64 140/187/140
f 124/169/124 131/178/131 129/176/129
f 64/89/64 137/184/137 139/186/139
f 76/106/76 142/192/142 83/113/83
f 83/113/83 142/192/142 84/114/84
f 133/180/133 143/193/143 127/172/127
f 133/194/133 144/195/144 143/196/143
f 145/197/145 146/198/146 144/195/144
f 146/198/146 147/199/147 144/195/144
f 148/200/148 146/198/146 132/179/132
f 146/198/146 145/197/145 132/179/132
f 149/201/149 148/200/148 132/179/132
f 150/202/150 146/198/146 148/200/148
f 146/198/146 150/202/150 147/199/147
f 104/139/104 149/201/149 132/179/132
f 132/179/132 145/197/145 128/175/128
f 82/112/82 84/114/84 149/201/149
f 142/192/142 149/201/149 84/114/84
f 142/192/142 151/203/151 149/201/149
f 149/201/149 151/203/151 148/200/148
f 147/199/147 152/204/152 144/195/144
f 148/200/148 151/203/151 150/202/150
f 153/205/153 154/206/154 155/207/155
f 156/208/156 153/205/153 157/209/157
f 158/210/158 154/206/154 153/205/153
f 159/211/159 154/206/154 158/210/158
f 160/212/160 158/210/158 161/213/161
f 158/210/158 160/212/160 159/211/159
f 162/214/162 158/210/158 163/215/163
f 153/205/153 156/208/156 163/215/163
f 164/216/164 165/217/165 166/218/166
f 162/214/162 167/219/167 161/213/161
f 167/219/167 166/218/166 165/217/165
f 165/217/165 168/220/168 167/219/167
f 169/221/169 167/219/167 168/220/168
f 170/222/170 163/215/163 156/208/156
f 135/223/135 129/224/129 171/225/171
f 135/223/135 171/225/171 170/222/170
f 130/177/130 172/226/172 173/227/173
f 166/218/166 174/228/174 164/216/164
f 171/225/171 164/216/164 174/228/174
f 173/229/173 164/216/164 171/225/171
f 174/228/174 170/222/170 171/225/171
f 129/224/129 131/230/131 171/225/171
f 170/222/170 174/228/174 162/214/162
f 164/216/164 173/229/173 172/231/172
f 170/222/170 162/214/162 163/215/163
f 175/232/175 159/211/159 160/212/160
f 176/233/176 177/234/177 160/212/160
f 167/219/167 169/221/169 160/212/160
f 178/235/178 176/233/176 160/212/160
f 169/221/169 178/235/178 160/212/160
f 158/210/158 162/214/162 161/213/161
f 167/219/167 162/214/162 174/228/174
f 167/219/167 160/212/160 161/213/161
f 167/219/167 174/228/174 166/218/166
f 175/232/175 160/212/160 177/234/177
f 179/236/179 180/237/180 181/238/181
f 179/236/179 181/238/181 142/192/142
f 142/192/142 181/238/181 182/239/182
f 151/203/151 182/239/182 183/240/183
f 183/241/183 182/242/182 184/243/184
f 159/244/159 185/245/185 154/246/154
f 186/247/186 155/248/155 154/246/154
f 185/245/185 187/249/187 186/247/186
f 188/250/188 187/249/187 185/245/185
f 76/106/76 141/190/141 189/251/189
f 190/252/190 191/253/191 192/254/192
f 141/190/141 190/252/190 189/251/189
f 189/251/189 190/252/190 192/254/192
f 193/255/193 191/253/191 190/252/190
f 136/256/136 193/255/193 190/252/190
f 187/249/187 180/257/180 192/258/192
f 180/257/180 187/249/187 181/259/181
f 191/260/191 193/261/193 157/262/157
f 189/251/189 192/254/192 180/237/180
f 191/260/191 187/249/187 192/258/192
f 155/248/155 187/249/187 191/260/191
f 189/251/189 179/236/179 142/192/142
f 179/236/179 189/251/189 180/237/180
f 157/262/157 155/248/155 191/260/191
f 187/249/187 155/248/155 186/247/186
f 185/245/185 194/263/194 188/250/188
f 159/244/159 175/264/175 194/263/194
f 159/244/159 194/263/194 185/245/185
f 175/264/175 177/265/177 195/266/195
f 194/263/194 175/264/175 195/266/195
f 188/250/188 194/263/194 196/267/196
f 196/267/196 194/263/194 197/268/197
f 196/267/196 198/269/198 184/243/184
f 176/270/176 195/266/195 177/265/177
f 76/106/76 189/251/189 142/192/142
f 154/246/154 185/245/185 186/247/186
f 181/259/181 187/249/187 184/243/184
f 143/193/143 144/271/144 199/272/199
f 200/273/200 201/274/201 202/275/202
f 201/274/201 200/273/200 199/276/199
f 144/195/144 152/204/152 199/277/199
f 199/276/199 152/278/152 201/274/201
f 147/279/147 201/274/201 152/278/152
f 201/274/201 203/280/203 202/275/202
f 203/280/203 201/274/201 204/281/204
f 201/274/201 147/279/147 204/281/204
f 147/279/147 150/282/150 204/281/204
f 204/281/204 150/282/150 183/241/183
f 205/283/205 204/281/204 183/241/183
f 200/284/200 206/285/206 165/217/165
f 207/286/207 206/285/206 200/284/200
f 208/287/208 168/220/168 206/285/206
f 165/217/165 206/285/206 168/220/168
f 204/281/204 205/283/205 203/280/203
f 209/288/209 210/289/210 205/283/205
f 209/288/209 205/283/205 198/269/198
f 205/283/205 210/289/210 203/280/203
f 197/268/197 198/269/198 196/267/196
f 198/269/198 197/268/197 209/288/209
f 184/243/184 198/269/198 205/283/205
f 211/290/211 208/287/208 206/285/206
f 212/291/212 176/233/176 178/235/178
f 213/292/213 212/291/212 178/235/178
f 212/293/212 214/294/214 195/266/195
f 176/270/176 212/293/212 195/266/195
f 212/293/212 215/295/215 214/294/214
f 215/295/215 216/296/216 214/294/214
f 217/297/217 202/275/202 203/280/203
f 214/294/214 216/296/216 197/268/197
f 197/268/197 216/296/216 209/288/209
f 202/275/202 217/297/217 207/298/207
f 207/298/207 218/299/218 219/300/219
f 217/297/217 218/299/218 207/298/207
f 206/285/206 207/286/207 219/301/219
f 220/302/220 210/289/210 209/288/209
f 210/289/210 221/303/221 217/297/217
f 209/288/209 216/296/216 220/302/220
f 217/297/217 203/280/203 210/289/210
f 202/275/202 207/298/207 200/273/200
f 199/304/199 200/284/200 164/216/164
f 206/285/206 219/301/219 211/290/211
f 178/235/178 169/221/169 208/287/208
f 214/294/214 197/268/197 195/266/195
f 210/289/210 220/302/220 221/303/221
f 178/235/178 208/287/208 222/305/222
f 223/306/223 224/307/224 225/308/225
f 226/309/226 227/310/227 225/311/225
f 226/309/226 225/311/225 228/312/228
f 225/308/225 229/313/229 223/306/223
f 219/301/219 227/310/227 226/309/226
f 226/309/226 211/290/211 219/301/219
f 217/297/217 229/313/229 227/314/227
f 230/315/230 228/312/228 224/316/224
f 228/312/228 231/317/231 226/309/226
f 232/318/232 233/319/233 229/313/229
f 229/313/229 233/319/233 223/306/223
f 223/306/223 233/319/233 234/320/234
f 235/321/235 232/318/232 229/313/229
f 229/313/229 225/308/225 227/314/227
f 224/316/224 223/322/223 230/315/230
f 225/311/225 224/316/224 228/312/228
f 231/317/231 222/305/222 226/309/226
f 231/317/231 236/323/236 237/324/237
f 208/287/208 211/290/211 222/305/222
f 215/325/215 213/292/213 222/305/222
f 237/324/237 215/325/215 231/317/231
f 238/326/238 235/321/235 215/295/215
f 237/327/237 238/326/238 215/295/215
f 216/296/216 215/295/215 235/321/235
f 238/326/238 232/318/232 235/321/235
f 232/318/232 239/328/239 240/329/240
f 239/328/239 232/318/232 238/326/238
f 237/324/237 236/323/236 239/330/239
f 211/290/211 226/309/226 222/305/222
f 236/323/236 231/317/231 228/312/228
f 215/325/215 222/305/222 231/317/231
f 237/327/237 239/328/239 238/326/238
f 230/315/230 241/331/241 228/312/228
f 223/322/223 234/332/234 230/315/230
f 234/332/234 241/331/241 230/315/230
f 233/319/233 242/333/242 234/320/234
f 233/319/233 243/334/243 242/333/242
f 228/312/228 241/331/241 244/335/244
f 241/331/241 245/336/245 244/335/244
f 246/337/246 241/331/241 234/332/234
f 241/331/241 246/337/246 245/336/245
f 245/336/245 247/338/247 248/339/248
f 234/320/234 242/333/242 246/340/246
f 246/337/246 249/341/249 245/336/245
f 246/340/246 250/342/250 249/343/249
f 245/336/245 249/341/249 247/338/247
f 248/344/248 247/345/247 251/346/251
f 247/345/247 249/347/249 251/346/251
f 249/347/249 252/348/252 251/346/251
f 253/349/253 250/342/250 242/333/242
f 242/333/242 250/342/250 246/340/246
f 242/333/242 243/334/243 253/349/253
f 249/347/249 250/350/250 252/348/252
f 252/351/252 250/342/250 253/349/253
f 251/346/251 252/348/252 254/352/254
f 253/349/253 254/353/254 252/351/252
f 244/335/244 236/323/236 228/312/228
f 244/335/244 245/336/245 255/354/255
f 251/346/251 254/352/254 256/355/256
f 257/356/257 236/323/236 258/357/258
f 259/358/259 236/323/236 260/359/260
f 259/358/259 258/357/258 236/323/236
f 244/335/244 255/354/255 236/323/236
f 255/354/255 261/360/261 260/359/260
f 260/359/260 236/323/236 255/354/255
f 248/344/248 251/346/251 256/355/256
f 255/354/255 248/339/248 256/361/256
f 255/354/255 256/361/256 261/360/261
f 240/329/240 257/362/257 259/363/259
f 257/356/257 239/330/239 236/323/236
f 260/364/260 254/353/254 240/329/240
f 260/364/260 240/329/240 259/363/259
f 260/364/260 261/365/261 256/366/256
f 256/366/256 254/353/254 260/364/260
f 240/329/240 253/349/253 243/334/243
f 253/349/253 240/329/240 254/353/254
f 259/358/259 257/356/257 258/357/258
f 222/305/222 213/292/213 178/235/178
f 221/303/221 229/313/229 217/297/217
f 232/318/232 240/329/240 233/319/233
f 229/313/229 221/303/221 235/321/235
f 240/329/240 243/334/243 233/319/233
f 245/336/245 248/339/248 255/354/255
f 133/194/133 145/197/145 144/195/144
f 157/209/157 153/205/153 155/207/155
f 143/193/143 172/226/172 127/172/127
f 143/193/143 199/272/199 172/226/172
f 193/367/193 136/368/136 156/208/156
f 168/220/168 208/287/208 169/221/169
f 151/203/151 183/240/183 150/202/150
f 182/239/182 151/203/151 142/192/142
f 197/268/197 194/263/194 195/266/195
f 156/208/156 157/209/157 193/367/193
f 196/267/196 184/243/184 187/249/187
f 184/243/184 205/283/205 183/241/183
f 200/284/200 165/217/165 164/216/164
f 172/231/172 199/304/199 164/216/164
f 215/369/215 212/291/212 213/292/213
f 217/297/217 227/314/227 218/299/218
f 220/302/220 235/321/235 221/303/221
f 219/370/219 218/299/218 227/314/227
f 216/296/216 235/321/235 220/302/220
f 239/328/239 257/362/257 240/329/240
f 43/371/43 42/61/42 19/26/19
f 79/109/79 84/114/84 82/112/82
f 133/194/133 126/174/126 145/197/145
f 126/174/126 128/175/128 145/197/145
f 190/372/190 137/184/137 136/183/136
f 190/252/190 141/190/141 137/191/137
f 82/112/82 103/138/103 46/68/46
f 78/108/78 83/113/83 84/114/84
f 82/112/82 149/201/149 104/139/104
f 153/205/153 163/215/163 158/210/158
f 136/373/136 138/374/138 156/208/156
f 170/222/170 156/208/156 138/374/138
f 135/223/135 170/222/170 138/374/138
f 136/183/136 134/181/134 138/185/138
f 130/177/130 173/227/173 131/178/131
f 173/229/173 171/225/171 131/230/131
f 181/259/181 184/243/184 182/242/182
f 141/190/141 76/106/76 75/105/75
f 187/249/187 188/250/188 196/267/196
f 172/226/172 130/177/130 127/172/127
f 7/9/7 9/11/9 48/70/48
