# www.textures.com
v -2.575860 -5.215786 8.005259
v -2.720582 -3.885057 7.793721
v -2.766921 -4.272212 5.876275
v -2.742188 -6.590083 6.482139
v -2.757165 -2.976555 7.430960
v -2.313501 -6.000756 3.633453
v -2.735912 -1.372667 6.205698
v -0.931829 -2.197129 7.063632
v 1.804793 -0.785863 8.094156
v 1.472780 -3.397498 8.288157
v -0.937024 -6.762551 7.465944
v -2.642875 -6.735884 7.663004
v -2.543545 -8.285325 6.929182
v -2.549588 -8.875410 4.613818
v -2.683758 -2.788501 4.183972
v -2.433160 -1.541389 2.361391
v -2.150315 -4.139328 1.690033
v -2.376296 0.354560 0.077144
v -2.394920 -2.967593 0.717205
v -1.391886 -0.954422 0.045374
v -2.475823 0.802971 2.088471
v -0.493703 -0.048815 0.732533
v -1.255656 -2.562085 0.733455
v 0.379316 -3.409045 0.259062
v 0.865987 0.515903 0.261691
v 2.958738 -0.318031 -0.033067
v 3.747771 -1.944901 0.340613
v -2.390295 -5.862865 0.514747
v -1.991169 -5.713148 0.152933
v 1.673623 -4.656262 0.205115
v -2.344560 -9.476781 2.351724
v -2.365297 -9.115642 1.091801
v -1.363975 -9.885035 1.588083
v -2.133070 -7.744956 2.213694
v -2.435849 -7.892598 0.444140
v -1.084401 -9.678056 0.786974
v -0.447876 -8.786613 0.264685
v -2.037384 -9.165491 6.141753
v -2.438229 -10.094083 4.494714
v -0.637339 -9.019112 5.058047
v -2.228447 -9.792230 3.066661
v -0.075500 -5.783446 7.154435
v 1.658654 -6.287911 7.885962
v 2.290187 -9.542108 5.473376
v 3.140790 -7.286069 7.260278
v 3.534060 -4.348616 7.968055
v 5.319158 -6.532527 6.137028
v 4.932765 -8.331262 5.026237
v 2.872476 -10.155807 3.070793
v 0.571763 -10.551718 2.945142
v 1.359716 -10.345013 1.900336
v 2.154322 -9.675343 0.809295
v 1.601763 -7.951428 0.124626
v 3.554479 -1.533841 7.748274
v 5.831211 -7.232616 3.793568
v 5.548598 -4.124193 6.283350
v 5.775408 -4.542653 3.188633
v 5.744470 -6.388256 2.660880
v 5.743425 -2.770299 5.267763
v 7.980379 -1.116745 4.213839
v 7.148415 -3.111078 3.302348
v 8.206573 -1.305371 2.636909
v 7.724622 -0.216899 5.211959
v 5.208258 -4.766559 1.444181
v 4.979032 -7.213497 1.349042
v 4.856126 -3.908257 0.156906
v 3.451136 -5.623780 0.311941
v 5.899103 -1.268110 0.015414
v 6.816856 -2.997132 0.811409
v 5.252941 1.575250 -0.030865
v 7.509640 -0.876674 0.708085
v 7.120447 0.984232 0.457553
v 4.381571 -9.148417 2.504432
v 4.074381 -7.520586 0.518170
v -2.747189 1.048343 9.582287
v -1.497237 -1.330992 8.423772
v -0.539615 1.747091 8.502079
v -2.738816 -0.499853 9.363750
v -2.805309 -1.408504 8.355553
v -0.348871 -0.001306 7.584640
v -2.756391 0.579507 4.406675
v -2.887197 4.374531 8.107392
v -2.794776 5.113333 7.254288
v -2.936422 5.125196 6.260414
v -1.462760 4.102059 7.878507
v -2.874916 1.378649 7.686727
v -2.820313 2.911083 6.409234
v -2.779703 2.964570 9.340642
v -1.829861 7.691288 6.965333
v 0.127532 5.241985 7.759357
v 0.907299 2.416452 7.723828
v 2.288243 4.375037 7.000011
v 2.537728 6.714604 6.211411
v 0.426894 7.050506 6.960259
v 3.595315 5.477556 5.717451
v 1.433206 2.694969 7.167462
v 2.787400 2.845430 7.203496
v 1.419778 1.378710 7.162471
v 3.435727 -0.195592 7.105107
v 4.890079 2.786724 7.186156
v 1.938484 0.898202 7.187438
v 0.367613 -0.684961 7.229167
v 5.670182 -1.174668 6.164053
v 4.953216 0.699756 7.169441
v 6.436266 0.631098 6.462161
v 7.204198 2.166639 5.649438
v 6.856412 4.477276 4.877858
v 8.415030 1.004429 3.168357
v 7.977428 1.358078 1.725991
v 7.863489 2.967771 2.799154
v -2.934793 8.366775 5.674859
v -2.955667 7.286715 6.780062
v 2.802776 8.517420 4.469410
v 0.411135 8.805898 5.681807
v -2.257801 9.452451 3.858600
v -2.682512 9.146480 4.403733
v -0.492314 9.651313 1.911965
v 0.272040 9.700176 3.774999
v -2.653123 8.818060 1.624130
v 2.029257 9.338429 2.746935
v 2.808666 8.514351 1.357730
v 1.111685 8.464976 0.367595
v -2.515815 7.668484 0.510103
v 4.728497 5.888608 4.092749
v 4.041769 7.892201 2.836847
v 4.804218 6.450244 1.048649
v 0.390024 3.635187 0.055575
v 0.675216 6.219616 0.035417
v 4.302045 3.738990 0.281416
v 3.457073 6.460555 0.149025
v 5.357259 4.682435 1.690965
v 5.368104 5.453620 2.881571
v 6.406675 4.001386 1.329399
v 7.023948 2.702105 0.821693
v 3.244488 2.130627 0.223574
v -2.874373 4.686114 4.506648
v -2.753849 2.684501 3.317189
v -2.445775 5.435773 1.543484
v -2.371945 1.830428 1.051393
v -1.583503 2.491816 0.110132
v -2.774218 7.678574 5.118193
v -2.644878 8.070485 2.909672
v -2.710532 5.840917 0.183268
v -2.490033 3.578533 0.471681
vt 0.732810 0.951260
vt 0.698377 0.918529
vt 0.739071 0.862407
vt 0.800273 0.926692
vt 0.658831 0.887976
vt 0.831244 0.821912
vt 0.644605 0.810984
vt 0.804796 0.191275
vt 0.742540 0.124127
vt 0.810497 0.145283
vt 0.640916 0.075342
vt 0.652704 0.157798
vt 0.738661 0.286764
vt 0.798370 0.238835
vt 0.792124 0.290620
vt 0.779140 0.352172
vt 0.899443 0.905932
vt 0.845017 0.966744
vt 0.728292 0.782370
vt 0.726847 0.700336
vt 0.817723 0.725025
vt 0.711062 0.599170
vt 0.801966 0.671135
vt 0.021589 0.536811
vt 0.008063 0.423896
vt 0.037701 0.458426
vt 0.658208 0.640662
vt 0.078040 0.423368
vt 0.061130 0.522756
vt 0.125100 0.545505
vt 0.131641 0.403537
vt 0.205475 0.441766
vt 0.236042 0.494480
vt 0.025471 0.622563
vt 0.046995 0.633826
vt 0.893268 0.726469
vt 0.166144 0.586898
vt 0.679760 0.526951
vt 0.658973 0.551467
vt 0.633735 0.522260
vt 0.906444 0.812769
vt 0.944298 0.763829
vt 0.960616 0.798296
vt 0.037692 0.712930
vt 0.090319 0.765434
vt 0.043953 0.758895
vt 0.105144 0.728650
vt 0.745398 0.389956
vt 0.730415 0.450710
vt 0.682390 0.397571
vt 0.698437 0.490988
vt 0.707352 0.250558
vt 0.644303 0.247031
vt 0.588818 0.359699
vt 0.592036 0.273752
vt 0.585869 0.182780
vt 0.515395 0.252671
vt 0.511015 0.315295
vt 0.531498 0.415771
vt 0.596746 0.453271
vt 0.590678 0.504263
vt 0.553467 0.472680
vt 0.551778 0.488598
vt 0.484534 0.451915
vt 0.195421 0.760226
vt 0.166831 0.695491
vt 0.580417 0.097638
vt 0.454743 0.300395
vt 0.501544 0.181211
vt 0.405895 0.222681
vt 0.410045 0.295119
vt 0.464163 0.140009
vt 0.380612 0.079042
vt 0.383035 0.155726
vt 0.335107 0.100091
vt 0.406250 0.048787
vt 0.362013 0.234098
vt 0.373830 0.278228
vt 0.276560 0.558316
vt 0.314767 0.597153
vt 0.226479 0.618432
vt 0.307252 0.474928
vt 0.346976 0.529400
vt 0.285025 0.384375
vt 0.366031 0.462203
vt 0.348366 0.402125
vt 0.318249 0.174620
vt 0.468553 0.392090
vt 0.245039 0.685442
vt 0.275672 0.736387
vt 0.413596 0.346760
vt 0.288236 0.675766
vt 0.808673 0.029756
vt 0.790756 0.071431
vt 0.776330 0.023136
vt 0.835652 0.033412
vt 0.829126 0.096870
vt 0.727226 0.038690
vt 0.619349 0.713794
vt 0.441806 0.761499
vt 0.428198 0.718849
vt 0.450234 0.691426
vt 0.147197 0.987678
vt 0.147661 0.940231
vt 0.192045 0.983044
vt 0.536199 0.797277
vt 0.515610 0.729450
vt 0.088158 0.986827
vt 0.599935 0.874291
vt 0.511869 0.857129
vt 0.273722 0.955992
vt 0.195202 0.876843
vt 0.110690 0.838541
vt 0.201436 0.798867
vt 0.275400 0.802615
vt 0.259445 0.878334
vt 0.285290 0.756402
vt 0.137603 0.814673
vt 0.806785 0.384117
vt 0.867260 0.390355
vt 0.772679 0.454405
vt 0.073277 0.898417
vt 0.050701 0.867168
vt 0.855604 0.346174
vt 0.898100 0.339451
vt 0.062765 0.810175
vt 0.096936 0.808465
vt 0.934398 0.390425
vt 0.888589 0.452452
vt 0.571351 0.040802
vt 0.625556 0.011256
vt 0.655270 0.022432
vt 0.695737 0.062454
vt 0.482607 0.074140
vt 0.955932 0.444292
vt 0.962343 0.498432
vt 0.517728 0.013219
vt 0.462902 0.028045
vt 0.913991 0.537709
vt 0.834205 0.545701
vt 0.321814 0.052039
vt 0.355758 0.055713
vt 0.284269 0.071876
vt 0.863044 0.629963
vt 0.392902 0.396413
vt 0.322182 0.991061
vt 0.265022 0.991037
vt 0.358002 0.808305
vt 0.327426 0.887709
vt 0.393130 0.951782
vt 0.368172 0.985187
vt 0.125505 0.076813
vt 0.080399 0.033152
vt 0.135677 0.041214
vt 0.050701 0.083212
vt 0.395296 0.894166
vt 0.211651 0.084064
vt 0.224751 0.136315
vt 0.159100 0.147288
vt 0.042916 0.145606
vt 0.338642 0.744944
vt 0.419285 0.831339
vt 0.264571 0.122981
vt 0.278246 0.207977
vt 0.120072 0.296465
vt 0.136167 0.216767
vt 0.249032 0.300080
vt 0.225673 0.215208
vt 0.313363 0.262136
vt 0.306422 0.203638
vt 0.289315 0.166814
vt 0.782106 0.614452
vt 0.834049 0.655479
vt 0.352457 0.344266
vt 0.214329 0.354481
vt 0.500331 0.643075
vt 0.578967 0.639502
vt 0.523932 0.540814
vt 0.651263 0.588326
vt 0.016832 0.344153
vt 0.054170 0.328852
vt 0.375209 0.671248
vt 0.399202 0.615889
vt 0.364813 0.613097
vt 0.367983 0.560260
vt 0.421141 0.544128
vt 0.418475 0.497218
vt 0.470830 0.483156
vt 0.389967 0.521051
vt 0.028136 0.215184
vt 0.527036 0.492003
vt 0.589329 0.537532
vt 0.766965 0.967363
vt 0.950028 0.882172
vt 0.952434 0.845530
vt 0.900296 0.955464
vt 0.935960 0.920874
vt 0.065407 0.778722
vt 0.289613 0.107585
vt 0.553345 0.885056
vt 0.462600 0.824737
vt 0.027081 0.966756
vt 0.045279 0.834216
vt 0.919792 0.344568
vt 0.748380 0.520756
vt 0.971519 0.577772
vt 0.934115 0.631538
vt 0.383843 0.345392
vt 0.901552 0.673713
vt 0.414831 0.777496
vt 0.398431 0.748814
vt 0.748129 0.570699
vt 0.690568 0.543335
vt 0.759258 0.598178
vt 0.342333 0.295323
vt 0.019042 0.297788
vn -0.4573 0.0540 0.8877
vn -0.5841 0.0967 0.8059
vn -0.9984 -0.0364 -0.0436
vn -0.9994 -0.0327 -0.0065
vn -0.7914 -0.0332 0.6104
vn -0.9900 -0.0267 -0.1388
vn -0.9996 -0.0158 -0.0236
vn 0.1331 -0.1840 0.9739
vn -0.0447 0.2759 0.9601
vn -0.1647 -0.0172 0.9862
vn 0.4337 -0.3269 0.8397
vn -0.6270 -0.2509 0.7375
vn -0.5682 -0.5282 0.6310
vn -0.9952 -0.0975 -0.0111
vn -0.9933 -0.0397 -0.1087
vn -0.9957 -0.0346 -0.0864
vn -0.9982 -0.0502 0.0333
vn -0.5136 0.2816 -0.8105
vn -0.7939 -0.0573 -0.6054
vn 0.2824 -0.1075 -0.9533
vn -0.9945 -0.0277 -0.1006
vn -0.0290 -0.0125 -0.9995
vn -0.0058 -0.0338 -0.9994
vn -0.0916 0.0649 -0.9937
vn -0.1306 -0.0452 -0.9904
vn -0.0008 -0.0376 -0.9993
vn -0.0146 -0.0525 -0.9985
vn -0.9466 0.0329 -0.3207
vn -0.3523 0.0452 -0.9348
vn 0.0125 0.0242 -0.9996
vn -0.8883 -0.4588 -0.0208
vn -0.8251 -0.4308 -0.3656
vn -0.3401 -0.9197 -0.1963
vn -0.9995 0.0301 0.0106
vn -0.7934 -0.1419 -0.5920
vn -0.2250 -0.7224 -0.6538
vn -0.0703 -0.2978 -0.9520
vn -0.1513 -0.8076 0.5700
vn -0.4594 -0.8836 0.0910
vn 0.1011 -0.8129 0.5735
vn -0.6777 -0.7299 -0.0896
vn -0.0666 -0.2160 0.9741
vn -0.1450 -0.3496 0.9256
vn 0.1083 -0.8100 0.5764
vn 0.2730 -0.4959 0.8243
vn 0.3968 -0.0800 0.9144
vn 0.7766 -0.2863 0.5612
vn 0.6707 -0.6419 0.3716
vn 0.3747 -0.9268 0.0266
vn -0.0942 -0.9889 0.1148
vn 0.1053 -0.9469 -0.3039
vn 0.2684 -0.6774 -0.6849
vn 0.0861 -0.1616 -0.9831
vn 0.5242 0.2374 0.8178
vn 0.9502 -0.3116 0.0015
vn 0.8707 0.0269 0.4911
vn 0.9508 -0.3098 0.0011
vn 0.9536 -0.1064 -0.2817
vn 0.8280 -0.1627 0.5367
vn 0.8905 -0.2615 0.3723
vn 0.7646 -0.6030 0.2277
vn 0.9588 -0.2700 -0.0880
vn 0.7948 -0.2053 0.5710
vn 0.7614 -0.4024 -0.5084
vn 0.7794 -0.2490 -0.5749
vn 0.2881 -0.3089 -0.9064
vn 0.2761 -0.0891 -0.9570
vn 0.1743 -0.0793 -0.9815
vn 0.6790 -0.4727 -0.5618
vn 0.1279 0.1322 -0.9829
vn 0.7320 -0.1209 -0.6705
vn 0.5632 0.1114 -0.8188
vn 0.6757 -0.6996 -0.2324
vn 0.5132 -0.2389 -0.8243
vn -0.4585 -0.0464 0.8875
vn 0.4641 -0.4658 0.7535
vn 0.5119 0.0133 0.8590
vn -0.4210 -0.3046 0.8544
vn -0.7473 -0.4251 0.5108
vn 0.5250 -0.2701 0.8071
vn -0.9974 -0.0263 -0.0676
vn -0.6187 0.5363 0.5741
vn -0.7108 0.3633 0.6024
vn -0.9982 0.0458 0.0397
vn 0.1552 0.3997 0.9034
vn -0.9999 0.0003 0.0110
vn -0.9997 -0.0211 -0.0116
vn -0.4587 0.3358 0.8227
vn -0.1224 0.5594 0.8198
vn 0.1488 0.2096 0.9664
vn 0.4983 -0.0380 0.8662
vn 0.4345 0.1899 0.8804
vn 0.5330 0.4063 0.7422
vn 0.2547 0.4584 0.8515
vn 0.5281 0.4539 0.7177
vn 0.4670 -0.1211 0.8759
vn 0.0562 0.1542 0.9864
vn 0.2224 0.0076 0.9749
vn 0.3202 0.1084 0.9411
vn 0.2755 0.2703 0.9225
vn 0.1942 0.2240 0.9550
vn -0.1507 0.0528 0.9872
vn 0.3813 -0.4368 0.8147
vn 0.2232 -0.1513 0.9630
vn 0.5501 -0.1106 0.8278
vn 0.7767 0.2104 0.5937
vn 0.7042 0.6148 0.3551
vn 0.9941 0.0943 0.0536
vn 0.9012 0.1463 -0.4079
vn 0.8902 0.4461 -0.0923
vn -0.7929 0.5426 0.2772
vn -0.8035 0.2442 0.5429
vn 0.5567 0.7095 0.4321
vn 0.1690 0.7791 0.6037
vn -0.4753 0.8761 0.0813
vn -0.6966 0.6975 0.1681
vn -0.0684 0.9252 -0.3733
vn 0.1006 0.9734 0.2058
vn -0.7607 0.5433 -0.3551
vn 0.3789 0.9232 -0.0643
vn 0.4725 0.7542 -0.4559
vn 0.1027 0.5770 -0.8102
vn -0.6793 0.2988 -0.6703
vn 0.6636 0.6563 0.3591
vn 0.7513 0.6568 0.0650
vn 0.7803 0.3925 -0.4869
vn -0.0098 -0.0230 -0.9997
vn -0.0098 0.0719 -0.9974
vn 0.2674 0.1632 -0.9497
vn 0.3170 0.2543 -0.9137
vn 0.6247 0.5373 -0.5666
vn 0.7829 0.6181 -0.0709
vn 0.5253 0.6313 -0.5705
vn 0.5715 0.3873 -0.7234
vn -0.0339 0.0505 -0.9981
vn -0.9976 -0.0027 -0.0690
vn -0.9958 -0.0255 -0.0884
vn -1.0000 -0.0004 -0.0012
vn -0.8675 -0.0978 -0.4878
vn -0.3305 -0.1376 -0.9337
vn -0.9952 -0.0143 -0.0972
vn -0.9962 0.0772 -0.0401
vn -0.7816 0.0397 -0.6225
vn -0.7681 -0.0702 -0.6365
s 1
f 1/1/1 2/2/2 3/3/3
f 1/1/1 3/3/3 4/4/4
f 2/2/2 5/5/5 3/3/3
f 4/4/4 3/3/3 6/6/6
f 5/5/5 7/7/7 3/3/3
f 2/8/2 8/9/8 5/10/5
f 9/11/9 8/9/8 10/12/10
f 11/13/11 2/8/2 1/14/1
f 12/15/12 11/13/11 1/14/1
f 13/16/13 11/13/11 12/15/12
f 4/4/4 14/17/14 13/18/13
f 15/19/15 3/3/3 7/7/7
f 16/20/16 17/21/17 15/19/15
f 18/22/18 19/23/19 16/20/16
f 19/24/19 18/25/18 20/26/20
f 21/27/21 18/22/18 16/20/16
f 16/20/16 19/23/19 17/21/17
f 20/26/20 22/28/22 23/29/23
f 24/30/24 22/28/22 25/31/25
f 25/31/25 26/32/26 24/30/24
f 24/30/24 26/32/26 27/33/27
f 28/34/28 19/24/19 29/35/29
f 28/36/28 17/21/17 19/23/19
f 19/24/19 23/29/23 29/35/29
f 23/29/23 24/30/24 29/35/29
f 29/35/29 24/30/24 30/37/30
f 31/38/31 32/39/32 33/40/33
f 34/41/34 28/36/28 35/42/35
f 34/41/34 35/42/35 32/43/32
f 35/44/35 36/45/36 32/46/32
f 36/45/36 35/44/35 37/47/37
f 38/48/38 39/49/39 40/50/40
f 40/50/40 39/49/39 41/51/41
f 42/52/42 11/13/11 40/50/40
f 42/52/42 40/50/40 43/53/43
f 43/53/43 44/54/44 45/55/45
f 40/50/40 44/54/44 43/53/43
f 46/56/46 10/12/10 43/53/43
f 47/57/47 45/55/45 48/58/48
f 45/55/45 44/54/44 48/58/48
f 44/54/44 49/59/49 48/58/48
f 50/60/50 36/61/36 51/62/51
f 50/60/50 33/40/33 36/61/36
f 36/61/36 52/63/52 51/62/51
f 49/59/49 50/60/50 51/62/51
f 52/64/52 49/59/49 51/62/51
f 36/45/36 37/47/37 52/65/52
f 53/66/53 52/65/52 37/47/37
f 46/56/46 54/67/54 10/12/10
f 47/57/47 48/58/48 55/68/55
f 56/69/56 55/68/55 57/70/57
f 58/71/58 57/70/57 55/68/55
f 56/69/56 59/72/59 54/67/54
f 57/70/57 59/72/59 56/69/56
f 60/73/60 61/74/61 62/75/62
f 61/74/61 60/73/60 63/76/63
f 58/71/58 64/77/64 57/70/57
f 65/78/65 64/77/64 58/71/58
f 30/37/30 27/33/27 66/79/66
f 66/79/66 64/80/64 67/81/67
f 68/82/68 69/83/69 66/79/66
f 68/82/68 66/79/66 27/33/27
f 68/82/68 27/33/27 70/84/70
f 71/85/71 68/82/68 72/86/72
f 64/80/64 66/79/66 69/83/69
f 61/74/61 64/77/64 69/87/69
f 73/88/73 55/68/55 48/58/48
f 49/59/49 52/64/52 73/88/73
f 52/65/52 74/89/74 73/90/73
f 73/88/73 65/91/65 55/68/55
f 55/68/55 65/91/65 58/71/58
f 53/66/53 30/37/30 67/81/67
f 52/65/52 53/66/53 74/89/74
f 74/89/74 67/81/67 65/92/65
f 75/93/75 76/94/76 77/95/77
f 76/94/76 78/96/78 79/97/79
f 78/96/78 76/94/76 75/93/75
f 76/94/76 79/97/79 5/10/5
f 77/95/77 76/94/76 80/98/80
f 76/94/76 5/10/5 8/9/8
f 7/7/7 81/99/81 15/19/15
f 15/19/15 81/99/81 16/20/16
f 82/100/82 83/101/83 84/102/84
f 82/103/82 85/104/85 83/105/83
f 86/106/86 81/99/81 7/7/7
f 87/107/87 81/99/81 86/106/86
f 85/104/85 82/103/82 88/108/88
f 86/106/86 79/109/79 75/110/75
f 89/111/89 83/105/83 90/112/90
f 83/105/83 85/104/85 90/112/90
f 91/113/91 90/112/90 85/104/85
f 92/114/92 93/115/93 90/112/90
f 90/112/90 93/115/93 94/116/94
f 95/117/95 93/115/93 92/114/92
f 90/112/90 91/113/91 92/114/92
f 96/118/96 92/114/92 91/113/91
f 92/119/92 97/120/97 95/121/95
f 77/122/77 80/123/80 91/113/91
f 97/120/97 96/124/96 98/125/98
f 98/126/98 96/127/96 91/113/91
f 99/128/99 100/129/100 97/120/97
f 9/11/9 99/130/99 101/131/101
f 9/11/9 101/131/101 98/132/98
f 8/9/8 9/11/9 102/133/102
f 10/12/10 54/67/54 9/11/9
f 54/67/54 59/72/59 99/130/99
f 59/72/59 103/134/103 99/130/99
f 104/135/104 105/136/105 100/129/100
f 104/137/104 103/134/103 105/138/105
f 63/76/63 105/138/105 103/134/103
f 100/129/100 95/121/95 97/120/97
f 106/139/106 107/140/107 100/129/100
f 95/121/95 100/129/100 107/140/107
f 62/75/62 108/141/108 63/142/63
f 62/75/62 109/143/109 108/141/108
f 62/75/62 63/142/63 60/73/60
f 110/144/110 107/140/107 106/139/106
f 71/85/71 72/86/72 109/145/109
f 111/146/111 112/147/112 89/111/89
f 93/115/93 113/148/113 114/149/114
f 94/116/94 93/115/93 114/149/114
f 114/149/114 115/150/115 89/111/89
f 115/150/115 116/151/116 89/111/89
f 116/151/116 111/146/111 89/111/89
f 117/152/117 115/153/115 118/154/118
f 117/152/117 119/155/119 115/153/115
f 114/149/114 113/148/113 118/156/118
f 118/154/118 120/157/120 117/152/117
f 117/152/117 121/158/121 122/159/122
f 123/160/123 117/152/117 122/159/122
f 113/148/113 93/115/93 124/161/124
f 95/117/95 124/161/124 93/115/93
f 113/148/113 120/162/120 118/156/118
f 125/163/125 126/164/126 121/158/121
f 125/163/125 121/158/121 120/157/120
f 127/165/127 128/166/128 129/167/129
f 128/166/128 130/168/130 129/167/129
f 129/167/129 130/168/130 126/164/126
f 131/169/131 126/164/126 132/170/132
f 129/167/129 126/164/126 131/169/131
f 121/158/121 126/164/126 130/168/130
f 132/170/132 126/164/126 125/171/125
f 133/172/133 110/144/110 134/173/134
f 72/86/72 70/84/70 134/174/134
f 127/165/127 129/167/129 135/175/135
f 25/31/25 135/175/135 26/32/26
f 27/33/27 26/32/26 70/84/70
f 26/32/26 135/175/135 70/84/70
f 87/107/87 136/176/136 137/177/137
f 136/176/136 138/178/138 137/177/137
f 137/177/137 21/27/21 81/99/81
f 81/99/81 21/27/21 16/20/16
f 21/27/21 137/177/137 139/179/139
f 22/28/22 139/180/139 140/181/140
f 21/27/21 139/179/139 18/22/18
f 22/28/22 20/26/20 18/25/18
f 25/31/25 140/181/140 127/165/127
f 25/31/25 127/165/127 135/175/135
f 84/102/84 136/176/136 87/107/87
f 83/101/83 112/182/112 141/183/141
f 84/102/84 83/101/83 141/183/141
f 112/182/112 111/184/111 141/183/141
f 116/185/116 142/186/142 141/183/141
f 111/184/111 116/185/116 141/183/141
f 119/187/119 123/188/123 142/186/142
f 123/188/123 138/178/138 142/186/142
f 115/189/115 119/187/119 142/186/142
f 143/190/143 123/160/123 128/166/128
f 128/166/128 123/160/123 122/159/122
f 138/178/138 143/191/143 144/192/144
f 142/186/142 138/178/138 136/176/136
f 12/193/12 1/1/1 4/4/4
f 79/109/79 7/7/7 5/5/5
f 42/52/42 10/12/10 8/9/8
f 8/9/8 2/8/2 42/52/42
f 42/52/42 2/8/2 11/13/11
f 43/53/43 10/12/10 42/52/42
f 41/194/41 14/17/14 34/41/34
f 41/194/41 34/41/34 31/195/31
f 14/17/14 6/6/6 34/41/34
f 12/193/12 4/4/4 13/18/13
f 11/13/11 13/16/13 38/48/38
f 4/4/4 6/6/6 14/17/14
f 13/18/13 14/17/14 38/196/38
f 15/19/15 17/21/17 6/6/6
f 19/24/19 20/26/20 23/29/23
f 23/29/23 22/28/22 24/30/24
f 30/37/30 24/30/24 27/33/27
f 3/3/3 15/19/15 6/6/6
f 32/43/32 31/195/31 34/41/34
f 6/6/6 17/21/17 34/41/34
f 34/41/34 17/21/17 28/36/28
f 29/35/29 30/37/30 53/66/53
f 35/44/35 28/34/28 29/35/29
f 29/35/29 53/66/53 37/47/37
f 29/35/29 37/47/37 35/44/35
f 38/196/38 14/17/14 39/197/39
f 14/17/14 41/194/41 39/197/39
f 38/48/38 40/50/40 11/13/11
f 31/38/31 50/60/50 41/51/41
f 45/55/45 46/56/46 43/53/43
f 48/58/48 49/59/49 73/88/73
f 44/54/44 40/50/40 50/60/50
f 44/54/44 50/60/50 49/59/49
f 41/51/41 50/60/50 40/50/40
f 50/60/50 31/38/31 33/40/33
f 32/46/32 36/45/36 33/198/33
f 56/69/56 54/67/54 46/56/46
f 47/57/47 46/56/46 45/55/45
f 46/56/46 47/57/47 56/69/56
f 55/68/55 56/69/56 47/57/47
f 103/134/103 59/72/59 61/74/61
f 61/74/61 63/76/63 103/134/103
f 61/74/61 59/72/59 57/70/57
f 61/74/61 69/87/69 62/75/62
f 62/75/62 69/87/69 71/199/71
f 65/92/65 67/81/67 64/80/64
f 57/70/57 64/77/64 61/74/61
f 67/81/67 30/37/30 66/79/66
f 70/84/70 72/86/72 68/82/68
f 68/82/68 71/85/71 69/83/69
f 74/89/74 65/92/65 73/90/73
f 53/66/53 67/81/67 74/89/74
f 75/110/75 79/109/79 78/200/78
f 76/94/76 8/9/8 80/98/80
f 80/98/80 8/9/8 102/133/102
f 7/7/7 79/109/79 86/106/86
f 82/100/82 87/107/87 88/201/88
f 87/107/87 82/100/82 84/102/84
f 88/201/88 86/106/86 75/110/75
f 85/104/85 88/108/88 77/122/77
f 75/202/75 77/122/77 88/108/88
f 86/106/86 88/201/88 87/107/87
f 90/112/90 94/116/94 89/111/89
f 91/113/91 85/104/85 77/122/77
f 96/124/96 97/120/97 92/119/92
f 98/132/98 102/133/102 9/11/9
f 102/203/102 98/126/98 91/113/91
f 98/125/98 101/204/101 97/120/97
f 80/123/80 102/203/102 91/113/91
f 101/204/101 99/128/99 97/120/97
f 54/67/54 99/130/99 9/11/9
f 99/128/99 104/135/104 100/129/100
f 104/137/104 99/130/99 103/134/103
f 106/139/106 100/129/100 105/136/105
f 95/121/95 107/140/107 124/205/124
f 63/206/63 108/207/108 106/139/106
f 105/136/105 63/206/63 106/139/106
f 107/140/107 110/144/110 133/172/133
f 106/139/106 108/207/108 110/144/110
f 109/145/109 134/174/134 110/208/110
f 109/143/109 62/75/62 71/199/71
f 108/207/108 109/209/109 110/144/110
f 109/145/109 72/86/72 134/174/134
f 114/149/114 89/111/89 94/116/94
f 114/149/114 118/156/118 115/150/115
f 117/152/117 123/160/123 119/155/119
f 117/152/117 120/157/120 121/158/121
f 113/148/113 125/210/125 120/162/120
f 124/161/124 125/211/125 113/148/113
f 132/212/132 125/213/125 124/205/124
f 107/140/107 132/212/132 124/205/124
f 131/214/131 132/212/132 133/172/133
f 107/140/107 133/172/133 132/212/132
f 128/166/128 122/159/122 130/168/130
f 130/168/130 122/159/122 121/158/121
f 129/167/129 131/169/131 133/215/133
f 129/167/129 133/215/133 70/84/70
f 134/174/134 70/84/70 133/215/133
f 129/167/129 70/84/70 135/175/135
f 87/107/87 137/177/137 81/99/81
f 137/177/137 138/178/138 144/192/144
f 140/181/140 139/180/139 144/216/144
f 144/192/144 139/179/139 137/177/137
f 140/181/140 144/216/144 127/165/127
f 143/190/143 127/165/127 144/216/144
f 139/180/139 22/28/22 18/25/18
f 22/28/22 140/181/140 25/31/25
f 89/111/89 112/147/112 83/105/83
f 84/102/84 141/183/141 136/176/136
f 142/186/142 116/185/116 115/189/115
f 123/188/123 143/191/143 138/178/138
f 143/190/143 128/166/128 127/165/127
f 141/183/141 142/186/142 136/176/136
