# www.textures.com
v -0.822159 0.590009 4.341833
v -0.229276 0.950636 4.646395
v -0.373557 1.170765 4.097055
v -0.416941 0.541903 4.791951
v 0.156599 1.349758 4.073606
v 0.182031 1.080183 4.485395
v -1.073598 0.045805 4.188090
v -0.689365 0.291006 4.626879
v -0.758690 -0.092694 4.677628
v -0.355012 -0.131573 4.885170
v 0.035629 0.323115 5.021753
v 0.152627 0.775600 4.837628
v 0.061563 -0.318276 5.030714
v -0.957432 0.843536 3.913246
v -1.241748 0.299386 3.786760
v -0.639458 -0.631416 4.503431
v -0.451437 -0.465079 4.735585
v -0.036186 1.462555 3.712987
v -0.485336 1.315885 3.507533
v -1.107494 0.780305 3.451643
v -0.440452 1.192802 3.040094
v 0.334104 1.473642 3.293343
v -0.038152 1.397650 3.091864
v -1.121041 -0.218160 3.057821
v -1.117011 0.392433 3.089116
v -0.826940 0.877148 2.990044
v -1.205340 -0.438405 3.639216
v -0.554929 -1.040602 4.014992
v -0.315624 -1.067599 4.235565
v -0.962672 -0.656680 4.044995
v -0.698468 -1.113467 3.556322
v 0.080246 -0.828005 4.708053
v -0.035020 -1.377825 3.744793
v 0.329937 -1.140001 4.255031
v -0.313017 -1.326408 3.811981
v -0.392603 -1.255260 3.559213
v -1.016567 -0.725803 3.374089
v 0.438573 -1.345155 3.459221
v 0.062379 -1.353953 3.103278
v -0.642824 -0.758183 2.683819
v -0.770293 -0.841412 3.096159
v -0.476562 -1.141895 3.101882
v -0.316330 -0.996003 2.723820
v -0.298443 -1.317134 2.430019
v 0.193780 -1.169850 2.753227
v 0.775611 0.983894 4.359765
v 0.472802 1.183016 4.562915
v 0.729961 0.739252 4.634856
v 0.455862 1.178033 4.217387
v 0.398587 0.548258 4.970798
v 0.458137 0.170527 5.063601
v 0.844192 0.501056 4.889562
v 1.097634 0.393825 4.525970
v 0.919471 -0.154146 4.781912
v 1.263273 0.003173 4.476673
v 1.295155 0.625456 4.133104
v 1.471705 -0.000853 4.091300
v 0.940270 1.191257 4.001741
v 1.593897 0.367073 3.686823
v 0.572223 -0.244956 5.014150
v 1.561410 -0.178551 3.847364
v 0.551389 1.359929 3.857774
v 0.734071 1.405708 3.588822
v 1.137628 1.156409 3.416514
v 0.937987 1.125322 3.012799
v 1.342693 0.823677 3.792666
v 1.606353 0.452731 3.240047
v 1.373134 0.669654 2.987484
v 1.620372 -0.029949 3.289055
v 1.426053 0.010637 2.902692
v 1.403333 0.268701 2.791538
v 0.713689 -0.643522 4.718701
v 1.227147 -0.762834 3.940052
v 1.337469 -0.404034 4.184073
v 0.768788 -0.855236 4.434309
v 0.768284 -1.101014 4.038407
v 1.543435 -0.514152 3.534380
v 1.109937 -1.092877 3.499298
v 1.324036 -0.813467 3.133106
v 1.241670 -0.837499 2.693795
v 1.356054 -0.393355 2.821652
v 1.513490 -0.470715 3.130216
v 0.986790 -1.073052 2.988903
v 1.005854 -0.938906 2.795325
v 0.829745 -1.075339 2.754258
v 0.548394 -1.503181 2.332325
v 0.206316 1.226740 2.760580
v -0.905888 0.269269 2.701074
v -0.376492 0.993215 2.669424
v -1.150090 -0.299558 2.322394
v -0.832243 -1.009261 2.198755
v -0.502013 -1.068416 2.546156
v -0.060901 -1.480999 2.299299
v -1.081712 0.615965 2.083023
v -1.087270 0.132112 2.376549
v -0.728460 1.123006 2.212080
v -0.964655 0.966407 1.297579
v -1.266615 -0.274092 1.666934
v -0.089451 1.482359 2.243384
v 0.388450 1.542838 1.978215
v 0.554253 1.270211 1.034123
v -0.953798 0.071585 0.983883
v -0.342128 0.867679 0.772014
v -0.530357 -1.053059 1.380479
v -0.822561 -0.490791 0.904240
v -0.441208 -1.382639 1.779641
v -0.591023 -1.215039 2.087918
v -0.117940 -1.528583 1.935614
v 0.361183 -1.517158 1.490533
v -0.094188 -1.088696 0.974199
v -0.380752 -0.110298 0.356618
v 0.275975 0.947890 0.484127
v 0.123342 0.286742 0.063544
v 0.168369 -0.677838 0.335846
v 0.512566 -0.947598 0.775210
v 0.032209 -0.934750 0.746598
v 0.234050 -0.369669 0.112415
v 0.714248 1.078486 2.737943
v 1.401860 0.620024 2.640901
v 1.206820 0.827925 2.660371
v 1.317868 -1.262106 2.078372
v 1.620196 -0.364870 2.610652
v 0.568256 1.402455 2.461909
v 1.096803 1.175278 2.426870
v 0.847435 1.439341 1.812279
v 1.397000 0.968462 2.266766
v 1.742463 0.563383 2.191881
v 1.443348 1.102177 1.706782
v 1.781909 -0.148909 2.365407
v 1.872446 0.132414 1.901429
v 0.995725 1.262610 1.497298
v 0.840590 0.874942 0.712569
v 1.566853 0.550845 1.410647
v 1.150982 0.586349 0.878970
v 0.486868 0.226689 0.027214
v 0.772757 0.118519 0.250053
v 1.463619 -0.045231 1.181903
v 1.138090 -0.919997 1.095567
v 0.908220 -0.177941 0.569963
v 1.812866 -0.582586 1.806814
vt 0.753371 0.680231
vt 0.710203 0.601583
vt 0.786075 0.591991
vt 0.683259 0.653884
vt 0.782762 0.522951
vt 0.712835 0.540588
vt 0.757481 0.754535
vt 0.700991 0.700959
vt 0.684704 0.744601
vt 0.630253 0.726960
vt 0.615237 0.639586
vt 0.655652 0.581662
vt 0.368619 0.582958
vt 0.435823 0.605750
vt 0.409527 0.632839
vt 0.813734 0.669563
vt 0.816649 0.742505
vt 0.673112 0.819936
vt 0.637509 0.784908
vt 0.837344 0.540139
vt 0.865768 0.598038
vt 0.867886 0.694190
vt 0.926910 0.606901
vt 0.890534 0.496983
vt 0.917870 0.546965
vt 0.890586 0.824079
vt 0.907003 0.745673
vt 0.930038 0.674207
vt 0.807378 0.825049
vt 0.712354 0.901612
vt 0.687398 0.893738
vt 0.741869 0.839579
vt 0.779255 0.919707
vt 0.496240 0.641981
vt 0.456916 0.702132
vt 0.528573 0.694184
vt 0.533815 0.742657
vt 0.549239 0.773442
vt 0.527099 0.835785
vt 0.462926 0.778678
vt 0.558802 0.812712
vt 0.719455 0.942452
vt 0.761004 0.956485
vt 0.824325 0.872157
vt 0.478684 0.891788
vt 0.534469 0.925387
vt 0.576256 0.852113
vt 0.907012 0.897989
vt 0.854350 0.912452
vt 0.830880 0.959177
vt 0.882192 0.962313
vt 0.469562 0.031461
vt 0.518074 0.022732
vt 0.460353 0.082560
vt 0.531681 0.975875
vt 0.600008 0.933481
vt 0.599951 0.964556
vt 0.601298 0.913394
vt 0.154114 0.672122
vt 0.149381 0.620926
vt 0.205305 0.649885
vt 0.107441 0.645474
vt 0.143500 0.596815
vt 0.264175 0.595713
vt 0.317855 0.622501
vt 0.214680 0.583145
vt 0.251897 0.655791
vt 0.237141 0.712446
vt 0.318110 0.705458
vt 0.273943 0.749789
vt 0.187175 0.753257
vt 0.251404 0.803359
vt 0.110622 0.718076
vt 0.193463 0.838350
vt 0.354590 0.667076
vt 0.261556 0.846726
vt 0.057108 0.692559
vt 0.045573 0.742161
vt 0.807740 0.469279
vt 0.080065 0.799624
vt 0.035166 0.837563
vt 0.145934 0.787405
vt 0.158915 0.882997
vt 0.104066 0.894229
vt 0.219057 0.910987
vt 0.202944 0.963394
vt 0.137180 0.932997
vt 0.880570 0.455749
vt 0.380772 0.725532
vt 0.348215 0.846915
vt 0.306254 0.805918
vt 0.394759 0.772235
vt 0.418155 0.828535
vt 0.292517 0.898674
vt 0.386498 0.906011
vt 0.336024 0.956309
vt 0.332115 0.995846
vt 0.285134 0.986596
vt 0.277755 0.948359
vt 0.401603 0.970538
vt 0.383118 0.992124
vt 0.461476 0.990380
vt 0.454220 0.177444
vt 0.522857 0.126437
vt 0.968567 0.518765
vt 0.960517 0.761885
vt 0.970085 0.622254
vt 0.318917 0.156718
vt 0.335827 0.064208
vt 0.404636 0.212070
vt 0.260414 0.078452
vt 0.296685 0.026995
vt 0.257944 0.013716
vt 0.536826 0.054957
vt 0.328973 0.271480
vt 0.351248 0.204839
vt 0.355092 0.344378
vt 0.248952 0.328141
vt 0.244217 0.187853
vt 0.422628 0.367355
vt 0.356594 0.433383
vt 0.428089 0.466580
vt 0.314365 0.493738
vt 0.187785 0.490655
vt 0.176333 0.255552
vt 0.168604 0.370337
vt 0.143874 0.102024
vt 0.136053 0.198099
vt 0.180661 0.043120
vt 0.229078 0.047459
vt 0.584257 0.004703
vt 0.617877 0.025573
vt 0.585061 0.050850
vt 0.630909 0.113087
vt 0.689656 0.027495
vt 0.725953 0.081364
vt 0.079089 0.281276
vt 0.119710 0.434882
vt 0.049975 0.364185
vt 0.804277 0.158244
vt 0.729399 0.168205
vt 0.755926 0.112654
vt 0.009467 0.295891
vt 0.034277 0.233106
vt 0.039657 0.175401
vt 0.088767 0.152821
vt 0.969121 0.457223
vt 0.938309 0.446663
vt 0.090761 0.921863
vt 0.048861 0.893387
vt 0.546992 0.217881
vt 0.462783 0.253927
vt 0.489368 0.335308
vt 0.376686 0.515859
vt 0.423423 0.540107
vt 0.358181 0.581510
vt 0.281259 0.549789
vt 0.591414 0.497436
vt 0.518309 0.475565
vt 0.580014 0.436833
vt 0.531859 0.517104
vt 0.586300 0.547925
vt 0.665663 0.481213
vt 0.680251 0.549494
vt 0.480168 0.432291
vt 0.532191 0.361686
vt 0.597065 0.379667
vt 0.536981 0.584067
vt 0.706117 0.498424
vt 0.803875 0.413837
vt 0.232360 0.562519
vt 0.105496 0.506689
vt 0.677026 0.407770
vt 0.759536 0.388657
vt 0.866684 0.279949
vt 0.825176 0.294943
vt 0.687946 0.333218
vt 0.671200 0.227615
vt 0.770593 0.275280
vt 0.838979 0.195504
vt 0.865484 0.233295
vt 0.587554 0.304485
vt 0.010086 0.861574
vt 0.603817 0.600208
vt 0.753698 0.506278
vt 0.447482 0.327738
vt 0.442637 0.216300
vt 0.501328 0.011447
vt 0.325445 0.012220
vt 0.452169 0.394552
vt 0.017761 0.396255
vn -0.7219 0.4180 0.5514
vn -0.3252 0.6972 0.6388
vn -0.4291 0.8025 0.4145
vn -0.4983 0.2784 0.8211
vn -0.0116 0.8956 0.4448
vn -0.0696 0.8050 0.5892
vn -0.8732 -0.0116 0.4872
vn -0.6586 0.2055 0.7239
vn -0.6897 -0.0684 0.7209
vn -0.4353 -0.0586 0.8984
vn -0.2297 0.1939 0.9537
vn 0.0112 0.6049 0.7962
vn -0.1455 -0.3021 0.9421
vn -0.7232 0.5945 0.3515
vn -0.9732 0.1417 0.1811
vn -0.5968 -0.5175 0.6132
vn -0.4407 -0.4236 0.7914
vn -0.1661 0.9715 0.1693
vn -0.4982 0.8671 -0.0021
vn -0.8506 0.5177 -0.0919
vn -0.4603 0.8000 -0.3849
vn 0.1266 0.9736 -0.1898
vn -0.2063 0.9066 -0.3681
vn -0.8928 -0.1787 -0.4136
vn -0.9104 0.1908 -0.3671
vn -0.6716 0.5824 -0.4580
vn -0.9482 -0.3103 0.0677
vn -0.5383 -0.7413 0.4008
vn -0.3331 -0.7996 0.4997
vn -0.7816 -0.4854 0.3918
vn -0.6391 -0.7691 -0.0014
vn -0.0752 -0.6847 0.7249
vn -0.0700 -0.9776 0.1983
vn 0.1246 -0.8679 0.4809
vn -0.2153 -0.8827 0.4178
vn -0.3596 -0.9233 -0.1348
vn -0.8092 -0.5530 -0.1986
vn 0.2330 -0.9723 0.0175
vn -0.0986 -0.9502 -0.2955
vn -0.7918 -0.5927 0.1475
vn -0.7033 -0.6065 -0.3709
vn -0.4951 -0.7941 -0.3525
vn -0.4812 -0.8611 0.1642
vn -0.4122 -0.7791 0.4723
vn -0.0742 -0.9903 0.1175
vn 0.5666 0.6472 0.5100
vn 0.0704 0.7642 0.6411
vn 0.4620 0.5859 0.6658
vn 0.2173 0.9028 0.3712
vn 0.2562 0.4317 0.8649
vn 0.2012 0.0981 0.9746
vn 0.4312 0.4681 0.7713
vn 0.7443 0.3128 0.5900
vn 0.6531 -0.1869 0.7339
vn 0.7789 -0.0105 0.6271
vn 0.7712 0.4033 0.4925
vn 0.8983 0.0155 0.4392
vn 0.5058 0.7551 0.4170
vn 0.9514 0.2181 0.2176
vn 0.3281 -0.2605 0.9080
vn 0.9489 -0.1544 0.2753
vn 0.1754 0.9273 0.3306
vn 0.3255 0.9447 0.0407
vn 0.6599 0.7447 -0.0996
vn 0.4611 0.8175 -0.3449
vn 0.8093 0.5363 0.2395
vn 0.9402 0.2835 -0.1889
vn 0.8365 0.5061 -0.2103
vn 0.9828 -0.0660 -0.1723
vn 0.9957 -0.0118 -0.0921
vn 0.9841 0.1427 0.1062
vn 0.4865 -0.5577 0.6725
vn 0.7096 -0.5955 0.3766
vn 0.7802 -0.3832 0.4944
vn 0.4782 -0.6718 0.5657
vn 0.4144 -0.8349 0.3622
vn 0.9138 -0.3932 0.1015
vn 0.5877 -0.8048 0.0836
vn 0.7908 -0.5874 -0.1720
vn 0.6996 -0.6425 0.3127
vn 0.9307 -0.3117 0.1915
vn 0.9014 -0.2956 -0.3165
vn 0.5141 -0.8173 -0.2601
vn 0.5792 -0.8152 -0.0007
vn 0.4037 -0.8972 0.1789
vn 0.1705 -0.9262 0.3363
vn -0.0382 0.9988 0.0296
vn -0.9760 0.2130 -0.0447
vn -0.5752 0.8160 0.0579
vn -0.8984 -0.1817 0.3998
vn -0.7669 -0.6149 0.1837
vn -0.5350 -0.6094 0.5852
vn -0.2262 -0.9071 0.3551
vn -0.9141 0.3465 0.2107
vn -0.9315 0.1393 0.3359
vn -0.6451 0.6994 0.3078
vn -0.7158 0.5994 -0.3583
vn -0.9696 -0.2044 -0.1345
vn -0.2860 0.9392 0.1900
vn 0.0101 0.9990 -0.0443
vn 0.1238 0.8905 -0.4379
vn -0.8128 0.0864 -0.5761
vn -0.4633 0.6220 -0.6313
vn -0.5997 -0.7004 -0.3869
vn -0.7189 -0.4284 -0.5474
vn -0.5481 -0.8113 -0.2032
vn -0.5632 -0.8054 0.1846
vn -0.2597 -0.9656 -0.0089
vn 0.0670 -0.9345 -0.3497
vn -0.3060 -0.7744 -0.5538
vn -0.6122 -0.0779 -0.7869
vn -0.0146 0.7066 -0.7075
vn -0.2774 0.2933 -0.9149
vn -0.0760 -0.6668 -0.7414
vn 0.2739 -0.6986 -0.6610
vn -0.2168 -0.7732 -0.5959
vn 0.0386 -0.4227 -0.9055
vn 0.3611 0.9189 0.1586
vn 0.8394 0.4189 0.3463
vn 0.6663 0.6990 0.2597
vn 0.6160 -0.7825 0.0904
vn 0.8001 -0.2514 0.5446
vn 0.2341 0.8785 0.4164
vn 0.4996 0.7484 0.4362
vn 0.3365 0.9407 -0.0429
vn 0.6950 0.6288 0.3488
vn 0.8983 0.3747 0.2296
vn 0.7219 0.6701 -0.1726
vn 0.9216 -0.0475 0.3852
vn 0.9843 0.1138 -0.1352
vn 0.4363 0.8192 -0.3723
vn 0.5265 0.5680 -0.6326
vn 0.8464 0.2704 -0.4588
vn 0.7509 0.2664 -0.6043
vn 0.2917 0.2085 -0.9335
vn 0.7116 -0.0677 -0.6993
vn 0.7977 -0.0534 -0.6006
vn 0.5826 -0.5616 -0.5876
vn 0.7016 -0.2756 -0.6571
vn 0.9207 -0.3516 -0.1696
s 1
f 1/1/1 2/2/2 3/3/3
f 4/4/4 2/2/2 1/1/1
f 5/5/5 3/3/3 6/6/6
f 7/7/7 8/8/8 1/1/1
f 9/9/9 8/8/8 7/7/7
f 8/8/8 9/9/9 10/10/10
f 11/11/11 8/8/8 10/10/10
f 12/12/12 4/4/4 11/11/11
f 11/13/11 10/14/10 13/15/13
f 3/3/3 14/16/14 1/1/1
f 1/1/1 15/17/15 7/7/7
f 15/17/15 1/1/1 14/16/14
f 9/9/9 7/7/7 16/18/16
f 6/6/6 3/3/3 2/2/2
f 1/1/1 8/8/8 4/4/4
f 4/4/4 8/8/8 11/11/11
f 9/9/9 17/19/17 10/10/10
f 4/4/4 12/12/12 2/2/2
f 18/20/18 3/3/3 5/5/5
f 3/3/3 19/21/19 14/16/14
f 20/22/20 14/16/14 19/21/19
f 19/21/19 21/23/21 20/22/20
f 22/24/22 23/25/23 18/20/18
f 23/25/23 19/21/19 18/20/18
f 19/21/19 3/3/3 18/20/18
f 21/23/21 19/21/19 23/25/23
f 20/22/20 15/17/15 14/16/14
f 24/26/24 15/17/15 25/27/25
f 25/27/25 15/17/15 20/22/20
f 26/28/26 25/27/25 20/22/20
f 26/28/26 20/22/20 21/23/21
f 15/17/15 27/29/27 7/7/7
f 16/18/16 28/30/28 29/31/29
f 16/18/16 30/32/30 28/30/28
f 28/30/28 30/32/30 31/33/31
f 27/29/27 30/32/30 7/7/7
f 13/15/13 17/34/17 32/35/32
f 32/35/32 17/34/17 16/36/16
f 16/36/16 29/37/29 32/35/32
f 28/38/28 33/39/33 29/37/29
f 34/40/34 29/37/29 33/39/33
f 32/35/32 29/37/29 34/40/34
f 33/39/33 28/38/28 35/41/35
f 35/42/35 31/33/31 36/43/36
f 31/33/31 35/42/35 28/30/28
f 37/44/37 30/32/30 27/29/27
f 38/45/38 33/39/33 39/46/39
f 33/39/33 36/47/36 39/46/39
f 33/39/33 35/41/35 36/47/36
f 24/26/24 40/48/40 41/49/41
f 37/44/37 24/26/24 41/49/41
f 41/49/41 42/50/42 31/33/31
f 41/49/41 31/33/31 37/44/37
f 41/49/41 40/48/40 43/51/43
f 43/52/43 44/53/44 45/54/45
f 45/55/45 42/56/42 43/57/43
f 39/46/39 42/56/42 45/55/45
f 42/50/42 41/49/41 43/51/43
f 24/26/24 37/44/37 27/29/27
f 17/19/17 9/9/9 16/18/16
f 7/7/7 30/32/30 16/18/16
f 13/15/13 10/14/10 17/34/17
f 31/33/31 42/50/42 36/43/36
f 36/47/36 42/58/42 39/46/39
f 27/29/27 15/17/15 24/26/24
f 46/59/46 47/60/47 48/61/48
f 46/59/46 49/62/49 47/60/47
f 47/60/47 6/63/6 48/61/48
f 49/62/49 6/63/6 47/60/47
f 48/61/48 50/64/50 51/65/51
f 12/66/12 50/64/50 48/61/48
f 52/67/52 48/61/48 51/65/51
f 53/68/53 52/67/52 54/69/54
f 53/68/53 54/69/54 55/70/55
f 48/61/48 52/67/52 53/68/53
f 55/70/55 56/71/56 53/68/53
f 56/71/56 46/59/46 48/61/48
f 56/71/56 48/61/48 53/68/53
f 56/71/56 55/70/55 57/72/57
f 58/73/58 49/62/49 46/59/46
f 56/71/56 57/72/57 59/74/59
f 56/71/56 58/73/58 46/59/46
f 51/65/51 60/75/60 54/69/54
f 57/72/57 61/76/61 59/74/59
f 52/67/52 51/65/51 54/69/54
f 62/77/62 58/73/58 63/78/63
f 62/79/62 22/24/22 18/20/18
f 63/78/63 64/80/64 65/81/65
f 56/71/56 59/74/59 66/82/66
f 66/82/66 58/73/58 56/71/56
f 67/83/67 66/82/66 59/74/59
f 67/83/67 64/80/64 66/82/66
f 64/80/64 63/78/63 58/73/58
f 68/84/68 64/80/64 67/83/67
f 67/83/67 59/74/59 69/85/69
f 59/74/59 61/76/61 69/85/69
f 69/85/69 70/86/70 71/87/71
f 69/85/69 71/87/71 67/83/67
f 62/79/62 63/88/63 22/24/22
f 5/5/5 62/79/62 18/20/18
f 64/80/64 58/73/58 66/82/66
f 67/83/67 71/87/71 68/84/68
f 54/69/54 60/75/60 72/89/72
f 72/89/72 60/75/60 13/15/13
f 73/90/73 74/91/74 75/92/75
f 75/92/75 54/69/54 72/89/72
f 74/91/74 54/69/54 75/92/75
f 72/89/72 32/35/32 75/92/75
f 76/93/76 33/39/33 38/45/38
f 32/35/32 34/40/34 75/92/75
f 34/40/34 76/93/76 75/92/75
f 61/76/61 74/91/74 77/94/77
f 78/95/78 77/94/77 73/90/73
f 73/90/73 77/94/77 74/91/74
f 73/90/73 75/92/75 76/93/76
f 73/90/73 76/93/76 78/95/78
f 76/93/76 38/45/38 78/95/78
f 69/85/69 61/76/61 77/94/77
f 79/96/79 80/97/80 81/98/81
f 82/99/82 77/94/77 79/96/79
f 81/98/81 70/86/70 82/99/82
f 82/99/82 69/85/69 77/94/77
f 82/99/82 79/96/79 81/98/81
f 38/45/38 83/100/83 78/95/78
f 78/95/78 83/100/83 79/96/79
f 84/101/84 80/97/80 79/96/79
f 83/100/83 84/101/84 79/96/79
f 83/100/83 85/102/85 84/101/84
f 85/103/85 45/54/45 86/104/86
f 39/46/39 45/55/45 85/102/85
f 78/95/78 79/96/79 77/94/77
f 85/102/85 83/100/83 38/45/38
f 85/102/85 38/45/38 39/46/39
f 48/61/48 6/63/6 12/66/12
f 55/70/55 74/91/74 57/72/57
f 62/77/62 49/62/49 58/73/58
f 74/91/74 55/70/55 54/69/54
f 57/72/57 74/91/74 61/76/61
f 23/25/23 87/105/87 21/23/21
f 26/28/26 88/106/88 25/27/25
f 26/28/26 21/23/21 89/107/89
f 90/108/90 40/109/40 88/110/88
f 91/111/91 92/112/92 40/109/40
f 92/112/92 91/111/91 44/113/44
f 93/114/93 45/54/45 44/53/44
f 91/111/91 40/109/40 90/108/90
f 88/110/88 94/115/94 95/116/95
f 94/115/94 88/110/88 96/117/96
f 90/108/90 95/116/95 94/115/94
f 94/115/94 97/118/97 98/119/98
f 90/108/90 98/119/98 91/111/91
f 89/120/89 96/117/96 88/110/88
f 97/118/97 96/117/96 99/121/99
f 99/121/99 96/117/96 89/120/89
f 87/105/87 89/107/89 21/23/21
f 87/122/87 99/121/99 89/120/89
f 100/123/100 101/124/101 99/121/99
f 96/117/96 97/118/97 94/115/94
f 102/125/102 97/118/97 103/126/103
f 104/127/104 98/119/98 105/128/105
f 106/129/106 107/130/107 91/111/91
f 107/131/107 106/132/106 108/133/108
f 108/133/108 93/114/93 44/53/44
f 108/133/108 44/53/44 107/131/107
f 104/127/104 106/129/106 91/111/91
f 109/134/109 106/132/106 104/135/104
f 109/134/109 104/135/104 110/136/110
f 98/119/98 102/125/102 105/128/105
f 108/133/108 106/132/106 109/134/109
f 111/137/111 102/125/102 103/126/103
f 112/138/112 103/126/103 101/124/101
f 103/126/103 112/138/112 113/139/113
f 111/137/111 105/128/105 102/125/102
f 114/140/114 115/141/115 116/142/116
f 111/137/111 113/139/113 117/143/117
f 117/143/117 114/144/114 111/137/111
f 105/128/105 111/137/111 114/144/114
f 88/110/88 95/116/95 90/108/90
f 89/107/89 88/106/88 26/28/26
f 104/127/104 91/111/91 98/119/98
f 44/113/44 91/111/91 107/130/107
f 116/145/116 110/146/110 105/128/105
f 118/147/118 87/105/87 65/148/65
f 65/148/65 87/105/87 22/24/22
f 87/105/87 23/25/23 22/24/22
f 22/24/22 63/88/63 65/148/65
f 119/149/119 120/150/120 68/84/68
f 120/150/120 65/81/65 68/84/68
f 121/151/121 80/152/80 85/103/85
f 121/151/121 85/103/85 86/104/86
f 121/151/121 122/153/122 80/152/80
f 123/154/123 118/155/118 124/156/124
f 123/154/123 87/122/87 118/155/118
f 125/157/125 100/123/100 124/156/124
f 124/156/124 100/123/100 123/154/123
f 126/158/126 119/159/119 127/160/127
f 119/159/119 126/158/126 120/161/120
f 126/158/126 124/162/124 120/161/120
f 124/162/124 128/163/128 125/164/125
f 124/162/124 126/158/126 128/163/128
f 127/160/127 119/159/119 71/165/71
f 129/166/129 127/160/127 71/165/71
f 130/167/130 127/160/127 129/166/129
f 124/162/124 118/168/118 120/161/120
f 131/169/131 125/164/125 128/163/128
f 128/163/128 132/170/132 131/169/131
f 131/171/131 132/172/132 101/124/101
f 127/160/127 133/173/133 128/163/128
f 132/172/132 113/139/113 112/138/112
f 101/124/101 132/172/132 112/138/112
f 134/174/134 132/170/132 128/163/128
f 135/175/135 132/170/132 136/176/136
f 137/177/137 138/178/138 139/179/139
f 138/178/138 115/141/115 139/179/139
f 136/176/136 117/180/117 135/175/135
f 136/176/136 139/179/139 117/180/117
f 117/180/117 113/181/113 135/175/135
f 139/179/139 115/141/115 117/180/117
f 115/141/115 114/140/114 117/180/117
f 136/176/136 134/174/134 139/179/139
f 134/174/134 137/177/137 139/179/139
f 133/173/133 137/177/137 134/174/134
f 121/151/121 109/134/109 138/178/138
f 109/134/109 115/141/115 138/178/138
f 122/153/122 140/182/140 129/166/129
f 140/182/140 122/153/122 121/151/121
f 130/167/130 129/166/129 140/182/140
f 137/177/137 130/167/130 140/182/140
f 120/150/120 118/183/118 65/81/65
f 76/93/76 34/40/34 33/39/33
f 24/26/24 88/106/88 40/48/40
f 12/12/12 11/11/11 50/184/50
f 5/5/5 6/6/6 49/185/49
f 51/65/51 13/15/13 60/75/60
f 64/80/64 68/84/68 65/81/65
f 72/89/72 13/15/13 32/35/32
f 70/86/70 69/85/69 82/99/82
f 81/186/81 80/152/80 122/153/122
f 80/152/80 84/187/84 85/103/85
f 6/6/6 2/2/2 12/12/12
f 62/79/62 5/5/5 49/185/49
f 24/26/24 25/27/25 88/106/88
f 43/52/43 92/188/92 44/53/44
f 43/189/43 40/109/40 92/112/92
f 98/119/98 90/108/90 94/115/94
f 110/146/110 104/127/104 105/128/105
f 113/139/113 111/137/111 103/126/103
f 116/145/116 105/128/105 114/144/114
f 86/104/86 93/114/93 108/133/108
f 45/54/45 93/114/93 86/104/86
f 70/190/70 122/153/122 71/165/71
f 81/186/81 122/153/122 70/190/70
f 99/121/99 87/122/87 123/154/123
f 100/123/100 99/121/99 123/154/123
f 113/139/113 132/172/132 135/191/135
f 109/134/109 110/136/110 115/141/115
f 109/134/109 121/151/121 86/104/86
f 121/151/121 138/178/138 140/182/140
f 127/160/127 130/167/130 133/173/133
f 11/13/11 13/15/13 51/65/51
f 37/44/37 31/33/31 30/32/30
f 97/118/97 102/125/102 98/119/98
f 97/118/97 99/121/99 101/124/101
f 119/149/119 68/84/68 71/87/71
f 128/163/128 126/158/126 127/160/127
f 125/157/125 101/124/101 100/123/100
f 101/124/101 125/157/125 131/171/131
f 133/173/133 130/167/130 137/177/137
f 128/163/128 133/173/133 134/174/134
f 138/178/138 137/177/137 140/182/140
f 122/153/122 129/166/129 71/165/71
f 136/176/136 132/170/132 134/174/134
f 50/64/50 11/13/11 51/65/51
f 103/126/103 97/118/97 101/124/101
f 115/141/115 110/136/110 116/142/116
f 86/104/86 108/133/108 109/134/109
