# www.textures.com
v 0.778475 0.307408 2.805774
v 0.190008 0.615192 2.960801
v 0.663518 -0.237602 2.916520
v 1.102324 -0.875600 2.912162
v -0.069234 -0.551743 2.820525
v 0.935346 0.087504 2.672345
v 1.279119 0.095884 2.895452
v -1.012132 -0.514312 2.481404
v -0.734699 -0.034947 2.696706
v -0.891590 -0.765423 2.825458
v 0.014723 -1.281306 2.712148
v 1.069422 -1.192664 2.750304
v 0.397246 -2.082247 2.779986
v 1.305280 -1.474049 2.664586
v 1.470781 -1.033893 2.751595
v 1.516862 -2.062152 2.161300
v -0.684568 -1.705694 2.473314
v -1.488724 -1.083998 2.491457
v -1.063747 -1.871477 2.439518
v -0.369053 -2.573615 2.349073
v -1.551184 -2.363216 1.975163
v -1.654075 -2.821202 1.359759
v -0.487961 -3.129719 1.673652
v 0.702996 -2.758189 2.108719
v 2.846174 -1.745526 1.361167
v 2.585528 -1.805308 1.753156
v 1.994637 -2.214456 1.649830
v 2.314188 -1.867075 1.075216
v 2.140404 -2.285800 1.124061
v 1.875693 -2.302447 0.553757
v 2.247108 -1.806780 0.394661
v 1.589137 -2.780771 1.315864
v 2.255922 -1.432721 2.297151
v 2.913804 -0.933467 1.890605
v 0.612545 -3.172656 1.166889
v -0.401890 -2.861947 0.505724
v -1.248221 -2.916883 0.667218
v -0.803253 -2.637946 0.253113
v -0.642117 -2.047465 -0.013179
v 0.236808 -2.579470 0.116908
v 0.702215 -2.559584 0.155309
v 1.428357 -2.209100 0.077192
v 0.428838 -1.609451 0.023677
v 1.856628 -1.109514 0.065640
v 1.119237 -2.758279 0.584357
v 1.328648 -2.588387 0.584414
v 0.800214 -2.718325 0.617359
v -0.482892 1.417045 2.497856
v -1.035973 1.147791 2.447829
v -0.689927 0.762300 2.663594
v -1.785876 -0.118776 2.308493
v -1.199526 0.744146 2.316185
v -1.639089 0.711119 2.242269
v -1.771868 1.386974 2.060911
v -2.146688 0.891042 2.004260
v -2.270061 0.282452 2.013591
v -1.190446 1.791670 2.114231
v -2.021966 -0.329022 2.049351
v -2.258920 -0.874979 1.977899
v -2.738486 -0.025611 1.830051
v -2.332456 -0.373709 2.110389
v -2.497814 -0.504827 1.737905
v -2.831066 -0.065844 1.422750
v -2.471361 -1.576356 1.619189
v -2.995110 -0.852166 1.288114
v -2.792063 -1.515768 1.014333
v -2.972437 0.384405 1.050138
v -2.793144 1.108376 1.435139
v -3.186496 0.573145 0.813381
v -3.191071 0.063948 0.989485
v -3.220280 -0.326545 0.449857
v -2.940571 0.501191 0.130019
v -2.578738 1.345920 1.010472
v -2.363770 2.029769 1.119345
v -2.315787 1.443171 0.225221
v -2.933844 1.048802 0.552422
v -2.533461 1.748951 0.711365
v -2.952438 -0.968320 0.888062
v -2.671731 -1.115656 0.253541
v -2.382271 -1.952801 0.689702
v -1.955628 -1.960094 0.416026
v -1.807293 -2.293464 0.572477
v -1.274392 -2.052890 0.060839
v -2.339273 -0.943154 -0.016340
v -1.959066 -2.266182 1.217986
v -1.656535 -0.337709 0.016509
v -1.581997 1.113680 -0.010954
v -0.884489 0.700645 0.044458
v -0.397735 -0.918483 0.064553
v -0.407277 -0.064974 0.045596
v 0.643962 -0.165988 0.060710
v 1.193289 1.858290 2.206736
v 0.968968 1.605647 2.330260
v 1.043905 1.316092 2.599897
v 2.729441 1.683288 1.517724
v 1.720470 2.024626 1.853386
v 1.926091 1.104831 2.400286
v 0.882178 1.026300 2.599289
v -0.087148 1.939489 2.381273
v 0.512319 1.634704 2.124125
v 0.929214 1.463657 1.999778
v 1.058411 0.788485 2.664140
v 1.523805 0.399520 2.689007
v 2.645389 0.632192 2.061495
v 3.056016 0.789197 1.602010
v 2.262219 -0.033037 2.533231
v 2.899590 -0.118052 2.073015
v 3.300428 -0.125813 1.426452
v 3.174535 0.942054 0.830599
v 2.795577 1.493137 0.434862
v 2.184216 2.177251 0.647075
v 1.657036 0.460099 0.047879
v 2.182062 1.663662 0.041295
v 2.547367 1.008471 0.059072
v 3.089527 -0.860909 0.568412
v 3.163750 -1.001056 1.065449
v 2.830246 -1.864496 0.839713
v 2.624382 -1.313819 0.237766
v 2.989386 -1.433396 0.834353
v 2.749159 -0.319774 0.081244
v 3.158251 0.236476 0.655350
v -1.600433 2.470794 1.464978
v -1.843099 2.709406 0.967815
v -1.133366 3.081027 1.124663
v -0.655687 2.244056 1.938456
v -0.244581 2.816190 1.267147
v -0.045612 2.089372 1.830335
v 0.028598 2.493222 1.692437
v -0.066982 2.228376 1.990434
v 0.472685 2.388211 1.843209
v 0.271522 2.928470 1.278915
v 0.627899 2.156850 2.131379
v 1.071861 2.245250 1.856900
v 0.794788 2.996339 1.078611
v 1.818248 2.344516 1.392007
v -0.597295 3.015414 0.760501
v 0.012209 3.043736 0.753563
v -0.228928 3.000024 0.389769
v 1.620148 2.608910 0.757328
v 0.494697 2.964103 0.312181
v 0.929820 2.630476 0.084695
v 1.321698 2.390805 0.041301
v 1.245370 1.660608 0.004409
v 1.866202 2.162663 0.208549
v -2.054700 2.183901 0.459455
v -1.090565 2.320067 -0.026343
v -0.804925 2.918676 0.477264
v -1.364350 2.982891 0.614660
v 0.148212 2.533262 0.098144
v 0.161628 0.683643 0.032830
v 0.159991 1.665762 -0.002224
vt 0.750354 0.494776
vt 0.802892 0.521568
vt 0.715471 0.530177
vt 0.624568 0.554070
vt 0.733766 0.604708
vt 0.530892 0.136510
vt 0.528278 0.084796
vt 0.570161 0.120621
vt 0.510933 0.116744
vt 0.579954 0.043318
vt 0.810164 0.680768
vt 0.818763 0.624511
vt 0.768137 0.679413
vt 0.676092 0.645382
vt 0.586616 0.584953
vt 0.583053 0.679646
vt 0.530972 0.597075
vt 0.564506 0.557484
vt 0.476070 0.653977
vt 0.620884 0.040073
vt 0.688907 0.718120
vt 0.785029 0.744807
vt 0.692719 0.756775
vt 0.609051 0.758570
vt 0.691560 0.825625
vt 0.658142 0.879763
vt 0.579764 0.824554
vt 0.524277 0.733799
vt 0.327037 0.642152
vt 0.369413 0.626322
vt 0.407751 0.677773
vt 0.346346 0.696962
vt 0.371123 0.722521
vt 0.224036 0.001763
vt 0.262708 0.023059
vt 0.213453 0.048004
vt 0.358605 0.772905
vt 0.432029 0.745462
vt 0.704780 0.024901
vt 0.752759 0.082890
vt 0.422955 0.599954
vt 0.628386 0.009008
vt 0.695666 0.025744
vt 0.484202 0.815058
vt 0.527590 0.916446
vt 0.615113 0.933987
vt 0.596948 0.946528
vt 0.446953 0.124879
vt 0.421853 0.199937
vt 0.394420 0.112732
vt 0.472831 0.165686
vt 0.480164 0.884873
vt 0.445965 0.869042
vt 0.292055 0.077555
vt 0.327695 0.171407
vt 0.208575 0.129952
vt 0.364524 0.086766
vt 0.416053 0.828940
vt 0.394070 0.811933
vt 0.319085 0.029632
vt 0.342315 0.044737
vt 0.372902 0.058867
vt 0.909372 0.533988
vt 0.925431 0.584450
vt 0.870376 0.580693
vt 0.882315 0.718785
vt 0.917056 0.626259
vt 0.158468 0.888607
vt 0.174916 0.831090
vt 0.208900 0.880688
vt 0.967688 0.690642
vt 0.944389 0.729825
vt 0.932747 0.662773
vt 0.109225 0.840023
vt 0.125269 0.880736
vt 0.122685 0.788153
vt 0.886181 0.771222
vt 0.839793 0.821578
vt 0.247549 0.937119
vt 0.300604 0.942000
vt 0.298010 0.985791
vt 0.276644 0.994403
vt 0.326476 0.969035
vt 0.894118 0.841653
vt 0.933350 0.879045
vt 0.941252 0.903589
vt 0.911915 0.801286
vt 0.792355 0.876863
vt 0.864748 0.911839
vt 0.803057 0.935569
vt 0.330372 0.891694
vt 0.281261 0.845950
vt 0.329656 0.920525
vt 0.351841 0.864300
vt 0.969138 0.954684
vt 0.924665 0.959359
vt 0.879217 0.979256
vt 0.507979 0.495216
vt 0.473139 0.525940
vt 0.512911 0.453599
vt 0.440616 0.484593
vt 0.968463 0.988218
vt 0.302400 0.799684
vt 0.267114 0.750390
vt 0.353405 0.521525
vt 0.419681 0.539079
vt 0.357747 0.569338
vt 0.359423 0.814475
vt 0.317786 0.750466
vt 0.847803 0.949300
vt 0.538656 0.358321
vt 0.548113 0.391732
vt 0.513975 0.366350
vt 0.545513 0.316681
vt 0.513735 0.286489
vt 0.517435 0.250290
vt 0.466770 0.230849
vt 0.473922 0.358359
vt 0.500783 0.211534
vt 0.704662 0.978460
vt 0.708304 0.904533
vt 0.750612 0.956740
vt 0.399282 0.363202
vt 0.320131 0.457584
vt 0.295296 0.392765
vt 0.347131 0.259488
vt 0.305138 0.317025
vt 0.237785 0.254494
vt 0.577592 0.332626
vt 0.548820 0.297547
vt 0.545229 0.265751
vt 0.723104 0.302155
vt 0.634156 0.344684
vt 0.625489 0.246251
vt 0.799149 0.387289
vt 0.833265 0.363438
vt 0.813657 0.428727
vt 0.924100 0.481395
vt 0.892969 0.432604
vt 0.872600 0.391232
vt 0.539558 0.204809
vt 0.588763 0.170118
vt 0.514750 0.164503
vt 0.698379 0.209526
vt 0.755389 0.229691
vt 0.659054 0.144765
vt 0.728950 0.146996
vt 0.794040 0.159082
vt 0.809790 0.264196
vt 0.811717 0.331937
vt 0.754029 0.389482
vt 0.138237 0.245940
vt 0.038693 0.297069
vt 0.049300 0.235344
vt 0.005801 0.282839
vt 0.002851 0.235807
vt 0.015928 0.176941
vt 0.790840 0.050451
vt 0.743351 0.026835
vt 0.841795 0.141736
vt 0.830437 0.086152
vt 0.197316 0.004718
vt 0.166883 0.006120
vt 0.160762 0.073623
vt 0.267867 0.652965
vt 0.304560 0.679873
vt 0.259954 0.628367
vt 0.125299 0.019452
vt 0.093411 0.073273
vt 0.086853 0.042662
vt 0.102909 0.141228
vt 0.843399 0.208379
vt 0.030309 0.135646
vt 0.186709 0.725623
vt 0.234843 0.689358
vt 0.174625 0.657798
vt 0.083188 0.727421
vt 0.099738 0.633954
vt 0.962516 0.542689
vt 0.937993 0.570044
vt 0.985052 0.499184
vt 0.956809 0.477760
vt 0.052177 0.663224
vt 0.029378 0.699648
vt 0.002600 0.691970
vt 0.017952 0.646847
vt 0.050384 0.605255
vt 0.960396 0.452219
vt 0.940816 0.394941
vt 0.976052 0.408060
vt 0.921673 0.341725
vt 0.874117 0.337958
vt 0.652254 0.484206
vt 0.580995 0.465115
vt 0.592451 0.405891
vt 0.673735 0.380549
vt 0.155428 0.601859
vt 0.100781 0.570394
vt 0.131733 0.551378
vt 0.710669 0.438894
vt 0.690861 0.513858
vt 0.078250 0.513774
vt 0.047087 0.557490
vt 0.718565 0.504737
vt 0.055435 0.391697
vt 0.101623 0.346130
vt 0.069000 0.430094
vt 0.743401 0.472471
vt 0.770329 0.430386
vt 0.027240 0.348681
vt 0.003161 0.326294
vt 0.299551 0.563803
vt 0.307675 0.600755
vt 0.257103 0.592928
vt 0.224434 0.509472
vt 0.189494 0.585126
vt 0.220962 0.635922
vt 0.132210 0.525069
vt 0.128021 0.467290
vt 0.214507 0.584924
vt 0.163972 0.546309
vt 0.225804 0.339773
vt 0.175220 0.403651
vt 0.431906 0.845667
vt 0.673738 0.963627
vt 0.787242 0.467772
vt 0.524580 0.234679
vt 0.792807 0.374702
vt 0.625715 0.491441
vt 0.575010 0.437337
vt 0.087965 0.478145
vt 0.288250 0.721948
vn 0.4494 0.0395 0.8925
vn -0.0063 0.1828 0.9831
vn 0.0180 0.0472 0.9987
vn 0.1297 -0.2141 0.9682
vn -0.1282 -0.0651 0.9896
vn 0.1177 0.3851 0.9154
vn -0.0126 0.3970 0.9177
vn -0.3639 0.1801 0.9139
vn -0.3163 -0.0737 0.9458
vn -0.3098 0.2214 0.9247
vn -0.1130 -0.1439 0.9831
vn 0.1011 -0.3502 0.9312
vn 0.0606 -0.3460 0.9363
vn -0.1166 -0.5547 0.8239
vn 0.3364 -0.2106 0.9178
vn 0.4041 -0.5849 0.7033
vn -0.1591 -0.2166 0.9632
vn -0.4479 -0.1065 0.8877
vn -0.2487 -0.2619 0.9325
vn -0.1844 -0.5827 0.7915
vn -0.5358 -0.5259 0.6606
vn -0.6408 -0.7464 0.1797
vn -0.1398 -0.9446 0.2969
vn 0.2661 -0.7573 0.5965
vn 0.7357 -0.6488 0.1947
vn 0.6117 -0.6193 0.4922
vn 0.5511 -0.7234 0.4158
vn 0.5465 -0.8341 -0.0748
vn 0.8073 -0.5899 0.0160
vn 0.5509 -0.7124 -0.4347
vn 0.4653 -0.5723 -0.6752
vn 0.5248 -0.8412 0.1301
vn 0.5031 -0.3226 0.8018
vn 0.7726 -0.2361 0.5894
vn 0.1690 -0.9825 -0.0786
vn -0.0305 -0.8421 -0.5385
vn -0.3450 -0.8382 -0.4223
vn -0.0425 -0.5868 -0.8086
vn -0.0280 -0.2043 -0.9785
vn 0.0248 -0.5436 -0.8390
vn 0.1172 -0.5859 -0.8018
vn 0.2798 -0.4267 -0.8600
vn 0.0211 -0.0270 -0.9994
vn 0.1178 -0.1045 -0.9875
vn 0.2844 -0.8362 -0.4689
vn 0.5074 -0.7540 -0.4171
vn 0.1842 -0.8578 -0.4798
vn -0.2422 0.3595 0.9012
vn -0.3917 0.1822 0.9019
vn -0.3534 0.1814 0.9177
vn -0.4817 -0.0012 0.8764
vn -0.4394 0.1486 0.8859
vn -0.2730 0.1545 0.9495
vn -0.4457 0.3391 0.8285
vn -0.5073 0.1968 0.8390
vn -0.4574 0.1372 0.8786
vn -0.3148 0.4813 0.8181
vn -0.4403 -0.1203 0.8897
vn -0.6034 -0.0504 0.7959
vn -0.7975 -0.0978 0.5954
vn -0.1769 -0.5131 0.8399
vn -0.7010 -0.2027 0.6837
vn -0.8709 -0.0665 0.4869
vn -0.6985 -0.4494 0.5569
vn -0.8817 -0.1971 0.4287
vn -0.8446 -0.5347 0.0287
vn -0.8024 0.1128 0.5860
vn -0.8049 0.3805 0.4554
vn -0.9654 0.2248 0.1321
vn -0.9076 0.0919 0.4097
vn -0.9051 -0.1774 -0.3865
vn -0.5959 0.1724 -0.7843
vn -0.8791 0.4728 0.0599
vn -0.7865 0.5614 0.2573
vn -0.4105 0.3893 -0.8246
vn -0.8209 0.5068 -0.2634
vn -0.8514 0.4937 -0.1769
vn -0.9165 -0.3782 -0.1302
vn -0.6576 -0.4088 -0.6328
vn -0.5967 -0.7422 -0.3050
vn -0.4934 -0.5993 -0.6304
vn -0.6911 -0.5574 -0.4600
vn -0.2615 -0.3372 -0.9044
vn -0.2689 -0.1801 -0.9462
vn -0.7757 -0.6257 0.0827
vn -0.0008 0.0136 -0.9999
vn -0.0996 0.0795 -0.9918
vn 0.0240 -0.0206 -0.9995
vn 0.0209 0.0262 -0.9994
vn 0.0128 -0.0135 -0.9998
vn 0.0039 -0.0092 -0.9999
vn -0.1878 0.6183 0.7632
vn -0.7531 0.5591 0.3467
vn -0.1807 0.4034 0.8970
vn 0.7109 0.5888 0.3847
vn 0.3465 0.6511 0.6753
vn 0.3937 0.3626 0.8447
vn -0.0212 0.4176 0.9084
vn -0.0032 0.6095 0.7928
vn 0.4629 0.3521 0.8134
vn -0.2977 0.5789 0.7591
vn 0.1760 0.1747 0.9688
vn 0.1752 0.2778 0.9445
vn 0.6115 0.2711 0.7434
vn 0.8700 0.2514 0.4241
vn 0.4835 0.0367 0.8746
vn 0.7157 0.0171 0.6982
vn 0.9820 0.0131 0.1885
vn 0.9601 0.2132 -0.1809
vn 0.7653 0.4613 -0.4488
vn 0.6283 0.7492 -0.2096
vn 0.0152 -0.0194 -0.9997
vn 0.3295 0.3392 -0.8811
vn 0.4376 0.0918 -0.8945
vn 0.8748 -0.1798 -0.4500
vn 0.9706 -0.2395 0.0255
vn 0.5785 -0.7912 -0.1983
vn 0.4590 -0.3499 -0.8166
vn 0.8991 -0.3528 -0.2592
vn 0.4766 -0.0348 -0.8784
vn 0.9180 0.0888 -0.3864
vn -0.4342 0.5853 0.6848
vn -0.6747 0.7297 0.1109
vn -0.1505 0.9276 0.3419
vn -0.0793 0.6788 0.7300
vn -0.0296 0.8528 0.5214
vn -0.2601 0.8252 0.5015
vn -0.0721 0.6066 0.7918
vn -0.6977 0.7156 0.0336
vn 0.0062 0.7583 0.6519
vn -0.0462 0.8638 0.5017
vn 0.2655 0.4432 0.8562
vn 0.1953 0.6474 0.7367
vn 0.2440 0.9363 0.2526
vn 0.4613 0.7986 0.3865
vn 0.0172 0.9998 -0.0088
vn -0.0250 0.9963 0.0824
vn -0.0633 0.8528 -0.5184
vn 0.5091 0.8533 -0.1129
vn 0.1134 0.8415 -0.5283
vn 0.1992 0.5458 -0.8139
vn 0.2818 0.4427 -0.8513
vn 0.0484 0.0461 -0.9978
vn 0.4365 0.5606 -0.7037
vn -0.6155 0.5016 -0.6079
vn -0.1936 0.3289 -0.9243
vn -0.1101 0.8364 -0.5369
vn -0.3427 0.8447 -0.4112
vn -0.0156 0.3212 -0.9469
vn -0.0009 -0.0287 -0.9996
vn 0.0104 0.0224 -0.9997
s 1
f 1/1/1 2/2/2 3/3/3
f 4/4/4 3/3/3 5/5/5
f 6/6/6 3/7/3 7/8/7
f 1/9/1 3/7/3 6/6/6
f 7/8/7 3/7/3 4/10/4
f 8/11/8 5/5/5 9/12/9
f 8/11/8 10/13/10 5/5/5
f 5/5/5 10/13/10 11/14/11
f 4/4/4 11/14/11 12/15/12
f 5/5/5 11/14/11 4/4/4
f 12/15/12 11/14/11 13/16/13
f 14/17/14 15/18/15 12/15/12
f 14/17/14 12/15/12 16/19/16
f 15/20/15 7/8/7 4/10/4
f 15/18/15 4/4/4 12/15/12
f 17/21/17 18/22/18 19/23/19
f 20/24/20 13/16/13 17/21/17
f 11/14/11 17/21/17 13/16/13
f 21/25/21 22/26/22 23/27/23
f 21/25/21 23/27/23 20/24/20
f 16/19/16 13/16/13 24/28/24
f 13/16/13 20/24/20 24/28/24
f 20/24/20 17/21/17 19/23/19
f 25/29/25 26/30/26 27/31/27
f 26/30/26 16/19/16 27/31/27
f 28/32/28 25/29/25 27/31/27
f 28/32/28 27/31/27 29/33/29
f 29/34/29 30/35/30 31/36/31
f 30/37/30 29/33/29 32/38/32
f 15/20/15 33/39/33 34/40/34
f 14/17/14 16/19/16 33/41/33
f 14/42/14 33/43/33 15/20/15
f 35/44/35 32/38/32 24/28/24
f 24/28/24 32/38/32 16/19/16
f 16/19/16 32/38/32 27/31/27
f 36/45/36 23/27/23 37/46/37
f 37/46/37 38/47/38 36/45/36
f 36/45/36 35/44/35 23/27/23
f 36/48/36 39/49/39 40/50/40
f 39/49/39 36/48/36 38/51/38
f 40/52/40 41/53/41 35/44/35
f 42/54/42 43/55/43 44/56/44
f 43/55/43 42/54/42 41/57/41
f 40/50/40 39/49/39 43/55/43
f 45/58/45 46/59/46 32/38/32
f 31/36/31 30/35/30 42/54/42
f 42/54/42 30/35/30 46/60/46
f 45/61/45 41/57/41 42/54/42
f 42/54/42 46/60/46 45/61/45
f 45/61/45 47/62/47 41/57/41
f 48/63/48 49/64/49 50/65/50
f 50/65/50 2/2/2 48/63/48
f 2/2/2 50/65/50 9/12/9
f 51/66/51 9/12/9 50/65/50
f 51/66/51 50/65/50 52/67/52
f 53/68/53 54/69/54 55/70/55
f 55/71/55 56/72/56 53/73/53
f 53/73/53 56/72/56 51/66/51
f 49/74/49 54/69/54 52/75/52
f 54/69/54 53/68/53 52/75/52
f 49/74/49 57/76/57 54/69/54
f 51/66/51 18/22/18 8/11/8
f 9/12/9 51/66/51 8/11/8
f 8/11/8 18/22/18 10/13/10
f 58/77/58 18/22/18 51/66/51
f 58/77/58 59/78/59 18/22/18
f 56/79/56 60/80/60 61/81/61
f 61/81/61 58/82/58 56/79/56
f 61/81/61 60/80/60 62/83/62
f 62/84/62 60/85/60 63/86/63
f 58/77/58 61/87/61 62/84/62
f 59/78/59 64/88/64 21/25/21
f 65/89/65 66/90/66 64/88/64
f 21/25/21 18/22/18 59/78/59
f 67/91/67 60/80/60 68/92/68
f 67/91/67 63/93/63 60/80/60
f 69/94/69 67/91/67 68/92/68
f 67/95/67 70/96/70 63/86/63
f 70/96/70 71/97/71 65/89/65
f 70/98/70 69/99/69 71/100/71
f 69/99/69 72/101/72 71/100/71
f 69/102/69 70/96/70 67/95/67
f 73/103/73 68/92/68 74/104/74
f 68/92/68 55/70/55 54/69/54
f 75/105/75 72/101/72 76/106/76
f 75/105/75 76/106/76 77/107/77
f 76/108/76 73/103/73 77/109/77
f 71/97/71 78/110/78 65/89/65
f 66/111/66 78/112/78 79/113/79
f 80/114/80 79/113/79 81/115/81
f 78/112/78 71/100/71 79/113/79
f 79/113/79 80/114/80 66/111/66
f 82/116/82 81/115/81 83/117/83
f 81/115/81 84/118/84 83/117/83
f 37/119/37 82/116/82 83/117/83
f 81/115/81 79/113/79 84/118/84
f 81/120/81 85/121/85 80/122/80
f 84/118/84 71/100/71 72/101/72
f 86/123/86 72/101/72 87/124/87
f 86/123/86 87/124/87 88/125/88
f 75/105/75 87/124/87 72/101/72
f 84/118/84 72/101/72 86/123/86
f 89/126/89 86/123/86 90/127/90
f 39/49/39 86/123/86 89/126/89
f 86/123/86 39/49/39 83/117/83
f 86/123/86 83/117/83 84/118/84
f 43/55/43 89/126/89 91/128/91
f 43/55/43 39/49/39 89/126/89
f 92/129/92 93/130/93 94/131/94
f 95/132/95 96/133/96 97/134/97
f 97/134/97 96/133/96 94/131/94
f 94/131/94 96/133/96 92/129/92
f 94/135/94 93/136/93 98/137/98
f 98/137/98 99/138/99 2/2/2
f 100/139/100 99/138/99 98/137/98
f 101/140/101 100/139/100 98/137/98
f 101/140/101 98/137/98 93/136/93
f 102/141/102 97/134/97 94/131/94
f 102/141/102 103/142/103 97/134/97
f 103/142/103 102/141/102 6/6/6
f 7/8/7 103/142/103 6/6/6
f 6/6/6 102/141/102 1/143/1
f 97/134/97 104/144/104 95/132/95
f 95/132/95 104/144/104 105/145/105
f 97/134/97 106/146/106 104/144/104
f 104/144/104 106/146/106 107/147/107
f 105/145/105 107/147/107 108/148/108
f 105/145/105 104/144/104 107/147/107
f 109/149/109 95/132/95 105/145/105
f 110/150/110 111/151/111 95/132/95
f 110/150/110 95/132/95 109/149/109
f 112/152/112 113/153/113 114/154/114
f 110/155/110 114/154/114 113/153/113
f 110/156/110 109/157/109 114/154/114
f 25/158/25 34/40/34 26/159/26
f 106/146/106 15/20/15 34/40/34
f 7/8/7 15/20/15 106/146/106
f 107/147/107 106/146/106 34/40/34
f 115/160/115 108/148/108 116/161/116
f 108/148/108 34/40/34 116/161/116
f 34/40/34 25/158/25 116/161/116
f 28/162/28 31/36/31 117/163/117
f 118/164/118 117/163/117 31/36/31
f 119/165/119 25/29/25 117/166/117
f 119/165/119 116/167/116 25/29/25
f 118/164/118 119/168/119 117/163/117
f 115/169/115 116/170/116 119/168/119
f 112/152/112 120/171/120 44/56/44
f 44/56/44 91/128/91 112/152/112
f 118/164/118 44/56/44 120/171/120
f 44/56/44 43/55/43 91/128/91
f 44/56/44 31/36/31 42/54/42
f 31/36/31 44/56/44 118/164/118
f 118/164/118 120/171/120 115/169/115
f 121/172/121 108/148/108 115/160/115
f 120/171/120 121/173/121 115/169/115
f 121/172/121 105/145/105 108/148/108
f 121/173/121 120/171/120 109/157/109
f 114/154/114 109/157/109 120/171/120
f 74/104/74 122/174/122 123/175/123
f 122/174/122 74/104/74 68/92/68
f 68/92/68 54/69/54 122/174/122
f 122/174/122 54/69/54 57/76/57
f 124/176/124 123/175/123 122/174/122
f 124/176/124 122/174/122 125/177/125
f 125/177/125 122/174/122 57/76/57
f 124/176/124 125/177/125 126/178/126
f 48/63/48 99/138/99 57/179/57
f 48/63/48 57/179/57 49/180/49
f 99/138/99 125/181/125 57/179/57
f 125/181/125 99/138/99 127/182/127
f 128/183/128 125/177/125 127/184/127
f 129/185/129 130/186/130 127/184/127
f 130/186/130 131/187/131 128/183/128
f 131/187/131 126/178/126 128/183/128
f 130/186/130 128/183/128 127/184/127
f 129/188/129 132/189/132 130/190/130
f 99/138/99 100/139/100 132/189/132
f 133/191/133 101/140/101 92/192/92
f 101/140/101 133/191/133 132/189/132
f 134/193/134 130/194/130 133/195/133
f 133/195/133 135/196/135 134/193/134
f 136/197/136 137/198/137 138/199/138
f 137/198/137 136/197/136 126/178/126
f 135/196/135 139/200/139 134/193/134
f 134/193/134 139/200/139 140/201/140
f 140/202/140 137/198/137 134/203/134
f 141/204/141 140/201/140 139/200/139
f 137/198/137 131/187/131 134/203/134
f 142/205/142 143/206/143 141/207/141
f 142/208/142 141/204/141 139/200/139
f 111/151/111 139/200/139 135/196/135
f 144/209/144 139/200/139 111/151/111
f 144/210/144 111/211/111 113/153/113
f 143/206/143 144/210/144 113/153/113
f 112/152/112 143/206/143 113/153/113
f 145/212/145 75/105/75 77/107/77
f 74/213/74 123/214/123 145/212/145
f 146/215/146 87/124/87 145/212/145
f 87/124/87 75/105/75 145/212/145
f 147/216/147 148/217/148 136/197/136
f 136/197/136 148/217/148 124/176/124
f 138/218/138 149/219/149 146/215/146
f 146/215/146 145/212/145 148/220/148
f 138/218/138 146/215/146 147/221/147
f 146/215/146 148/220/148 147/221/147
f 123/175/123 124/176/124 148/217/148
f 91/128/91 90/127/90 150/222/150
f 151/223/151 150/222/150 88/125/88
f 88/125/88 146/215/146 151/223/151
f 87/124/87 146/215/146 88/125/88
f 150/222/150 90/127/90 88/125/88
f 143/206/143 150/222/150 151/223/151
f 143/206/143 151/223/151 141/207/141
f 141/207/141 151/223/151 149/219/149
f 2/2/2 5/5/5 3/3/3
f 17/21/17 11/14/11 10/13/10
f 13/16/13 16/19/16 12/15/12
f 10/13/10 18/22/18 17/21/17
f 19/23/19 18/22/18 21/25/21
f 21/25/21 85/121/85 22/26/22
f 21/25/21 20/24/20 19/23/19
f 23/27/23 24/28/24 20/24/20
f 27/31/27 32/38/32 29/33/29
f 30/37/30 32/38/32 46/59/46
f 32/38/32 35/44/35 45/58/45
f 33/39/33 26/159/26 34/40/34
f 33/41/33 16/19/16 26/30/26
f 37/46/37 23/27/23 22/26/22
f 37/119/37 83/117/83 38/51/38
f 40/52/40 35/44/35 36/45/36
f 24/28/24 23/27/23 35/44/35
f 40/50/40 43/55/43 41/57/41
f 47/224/47 35/44/35 41/53/41
f 45/58/45 35/44/35 47/224/47
f 52/67/52 53/73/53 51/66/51
f 49/64/49 52/67/52 50/65/50
f 2/2/2 9/12/9 5/5/5
f 65/89/65 64/88/64 59/78/59
f 58/77/58 62/84/62 59/78/59
f 59/78/59 62/84/62 65/89/65
f 63/86/63 65/89/65 62/84/62
f 56/72/56 58/77/58 51/66/51
f 85/121/85 21/25/21 64/88/64
f 22/26/22 85/121/85 82/225/82
f 64/88/64 80/122/80 85/121/85
f 60/80/60 56/79/56 68/92/68
f 65/89/65 63/86/63 70/96/70
f 72/101/72 69/99/69 76/106/76
f 68/92/68 56/79/56 55/70/55
f 76/108/76 68/92/68 73/103/73
f 76/108/76 69/94/69 68/92/68
f 77/109/77 73/103/73 74/104/74
f 78/110/78 66/90/66 65/89/65
f 64/88/64 66/90/66 80/122/80
f 82/225/82 37/46/37 22/26/22
f 38/51/38 83/117/83 39/49/39
f 81/120/81 82/225/82 85/121/85
f 90/127/90 86/123/86 88/125/88
f 71/100/71 84/118/84 79/113/79
f 101/140/101 93/136/93 92/192/92
f 102/226/102 98/137/98 2/2/2
f 103/142/103 106/146/106 97/134/97
f 102/141/102 94/131/94 98/227/98
f 102/226/102 2/2/2 1/1/1
f 95/132/95 135/196/135 96/133/96
f 109/149/109 105/145/105 121/172/121
f 111/151/111 135/196/135 95/132/95
f 110/150/110 113/228/113 111/151/111
f 103/142/103 7/8/7 106/146/106
f 34/40/34 108/148/108 107/147/107
f 117/166/117 25/29/25 28/32/28
f 28/162/28 29/34/29 31/36/31
f 89/126/89 90/127/90 91/128/91
f 120/171/120 112/152/112 114/154/114
f 115/169/115 119/168/119 118/164/118
f 99/138/99 129/188/129 127/182/127
f 126/178/126 125/177/125 128/183/128
f 134/193/134 131/229/131 130/194/130
f 132/230/132 133/195/133 130/194/130
f 132/189/132 129/188/129 99/138/99
f 99/138/99 48/63/48 2/2/2
f 133/195/133 92/129/92 96/133/96
f 132/189/132 100/139/100 101/140/101
f 133/195/133 96/133/96 135/196/135
f 126/178/126 136/197/136 124/176/124
f 138/199/138 147/216/147 136/197/136
f 131/187/131 137/198/137 126/178/126
f 141/207/141 149/219/149 140/231/140
f 137/198/137 140/202/140 138/199/138
f 149/219/149 138/218/138 140/231/140
f 144/209/144 142/208/142 139/200/139
f 144/210/144 143/206/143 142/205/142
f 77/109/77 74/104/74 145/232/145
f 145/212/145 123/214/123 148/220/148
f 112/152/112 91/128/91 143/206/143
f 143/206/143 91/128/91 150/222/150
f 151/223/151 146/215/146 149/219/149
