# www.textures.com
v 1.140726 1.093062 0.757881
v 1.702119 0.423503 0.787327
v 0.514307 0.812087 0.470798
v 0.794113 -0.324958 0.483885
v 1.902188 1.042766 1.136645
v 0.602289 2.518034 1.377681
v 0.975554 1.775480 0.969247
v -0.088047 1.938403 0.741904
v 1.650892 1.959099 1.467663
v 1.592983 2.663938 2.268954
v 0.560089 3.075025 2.274897
v 1.339108 3.074665 2.774464
v 1.781086 -0.484813 0.931911
v -0.906867 2.308825 0.800833
v -1.421580 1.554366 0.423335
v -0.006476 0.108592 0.165944
v -0.456981 0.815499 0.221301
v -0.207525 2.771802 1.485766
v -0.412296 -0.824674 0.230737
v 0.357913 -1.637804 0.632513
v 2.573332 1.351694 1.638062
v 2.367155 2.065881 2.086762
v 3.353598 1.240360 2.167848
v 2.488269 0.559459 1.362666
v 3.217185 1.887773 2.617421
v 2.150259 2.810809 2.851137
v 2.964948 2.447242 2.966331
v 2.692168 3.033233 3.480827
v 1.830230 3.421897 3.380219
v 3.746126 2.133426 3.117554
v 3.650007 2.389007 3.755913
v 3.224968 2.665218 3.756546
v 2.551126 1.426371 3.845377
v 2.503012 3.102879 3.839763
v 4.344049 1.433357 3.809225
v 4.249661 1.738210 3.474777
v -1.774943 3.083191 4.008089
v -0.839703 2.575744 3.979498
v 0.295394 3.571882 4.001033
v 1.257266 2.385922 3.898387
v 0.124551 1.774138 3.905790
v -1.010000 1.986695 3.964178
v 0.898732 1.181556 3.974537
v -0.657256 1.820217 4.835423
v 0.531156 1.009213 5.210185
v -0.849503 0.486853 5.892153
v 1.270630 0.626048 3.987432
v 1.076924 0.722885 4.561999
v 1.355156 -0.238692 4.202538
v 2.039171 -0.080498 3.970209
v 0.270146 -0.608333 5.563635
v -0.007619 0.336955 5.704185
v -1.370125 2.855101 1.468704
v -0.741549 3.149095 1.991951
v -0.897714 3.442313 2.511070
v -0.160764 3.688323 2.953869
v -1.274099 3.668636 3.069165
v -1.496595 3.649854 3.975962
v -0.723047 3.686682 4.045860
v -0.323998 3.884868 3.548302
v 0.806011 3.724678 3.688491
v 0.961960 3.477095 3.038848
v 1.514504 3.443869 3.928866
v 3.083834 -0.273930 1.722050
v 3.652597 -0.001268 2.141294
v 3.815957 -0.572544 2.818284
v 3.520340 -1.322569 2.674700
v 2.780263 -1.196650 1.884896
v 3.102179 0.510618 1.699496
v 4.023192 -0.151695 2.667308
v 4.322032 0.457967 2.718423
v 4.315783 -0.254417 3.153447
v 4.143441 -0.942014 3.286221
v 3.859942 -1.757827 3.362614
v 3.877781 -1.966822 4.056701
v 3.400570 -2.258567 4.072493
v 4.815536 -0.466159 3.608994
v 4.464259 -1.221336 3.681972
v 4.430611 -1.537502 4.126333
v 3.585711 -1.139387 4.057416
v 4.148898 1.396367 2.874221
v 4.704781 0.956004 3.380382
v 4.737366 0.814320 3.809397
v 4.845456 0.400948 3.422153
v 4.484674 0.123595 3.859698
v 3.534590 0.285208 3.872840
v 4.978404 -0.268855 4.150135
v 4.941061 0.293543 3.897490
v 4.682091 -1.031425 4.127224
v 4.183212 -0.511660 3.961849
v 0.741955 -2.344215 1.407857
v 1.599027 -1.764534 1.360510
v 1.724719 -2.469495 2.155131
v 2.695768 -2.014151 2.401607
v 2.601575 -2.551477 3.168373
v 1.401456 -3.016641 3.260572
v 0.688303 -2.972811 2.357442
v 1.284712 -1.056498 0.855246
v 2.002339 -1.227117 1.350241
v 2.417863 -0.392962 1.245601
v 2.274807 -2.748366 3.998011
v 1.937510 -1.527714 4.052288
v 0.743741 -2.479643 3.974497
v 1.383797 -3.169718 3.949116
v -0.447673 -2.050879 3.955478
v 0.674401 -1.490016 4.003853
v 0.085909 -3.382362 3.022034
v 0.043509 -1.727586 4.780305
v -1.442964 0.486241 0.061166
v -2.622628 0.608719 0.314279
v -2.430363 -0.664848 0.248968
v -2.918234 1.536023 0.774267
v -1.244072 -1.459274 0.316955
v -1.194996 -0.285753 0.017645
v -1.927463 -1.078217 0.278653
v -3.506368 -0.053742 0.655904
v -2.803491 -0.229959 0.285072
v -3.929868 0.708501 1.070778
v -1.853037 2.377571 0.991247
v -2.460518 2.426902 1.292076
v -4.531334 1.227911 2.088384
v -3.518679 2.316769 2.129653
v -3.584400 1.826648 1.445591
v -2.237743 2.952720 1.990882
v -3.057771 2.977917 2.740895
v -2.233475 3.436815 2.893543
v -2.341205 3.533472 3.544838
v -4.040392 2.227797 2.812836
v -4.463909 1.852816 3.522931
v -3.669650 2.832902 3.328225
v -4.027350 2.413852 3.975002
v -3.333183 2.964445 4.010035
v -4.277516 1.897739 3.989794
v -4.697017 0.112860 1.779433
v -5.006475 0.475464 2.534249
v -4.782444 1.273847 2.909598
v -5.099345 -0.086942 3.089038
v -5.003377 0.579276 3.884154
v -4.692041 1.101939 3.972812
v -4.959180 -0.104230 3.928873
v -3.539616 0.754827 3.956954
v -2.483281 3.338209 4.026074
v -2.845420 2.396140 3.985682
v -2.495715 1.413469 3.989694
v -2.202029 1.218577 4.884772
v -2.853473 0.011236 4.372297
v -3.150674 -0.566556 3.990220
v -3.014216 -0.594807 4.063277
v -2.200513 -0.161948 5.268281
v -1.579879 -0.017147 5.744395
v -1.372603 -1.151077 5.541175
v -0.472361 -2.006974 0.677882
v -2.616720 -1.880645 0.810667
v -1.450595 -2.107396 0.752562
v -0.768715 -2.951283 1.709229
v -1.844581 -2.847936 1.598167
v -2.679792 -2.639911 1.765281
v -4.544962 -0.781967 1.587424
v -3.468243 -1.134713 0.807389
v -4.063220 -1.617615 1.442720
v -3.445769 -2.576601 2.350633
v -4.379211 -1.698161 2.140986
v -2.464135 -3.159750 2.804973
v -4.306993 -2.066663 3.193986
v -4.935149 -0.976132 3.024982
v -3.338429 -2.821900 3.355310
v -4.641832 -1.075111 3.933637
v -4.130068 -2.030337 3.899331
v -3.215712 -1.238134 3.929743
v -1.318686 -3.363176 2.693526
v -0.670284 -3.559113 3.224950
v -1.331583 -3.492733 3.841670
v -1.849289 -3.339266 3.874102
v -2.175511 -3.325280 3.475187
v -0.244033 -3.482780 3.904903
v -3.365036 -2.642200 3.900240
v -2.586090 -3.027304 3.879385
v -2.171896 -1.561607 4.594390
v -1.181495 -2.156563 3.926108
v -2.726469 -0.794013 4.422060
v -2.374918 -1.615550 3.933057
vt 0.546067 0.730826
vt 0.495701 0.708605
vt 0.569619 0.694961
vt 0.518453 0.639439
vt 0.502583 0.755910
vt 0.624362 0.802278
vt 0.577691 0.765630
vt 0.637609 0.738521
vt 0.546903 0.806693
vt 0.575749 0.869466
vt 0.654894 0.860824
vt 0.611356 0.905067
vt 0.458756 0.661177
vt 0.692863 0.731182
vt 0.691029 0.673521
vt 0.573640 0.638540
vt 0.618779 0.664440
vt 0.679980 0.794009
vt 0.565410 0.577721
vt 0.499741 0.554262
vt 0.473854 0.800930
vt 0.507875 0.849877
vt 0.419960 0.827104
vt 0.452827 0.748013
vt 0.445928 0.877566
vt 0.547782 0.916060
vt 0.479656 0.919110
vt 0.518843 0.966484
vt 0.593922 0.959410
vt 0.416070 0.920028
vt 0.418311 0.964999
vt 0.464112 0.977301
vt 0.009769 0.236262
vt 0.097393 0.241630
vt 0.008253 0.274937
vt 0.532133 0.991213
vt 0.006220 0.185489
vt 0.034238 0.337651
vt 0.361280 0.921678
vt 0.242097 0.402062
vt 0.217121 0.334871
vt 0.260026 0.303688
vt 0.086625 0.136261
vt 0.050905 0.042202
vt 0.128256 0.052968
vt 0.159679 0.084752
vt 0.153314 0.030873
vt 0.436640 0.265951
vt 0.334559 0.198528
vt 0.429874 0.183502
vt 0.373950 0.095055
vt 0.362737 0.267361
vt 0.272613 0.226075
vt 0.171542 0.161753
vt 0.426697 0.046572
vt 0.442407 0.023789
vt 0.452538 0.073562
vt 0.481277 0.262900
vt 0.469065 0.226606
vt 0.194463 0.201591
vt 0.186586 0.231431
vt 0.564288 0.061783
vt 0.509754 0.002111
vt 0.565471 0.021228
vt 0.427981 0.117676
vt 0.632216 0.030211
vt 0.746184 0.757070
vt 0.732206 0.809601
vt 0.763559 0.833563
vt 0.733530 0.888143
vt 0.810238 0.847542
vt 0.860924 0.879100
vt 0.811361 0.926710
vt 0.766251 0.917457
vt 0.684779 0.961685
vt 0.653965 0.922453
vt 0.622641 0.991594
vt 0.018605 0.115650
vt 0.720810 0.971948
vt 0.386511 0.717996
vt 0.360306 0.758622
vt 0.303849 0.730824
vt 0.299616 0.668616
vt 0.364249 0.651394
vt 0.414269 0.766380
vt 0.320823 0.768669
vt 0.329694 0.817474
vt 0.279594 0.775161
vt 0.254978 0.720427
vt 0.241585 0.652925
vt 0.197127 0.640375
vt 0.213190 0.578056
vt 0.232245 0.784889
vt 0.215005 0.718580
vt 0.185944 0.697840
vt 0.794896 0.174070
vt 0.777353 0.141924
vt 0.823752 0.105751
vt 0.763128 0.095840
vt 0.369602 0.874025
vt 0.307402 0.875979
vt 0.324404 0.923227
vt 0.275872 0.885947
vt 0.275398 0.843590
vt 0.096449 0.398577
vt 0.050542 0.381474
vt 0.127211 0.336459
vt 0.200514 0.802869
vt 0.238230 0.846399
vt 0.186531 0.750124
vt 0.089104 0.443725
vt 0.068669 0.412673
vt 0.766818 0.060004
vt 0.768621 0.026577
vt 0.799509 0.011507
vt 0.815430 0.047553
vt 0.890060 0.045748
vt 0.129926 0.386404
vt 0.444169 0.516111
vt 0.418818 0.579636
vt 0.369066 0.532961
vt 0.326951 0.596445
vt 0.283820 0.549272
vt 0.327927 0.457737
vt 0.404229 0.456652
vt 0.466113 0.613405
vt 0.415162 0.624761
vt 0.425292 0.686689
vt 0.840044 0.247324
vt 0.899693 0.188324
vt 0.932979 0.287671
vt 0.248339 0.497792
vt 0.297333 0.424450
vt 0.874502 0.301554
vt 0.986923 0.284179
vt 0.972849 0.232330
vt 0.411191 0.387175
vt 0.949144 0.103368
vt 0.976863 0.143472
vt 0.559854 0.151217
vt 0.494685 0.161991
vt 0.656628 0.617075
vt 0.719362 0.590118
vt 0.670784 0.530293
vt 0.769223 0.627626
vt 0.588931 0.520660
vt 0.620719 0.584926
vt 0.633696 0.521441
vt 0.746232 0.528346
vt 0.701659 0.541270
vt 0.798189 0.553461
vt 0.746623 0.706470
vt 0.786171 0.692588
vt 0.873281 0.555828
vt 0.864995 0.657136
vt 0.827375 0.623510
vt 0.811328 0.740744
vt 0.883687 0.722060
vt 0.854231 0.786706
vt 0.893328 0.807686
vt 0.916322 0.634124
vt 0.966678 0.593205
vt 0.938777 0.694447
vt 0.987660 0.660016
vt 0.963453 0.745456
vt 0.995361 0.582053
vt 0.833284 0.490316
vt 0.886917 0.489782
vt 0.925089 0.543237
vt 0.897755 0.435145
vt 0.967505 0.469344
vt 0.986267 0.517075
vt 0.101014 0.633677
vt 0.067402 0.636602
vt 0.136682 0.600168
vt 0.095621 0.532203
vt 0.177255 0.562747
vt 0.923201 0.820161
vt 0.195497 0.468866
vt 0.256184 0.445968
vt 0.234925 0.497682
vt 0.177807 0.343321
vt 0.207689 0.540684
vt 0.127699 0.448771
vt 0.207365 0.152478
vt 0.260673 0.126404
vt 0.207050 0.050871
vt 0.173983 0.023497
vt 0.014175 0.530811
vt 0.189276 0.015296
vt 0.281924 0.033628
vt 0.335042 0.049990
vt 0.684179 0.062591
vt 0.661869 0.113988
vt 0.531059 0.508538
vt 0.646905 0.453576
vt 0.578591 0.473020
vt 0.506570 0.425349
vt 0.574525 0.401637
vt 0.629912 0.382742
vt 0.790459 0.449401
vt 0.712745 0.471909
vt 0.735598 0.419789
vt 0.681543 0.346043
vt 0.762078 0.383651
vt 0.598184 0.317057
vt 0.771080 0.316206
vt 0.848297 0.382883
vt 0.674054 0.281337
vt 0.870240 0.325027
vt 0.924995 0.382127
vt 0.016127 0.617651
vt 0.779284 0.272854
vt 0.113550 0.925787
vt 0.173163 0.874524
vt 0.172230 0.965777
vt 0.513924 0.347483
vt 0.452269 0.339372
vt 0.487256 0.280460
vt 0.547101 0.258255
vt 0.565535 0.278287
vt 0.398793 0.324038
vt 0.680207 0.248678
vt 0.605886 0.248203
vt 0.697118 0.189285
vt 0.107760 0.732075
vt 0.073496 0.689632
vt 0.105770 0.679400
vt 0.567942 0.213217
vt 0.635694 0.229672
vt 0.029196 0.757815
vt 0.014978 0.684867
vt 0.208318 0.863832
vt 0.219669 0.884134
vt 0.233219 0.015160
vt 0.726116 0.107763
vt 0.758092 0.176866
vt 0.781815 0.200635
vt 0.708969 0.230122
vt 0.154332 0.810309
vt 0.063152 0.823900
vt 0.081193 0.873635
vt 0.992093 0.121858
vt 0.289283 0.337273
vt 0.282090 0.369436
vt 0.928102 0.352514
vt 0.039759 0.782682
vn 0.3490 0.3153 -0.8825
vn 0.4403 0.1116 -0.8909
vn 0.2852 0.2340 -0.9294
vn 0.3374 -0.1038 -0.9356
vn 0.4726 0.3321 -0.8163
vn 0.2680 0.7112 -0.6499
vn 0.3397 0.4570 -0.8220
vn 0.1959 0.4920 -0.8483
vn 0.4362 0.5673 -0.6985
vn 0.3669 0.7566 -0.5413
vn 0.2377 0.8196 -0.5213
vn 0.3200 0.7548 -0.5726
vn 0.4379 -0.2056 -0.8752
vn 0.0559 0.6128 -0.7882
vn -0.0692 0.4069 -0.9108
vn 0.2459 0.0288 -0.9689
vn 0.1426 0.2666 -0.9532
vn 0.1433 0.7907 -0.5952
vn 0.1818 -0.2376 -0.9542
vn 0.2818 -0.4338 -0.8558
vn 0.5067 0.4111 -0.7578
vn 0.4635 0.6326 -0.6204
vn 0.5747 0.3867 -0.7212
vn 0.5307 0.1479 -0.8345
vn 0.4759 0.5729 -0.6674
vn 0.3702 0.7239 -0.5822
vn 0.4651 0.7016 -0.5399
vn 0.5115 0.8201 -0.2566
vn 0.3440 0.8991 -0.2705
vn 0.5515 0.6891 -0.4700
vn 0.4839 0.6809 0.5497
vn 0.5347 0.6538 0.5355
vn 0.0530 0.0446 0.9976
vn 0.3491 0.6168 0.7054
vn 0.5459 0.3543 0.7592
vn 0.8058 0.5882 -0.0682
vn 0.0089 -0.0024 1.0000
vn 0.0233 -0.0389 0.9990
vn 0.0691 0.4631 0.8836
vn 0.0430 -0.0064 0.9991
vn 0.2484 0.4386 0.8636
vn -0.0543 0.5248 0.8495
vn 0.3925 0.4428 0.8062
vn 0.0568 0.8674 0.4943
vn 0.5817 0.5010 0.6408
vn -0.0441 0.2600 0.9646
vn 0.5412 0.2504 0.8028
vn 0.8375 0.3202 0.4429
vn 0.5412 -0.0328 0.8402
vn 0.1424 0.0846 0.9862
vn 0.5031 -0.3023 0.8096
vn 0.3798 0.1444 0.9137
vn -0.0872 0.8275 -0.5547
vn 0.0815 0.8652 -0.4947
vn -0.0251 0.8826 -0.4695
vn 0.0962 0.8996 -0.4261
vn -0.1388 0.9568 -0.2556
vn -0.1541 0.7358 0.6595
vn -0.0029 0.5416 0.8406
vn 0.0353 0.9981 0.0495
vn 0.1720 0.9730 0.1536
vn 0.2448 0.8495 -0.4674
vn 0.2425 0.5973 0.7645
vn 0.6276 -0.1879 -0.7556
vn 0.6805 -0.1931 -0.7069
vn 0.7147 -0.3319 -0.6156
vn 0.6960 -0.3542 -0.6246
vn 0.5899 -0.4024 -0.7000
vn 0.5837 0.1236 -0.8025
vn 0.7048 -0.4232 -0.5694
vn 0.7365 -0.0236 -0.6760
vn 0.6736 -0.3234 -0.6645
vn 0.6619 -0.2877 -0.6922
vn 0.6624 -0.6086 -0.4368
vn 0.4829 -0.6660 0.5685
vn 0.3876 -0.6717 0.6314
vn 0.8316 -0.2693 -0.4857
vn 0.7468 -0.4632 -0.4772
vn 0.6007 -0.5837 0.5463
vn -0.0334 0.0803 0.9962
vn 0.6677 0.4187 -0.6156
vn 0.8938 0.3653 -0.2602
vn 0.6720 0.3224 0.6667
vn 0.9133 0.0332 -0.4058
vn -0.0991 0.1661 0.9811
vn 0.0263 0.0785 0.9966
vn 0.6581 0.0252 0.7525
vn 0.7671 0.2640 0.5847
vn 0.6887 -0.2535 0.6793
vn -0.0406 0.1797 0.9829
vn 0.2935 -0.7166 -0.6327
vn 0.4526 -0.5152 -0.7278
vn 0.3920 -0.7673 -0.5075
vn 0.5369 -0.6174 -0.5749
vn 0.4414 -0.8540 -0.2754
vn 0.3405 -0.9089 -0.2408
vn 0.2696 -0.8705 -0.4118
vn 0.4200 -0.2945 -0.8584
vn 0.5034 -0.3690 -0.7813
vn 0.5442 -0.1658 -0.8224
vn 0.2581 -0.7055 0.6600
vn 0.0055 -0.0224 0.9997
vn -0.0269 -0.0439 0.9987
vn 0.2499 -0.7629 0.5963
vn 0.1090 -0.5821 0.8058
vn 0.3205 -0.3662 0.8736
vn 0.1943 -0.9518 -0.2375
vn 0.3782 -0.7838 0.4926
vn -0.0602 0.1658 -0.9843
vn -0.3031 0.2095 -0.9296
vn -0.2372 -0.1969 -0.9513
vn -0.3850 0.4477 -0.8071
vn -0.0126 -0.3974 -0.9175
vn 0.0019 -0.0795 -0.9968
vn -0.1643 -0.3202 -0.9330
vn -0.5518 0.0211 -0.8337
vn -0.2995 -0.0324 -0.9535
vn -0.6362 0.2388 -0.7337
vn -0.1977 0.6582 -0.7264
vn -0.3545 0.7259 -0.5894
vn -0.7775 0.4457 -0.4438
vn -0.5483 0.7134 -0.4365
vn -0.5689 0.5866 -0.5764
vn -0.2918 0.8269 -0.4807
vn -0.4625 0.8076 -0.3659
vn -0.2858 0.9018 -0.3242
vn -0.3237 0.9459 0.0221
vn -0.7061 0.6451 -0.2919
vn -0.8491 0.5238 0.0685
vn -0.6167 0.7764 -0.1303
vn -0.5607 0.4730 0.6796
vn -0.3681 0.5687 0.7356
vn -0.5210 0.2574 0.8138
vn -0.8501 0.0566 -0.5236
vn -0.9620 0.1474 -0.2299
vn -0.8920 0.4359 -0.1197
vn -0.9970 -0.0519 -0.0580
vn -0.8282 0.1650 0.5356
vn -0.5186 0.2483 0.8182
vn -0.6665 -0.1070 0.7378
vn -0.0187 -0.0061 0.9998
vn -0.2177 0.5623 0.7978
vn -0.0083 -0.0215 0.9997
vn -0.3326 0.3020 0.8934
vn -0.5837 0.5735 0.5748
vn -0.8734 0.1447 0.4650
vn -0.3118 -0.0453 0.9491
vn -0.5890 -0.2217 0.7772
vn -0.6963 -0.0587 0.7153
vn -0.3972 0.0108 0.9177
vn -0.2226 -0.5448 0.8085
vn 0.1226 -0.5935 -0.7954
vn -0.2835 -0.5857 -0.7593
vn -0.0855 -0.6519 -0.7534
vn 0.0757 -0.8483 -0.5241
vn -0.1812 -0.8125 -0.5541
vn -0.3343 -0.7953 -0.5056
vn -0.8197 -0.1736 -0.5459
vn -0.4798 -0.2987 -0.8250
vn -0.6162 -0.5201 -0.5914
vn -0.5033 -0.8079 -0.3066
vn -0.7769 -0.5591 -0.2895
vn -0.3132 -0.9238 -0.2202
vn -0.7589 -0.6505 0.0311
vn -0.9455 -0.3243 -0.0285
vn -0.5141 -0.8560 0.0550
vn -0.5822 -0.2666 0.7681
vn -0.5112 -0.4472 0.7340
vn -0.0455 -0.0843 0.9954
vn -0.0908 -0.9550 -0.2824
vn 0.0309 -0.9861 -0.1630
vn -0.1103 -0.7669 0.6322
vn -0.1836 -0.6258 0.7581
vn -0.2996 -0.9527 0.0503
vn 0.0756 -0.7299 0.6794
vn -0.3448 -0.5438 0.7651
vn -0.2579 -0.5781 0.7741
vn -0.5267 -0.6937 0.4912
vn -0.0726 -0.4647 0.8825
vn -0.7851 -0.3197 0.5306
vn -0.3536 -0.4228 0.8344
s 1
f 1/1/1 2/2/2 3/3/3
f 4/4/4 3/3/3 2/2/2
f 5/5/5 2/2/2 1/1/1
f 6/6/6 7/7/7 8/8/8
f 1/1/1 7/7/7 5/5/5
f 9/9/9 5/5/5 7/7/7
f 6/6/6 9/9/9 7/7/7
f 10/10/10 9/9/9 6/6/6
f 11/11/11 10/10/10 6/6/6
f 10/10/10 11/11/11 12/12/12
f 4/4/4 2/2/2 13/13/13
f 14/14/14 8/8/8 15/15/15
f 16/16/16 3/3/3 4/4/4
f 17/17/17 3/3/3 16/16/16
f 15/15/15 8/8/8 17/17/17
f 3/3/3 17/17/17 8/8/8
f 14/14/14 18/18/18 8/8/8
f 19/19/19 16/16/16 4/4/4
f 20/20/20 19/19/19 4/4/4
f 21/21/21 22/22/22 23/23/23
f 24/24/24 5/5/5 21/21/21
f 23/23/23 22/22/22 25/25/25
f 10/10/10 26/26/26 22/22/22
f 22/22/22 27/27/27 25/25/25
f 26/26/26 27/27/27 22/22/22
f 26/26/26 28/28/28 27/27/27
f 26/26/26 10/10/10 12/12/12
f 29/29/29 28/28/28 26/26/26
f 25/25/25 27/27/27 30/30/30
f 27/27/27 31/31/31 30/30/30
f 27/27/27 32/32/32 31/31/31
f 28/28/28 32/32/32 27/27/27
f 32/33/32 33/34/33 31/35/31
f 28/28/28 34/36/34 32/32/32
f 33/34/33 32/33/32 34/37/34
f 35/38/35 31/35/31 33/34/33
f 30/30/30 31/31/31 36/39/36
f 37/40/37 38/41/38 39/42/39
f 40/43/40 39/44/39 38/45/38
f 41/46/41 38/45/38 42/47/42
f 38/45/38 41/46/41 40/43/40
f 43/48/43 44/49/44 45/50/45
f 46/51/46 45/50/45 44/49/44
f 41/52/41 44/49/44 43/48/43
f 42/53/42 44/49/44 41/52/41
f 43/54/43 33/34/33 40/43/40
f 47/55/47 48/56/48 49/57/49
f 47/58/47 43/48/43 48/59/48
f 33/34/33 43/54/43 47/60/47
f 33/34/33 47/60/47 50/61/50
f 51/62/51 45/63/45 52/64/52
f 45/50/45 48/59/48 43/48/43
f 45/63/45 49/57/49 48/56/48
f 45/50/45 46/51/46 52/65/52
f 51/62/51 49/57/49 45/63/45
f 46/66/46 51/62/51 52/64/52
f 18/18/18 14/14/14 53/67/53
f 11/11/11 18/18/18 54/68/54
f 54/68/54 55/69/55 11/11/11
f 56/70/56 11/11/11 55/69/55
f 57/71/57 56/70/56 55/69/55
f 58/72/58 59/73/59 60/74/60
f 57/71/57 58/72/58 60/74/60
f 57/71/57 60/74/60 56/70/56
f 53/67/53 55/69/55 54/68/54
f 54/68/54 18/18/18 53/67/53
f 60/74/60 61/75/61 62/76/62
f 60/74/60 62/76/62 56/70/56
f 29/29/29 26/26/26 12/12/12
f 12/12/12 62/76/62 29/29/29
f 62/76/62 61/75/61 29/29/29
f 61/75/61 63/77/63 29/29/29
f 29/29/29 34/36/34 28/28/28
f 29/29/29 63/77/63 34/36/34
f 40/43/40 34/37/34 63/78/63
f 59/73/59 39/79/39 60/74/60
f 63/77/63 61/75/61 39/79/39
f 63/78/63 39/44/39 40/43/40
f 60/74/60 39/79/39 61/75/61
f 64/80/64 65/81/65 66/82/66
f 64/80/64 67/83/67 68/84/68
f 65/81/65 64/80/64 69/85/69
f 69/85/69 64/80/64 24/24/24
f 66/82/66 67/83/67 64/80/64
f 65/81/65 70/86/70 66/82/66
f 70/86/70 71/87/71 72/88/72
f 70/86/70 65/81/65 71/87/71
f 71/87/71 65/81/65 23/23/23
f 73/89/73 66/82/66 72/88/72
f 72/88/72 66/82/66 70/86/70
f 65/81/65 69/85/69 23/23/23
f 67/83/67 73/89/73 74/90/74
f 74/90/74 75/91/75 76/92/76
f 77/93/77 78/94/78 73/89/73
f 78/94/78 75/91/75 74/90/74
f 79/95/79 75/91/75 78/94/78
f 73/89/73 78/94/78 74/90/74
f 76/96/76 75/97/75 80/98/80
f 75/97/75 79/99/79 80/98/80
f 25/25/25 81/100/81 23/23/23
f 82/101/82 81/100/81 36/39/36
f 82/101/82 35/102/35 83/103/83
f 84/104/84 82/101/82 83/103/83
f 82/101/82 36/39/36 35/102/35
f 31/31/31 35/102/35 36/39/36
f 71/87/71 82/101/82 84/104/84
f 71/87/71 81/100/81 82/101/82
f 85/105/85 83/106/83 86/107/86
f 35/38/35 33/34/33 86/107/86
f 87/108/87 77/93/77 88/109/88
f 77/93/77 89/110/89 78/94/78
f 77/93/77 87/108/87 89/110/89
f 85/105/85 87/111/87 88/112/88
f 89/113/89 87/114/87 85/115/85
f 80/98/80 90/116/90 86/117/86
f 90/118/90 85/105/85 86/107/86
f 80/98/80 89/113/89 90/116/90
f 90/116/90 89/113/89 85/115/85
f 88/109/88 77/93/77 84/104/84
f 91/119/91 92/120/92 93/121/93
f 92/120/92 94/122/94 93/121/93
f 94/122/94 95/123/95 93/121/93
f 74/90/74 95/123/95 94/122/94
f 93/121/93 95/123/95 96/124/96
f 93/121/93 96/124/96 97/125/97
f 68/84/68 67/83/67 94/122/94
f 98/126/98 13/13/13 99/127/99
f 99/127/99 68/84/68 92/120/92
f 13/13/13 100/128/100 99/127/99
f 4/4/4 13/13/13 98/126/98
f 92/120/92 98/126/98 99/127/99
f 98/126/98 92/120/92 20/20/20
f 92/120/92 91/119/91 20/20/20
f 99/127/99 100/128/100 68/84/68
f 101/129/101 102/130/102 103/131/103
f 101/129/101 76/96/76 102/130/102
f 101/132/101 96/124/96 95/123/95
f 101/132/101 104/133/104 96/124/96
f 104/134/104 101/129/101 103/131/103
f 105/135/105 103/131/103 106/136/106
f 107/137/107 96/124/96 104/133/104
f 102/130/102 76/96/76 80/98/80
f 102/130/102 86/117/86 50/138/50
f 102/130/102 50/138/50 49/139/49
f 80/98/80 86/117/86 102/130/102
f 108/140/108 106/141/106 49/57/49
f 108/140/108 49/57/49 51/62/51
f 102/130/102 49/139/49 106/136/106
f 15/15/15 109/142/109 110/143/110
f 111/144/111 110/143/110 109/142/109
f 15/15/15 17/17/17 109/142/109
f 15/15/15 110/143/110 112/145/112
f 113/146/113 114/147/114 19/19/19
f 114/147/114 109/142/109 17/17/17
f 115/148/115 111/144/111 114/147/114
f 111/144/111 109/142/109 114/147/114
f 116/149/116 110/143/110 117/150/117
f 116/149/116 118/151/118 110/143/110
f 110/143/110 118/151/118 112/145/112
f 111/144/111 117/150/117 110/143/110
f 119/152/119 15/15/15 112/145/112
f 119/152/119 53/67/53 14/14/14
f 120/153/120 119/152/119 112/145/112
f 14/14/14 15/15/15 119/152/119
f 121/154/121 122/155/122 123/156/123
f 121/154/121 123/156/123 118/151/118
f 120/153/120 123/156/123 124/157/124
f 123/156/123 120/153/120 112/145/112
f 122/155/122 125/158/125 124/157/124
f 126/159/126 55/69/55 124/157/124
f 124/157/124 125/158/125 126/159/126
f 124/157/124 53/67/53 119/152/119
f 125/158/125 127/160/127 126/159/126
f 57/71/57 126/159/126 127/160/127
f 121/154/121 128/161/128 122/155/122
f 128/161/128 129/162/129 130/163/130
f 130/163/130 129/162/129 131/164/131
f 127/160/127 125/158/125 130/163/130
f 131/164/131 132/165/132 130/163/130
f 129/162/129 133/166/133 131/164/131
f 134/167/134 121/154/121 118/151/118
f 135/168/135 136/169/136 121/154/121
f 135/168/135 121/154/121 134/167/134
f 135/168/135 137/170/137 136/169/136
f 138/171/138 136/169/136 137/170/137
f 138/171/138 139/172/139 129/162/129
f 129/162/129 139/172/139 133/166/133
f 138/173/138 140/174/140 139/175/139
f 141/176/141 139/175/139 140/174/140
f 141/176/141 133/177/133 139/175/139
f 138/171/138 129/162/129 136/169/136
f 127/160/127 132/165/132 142/178/142
f 132/165/132 127/160/127 130/163/130
f 127/160/127 142/178/142 58/72/58
f 143/179/143 142/180/142 132/181/132
f 37/40/37 142/180/142 143/179/143
f 37/40/37 42/182/42 38/41/38
f 143/179/143 131/183/131 133/177/133
f 143/179/143 132/181/132 131/183/131
f 144/184/144 37/40/37 143/179/143
f 144/185/144 145/186/145 42/53/42
f 145/186/145 44/49/44 42/53/42
f 144/184/144 42/182/42 37/40/37
f 133/177/133 141/176/141 143/179/143
f 141/176/141 144/184/144 143/179/143
f 145/186/145 144/185/144 146/187/146
f 144/185/144 147/188/147 146/187/146
f 147/189/147 144/184/144 141/176/141
f 148/190/148 146/187/146 147/188/147
f 149/191/149 145/186/145 146/187/146
f 150/192/150 46/51/46 145/186/145
f 149/191/149 150/192/150 145/186/145
f 46/51/46 44/49/44 145/186/145
f 150/193/150 151/194/151 46/66/46
f 151/194/151 51/62/51 46/66/46
f 152/195/152 113/146/113 19/19/19
f 152/195/152 19/19/19 20/20/20
f 114/147/114 113/146/113 115/148/115
f 113/146/113 153/196/153 115/148/115
f 153/196/153 111/144/111 115/148/115
f 113/146/113 154/197/154 153/196/153
f 155/198/155 156/199/156 154/197/154
f 154/197/154 156/199/156 157/200/157
f 154/197/154 113/146/113 152/195/152
f 157/200/157 153/196/153 154/197/154
f 158/201/158 134/167/134 116/149/116
f 116/149/116 159/202/159 158/201/158
f 159/202/159 117/150/117 111/144/111
f 116/149/116 117/150/117 159/202/159
f 159/202/159 160/203/160 158/201/158
f 159/202/159 153/196/153 160/203/160
f 161/204/161 162/205/162 160/203/160
f 157/200/157 160/203/160 153/196/153
f 157/200/157 161/204/161 160/203/160
f 157/200/157 163/206/163 161/204/161
f 162/205/162 164/207/164 165/208/165
f 162/205/162 165/208/165 158/201/158
f 165/208/165 134/167/134 158/201/158
f 160/203/160 162/205/162 158/201/158
f 161/204/161 164/207/164 162/205/162
f 164/207/164 161/204/161 166/209/166
f 167/210/167 140/211/140 165/208/165
f 164/207/164 167/210/167 165/208/165
f 165/208/165 140/211/140 137/170/137
f 140/211/140 138/171/138 137/170/137
f 140/174/140 167/212/167 141/176/141
f 164/207/164 168/213/168 167/210/167
f 168/214/168 169/215/169 167/216/167
f 137/170/137 135/168/135 134/167/134
f 155/198/155 97/125/97 107/137/107
f 152/195/152 91/119/91 155/198/155
f 152/195/152 20/20/20 91/119/91
f 107/137/107 170/217/170 155/198/155
f 156/199/156 155/198/155 170/217/170
f 170/217/170 107/137/107 171/218/171
f 156/199/156 163/206/163 157/200/157
f 172/219/172 173/220/173 174/221/174
f 172/219/172 174/221/174 170/217/170
f 170/217/170 171/218/171 172/219/172
f 170/217/170 174/221/174 163/206/163
f 171/218/171 175/222/175 172/219/172
f 166/209/166 168/213/168 164/207/164
f 168/213/168 166/209/166 176/223/176
f 174/221/174 166/209/166 163/206/163
f 161/204/161 163/206/163 166/209/166
f 166/209/166 177/224/177 176/223/176
f 173/220/173 177/224/177 174/221/174
f 178/225/178 108/140/108 151/194/151
f 179/226/179 103/227/103 105/228/105
f 105/229/105 108/140/108 179/230/179
f 108/140/108 178/225/178 179/230/179
f 172/231/172 175/232/175 179/226/179
f 175/232/175 103/227/103 179/226/179
f 104/133/104 175/222/175 107/137/107
f 108/140/108 51/62/51 151/194/151
f 148/233/148 147/234/147 169/215/169
f 147/234/147 167/216/167 169/215/169
f 148/190/148 180/235/180 146/187/146
f 178/225/178 149/236/149 180/237/180
f 151/194/151 149/236/149 178/225/178
f 148/238/148 181/239/181 178/225/178
f 181/240/181 148/233/148 169/215/169
f 178/225/178 180/237/180 148/238/148
f 179/226/179 181/240/181 177/241/177
f 179/230/179 178/225/178 181/239/181
f 169/215/169 177/241/177 181/240/181
f 176/242/176 169/215/169 168/214/168
f 177/241/177 169/215/169 176/242/176
f 3/3/3 8/8/8 1/1/1
f 8/8/8 7/7/7 1/1/1
f 22/22/22 21/21/21 9/9/9
f 21/21/21 5/5/5 9/9/9
f 24/24/24 2/2/2 5/5/5
f 6/6/6 18/18/18 11/11/11
f 18/18/18 6/6/6 8/8/8
f 22/22/22 9/9/9 10/10/10
f 21/21/21 69/85/69 24/24/24
f 21/21/21 23/23/23 69/85/69
f 81/100/81 25/25/25 30/30/30
f 40/43/40 41/46/41 43/54/43
f 49/139/49 50/138/50 47/243/47
f 56/70/56 62/76/62 11/11/11
f 37/40/37 59/244/59 58/245/58
f 126/159/126 57/71/57 55/69/55
f 12/12/12 11/11/11 62/76/62
f 33/34/33 34/37/34 40/43/40
f 39/42/39 59/244/59 37/40/37
f 100/128/100 24/24/24 64/80/64
f 94/122/94 67/83/67 74/90/74
f 66/82/66 73/89/73 67/83/67
f 72/88/72 77/93/77 73/89/73
f 72/88/72 84/104/84 77/93/77
f 71/87/71 84/104/84 72/88/72
f 23/23/23 81/100/81 71/87/71
f 84/104/84 83/103/83 88/109/88
f 30/30/30 36/39/36 81/100/81
f 85/105/85 88/112/88 83/106/83
f 86/107/86 83/106/83 35/38/35
f 79/95/79 78/94/78 89/110/89
f 80/98/80 79/99/79 89/113/89
f 68/84/68 94/122/94 92/120/92
f 74/90/74 76/92/76 95/123/95
f 91/119/91 93/121/93 97/125/97
f 4/4/4 98/126/98 20/20/20
f 13/13/13 2/2/2 100/128/100
f 68/84/68 100/128/100 64/80/64
f 24/24/24 100/128/100 2/2/2
f 101/132/101 95/123/95 76/92/76
f 96/124/96 107/137/107 97/125/97
f 106/141/106 108/140/108 105/229/105
f 175/246/175 104/134/104 103/131/103
f 103/131/103 102/130/102 106/136/106
f 50/61/50 86/107/86 33/34/33
f 114/147/114 17/17/17 16/16/16
f 114/147/114 16/16/16 19/19/19
f 123/156/123 112/145/112 118/151/118
f 120/153/120 124/157/124 119/152/119
f 123/156/123 122/155/122 124/157/124
f 128/161/128 125/158/125 122/155/122
f 53/67/53 124/157/124 55/69/55
f 127/160/127 58/72/58 57/71/57
f 136/169/136 128/161/128 121/154/121
f 136/169/136 129/162/129 128/161/128
f 128/161/128 130/163/130 125/158/125
f 37/40/37 58/245/58 142/180/142
f 159/202/159 111/144/111 153/196/153
f 134/167/134 118/151/118 116/149/116
f 141/176/141 167/212/167 147/189/147
f 134/167/134 165/208/165 137/170/137
f 152/195/152 155/198/155 154/197/154
f 91/119/91 97/125/97 155/198/155
f 170/217/170 163/206/163 156/199/156
f 173/247/173 172/231/172 179/226/179
f 171/218/171 107/137/107 175/222/175
f 166/209/166 174/221/174 177/224/177
f 151/194/151 150/193/150 149/236/149
f 180/235/180 149/191/149 146/187/146
f 179/226/179 177/241/177 173/247/173
