# www.textures.com
v -2.235701 -0.203783 0.091766
v -2.020630 0.980220 0.777552
v -2.158785 0.695731 0.085869
v -1.754216 0.024083 0.050884
v -2.215283 -0.197586 1.505664
v -1.382206 1.010277 0.072015
v -1.672307 1.674675 0.069969
v -1.144843 2.032883 0.083049
v -1.390700 1.889453 0.751446
v -2.111689 -0.913463 0.530095
v -1.670607 -1.454245 0.046033
v -0.846478 -1.390603 0.088016
v -0.199545 1.414411 0.040348
v -0.205509 0.202857 0.073088
v -0.585216 2.124830 0.780987
v -0.080053 2.199478 0.022856
v 1.016217 1.008868 0.013769
v 1.127152 1.989727 0.052390
v 1.697826 1.432423 0.027088
v 0.410128 2.207398 1.076291
v 1.231360 1.971470 1.558005
v -2.130795 -0.748980 1.511965
v -1.887522 -1.066015 1.614380
v -1.526788 0.161166 1.553829
v -2.151048 0.472761 1.551791
v -1.865658 1.209316 1.564127
v -0.645721 0.962421 1.575491
v -1.699189 1.589516 1.566050
v -0.778303 2.177147 1.543662
v -0.909158 1.561260 1.607206
v 0.417910 1.652539 1.682601
v 0.172557 2.120570 1.576162
v -0.833239 -1.999282 0.075376
v -1.094889 -1.867154 0.477738
v 0.170354 -2.119383 0.016644
v 0.237197 -1.101679 -0.015541
v -0.198558 -2.158169 0.819430
v -1.275858 -1.714585 1.214168
v 0.849697 -2.105302 0.784216
v 1.129241 -1.902290 0.045636
v 0.872651 -2.121911 1.581412
v -0.627265 -2.075788 1.651213
v 0.189637 -1.865854 1.676430
v 1.733249 -1.543461 1.672148
v 1.765385 -1.346590 0.731271
v 1.205697 -0.978883 1.704801
v -1.399402 -1.499517 1.640737
v -1.011952 -1.272699 1.530148
v -0.376196 -1.362663 1.720024
v -0.947597 -0.445620 1.636610
v 0.477149 -0.511365 1.688303
v -0.499439 0.121344 1.613173
v -0.370053 0.376007 1.608265
v 1.939163 -0.597236 1.666714
v 1.926362 0.431242 0.595067
v 1.947182 -0.355335 0.071230
v 1.830647 0.908495 1.030397
v 1.493388 -0.512779 0.021316
v 1.695655 -1.297060 0.005678
v 0.791843 -0.473642 0.002453
v 1.786152 0.917886 0.039503
v 1.412347 0.247407 1.700628
v 0.742919 0.975809 1.697754
v 1.861719 0.689591 1.622062
v 1.518342 1.460748 1.686404
vt 0.860123 0.128278
vt 0.903439 0.245337
vt 0.831552 0.198421
vt 0.441289 0.452623
vt 0.493654 0.416734
vt 0.499949 0.527980
vt 0.923981 0.154559
vt 0.412285 0.576679
vt 0.450709 0.646089
vt 0.380385 0.704720
vt 0.823152 0.321687
vt 0.896460 0.372582
vt 0.126812 0.063491
vt 0.046580 0.159503
vt 0.060369 0.016718
vt 0.427878 0.281734
vt 0.324003 0.293611
vt 0.268939 0.641175
vt 0.259306 0.490655
vt 0.899116 0.466904
vt 0.822556 0.411628
vt 0.815116 0.518576
vt 0.120489 0.597021
vt 0.133299 0.716615
vt 0.044382 0.660028
vt 0.268764 0.731732
vt 0.930412 0.577782
vt 0.815915 0.654990
vt 0.978051 0.675404
vt 0.811483 0.754096
vt 0.107336 0.170326
vt 0.477789 0.766229
vt 0.558073 0.831063
vt 0.404398 0.836037
vt 0.402353 0.744756
vt 0.989614 0.188626
vt 0.988673 0.272352
vt 0.292416 0.752965
vt 0.276999 0.920207
vt 0.987589 0.327562
vt 0.158654 0.831016
vt 0.240126 0.761277
vt 0.208592 0.863630
vt 0.982697 0.445748
vt 0.523206 0.690092
vt 0.539402 0.614879
vt 0.625267 0.690183
vt 0.612872 0.747901
vt 0.574126 0.769005
vt 0.985487 0.574317
vt 0.711552 0.725803
vt 0.313021 0.219451
vt 0.315837 0.011477
vt 0.281025 0.059548
vt 0.202847 0.015738
vt 0.200446 0.218023
vt 0.199534 0.338938
vt 0.432513 0.013948
vt 0.387888 0.101943
vt 0.257551 0.141451
vt 0.505748 0.100654
vt 0.546184 0.019908
vt 0.087657 0.253322
vt 0.509305 0.189094
vt 0.345159 0.191687
vt 0.697691 0.246566
vt 0.615765 0.264653
vt 0.554534 0.228812
vt 0.617860 0.198939
vt 0.638973 0.095185
vt 0.782916 0.315863
vt 0.717240 0.374391
vt 0.237205 0.185968
vt 0.651047 0.966962
vt 0.577828 0.930292
vt 0.616579 0.884108
vt 0.539819 0.312943
vt 0.465054 0.944638
vt 0.570808 0.986887
vt 0.509092 0.389779
vt 0.626208 0.425396
vt 0.531646 0.483120
vt 0.526092 0.539741
vt 0.738156 0.193725
vt 0.764902 0.134390
vt 0.802607 0.423100
vt 0.758071 0.030145
vt 0.804506 0.151050
vt 0.053202 0.415748
vt 0.007078 0.443264
vt 0.030496 0.321983
vt 0.636080 0.011147
vt 0.139812 0.418922
vt 0.021209 0.589662
vt 0.809058 0.834793
vt 0.867356 0.858579
vt 0.924109 0.820962
vt 0.732760 0.520045
vt 0.655733 0.602941
vt 0.804270 0.188553
vt 0.750359 0.656399
vt 0.987780 0.729909
vt 0.983094 0.843279
vt 0.524874 0.794145
vt 0.381098 0.972824
vt 0.334922 0.950781
vt 0.166993 0.180698
vt 0.820817 0.897294
vt 0.792096 0.576992
vn -0.7718 -0.0415 -0.6346
vn -0.9318 0.3616 0.0308
vn -0.7690 0.1807 -0.6132
vn -0.0311 0.0053 -0.9995
vn -0.7790 0.0114 0.6269
vn -0.0108 0.0052 -0.9999
vn -0.5851 0.5007 -0.6379
vn -0.2860 0.7154 -0.6375
vn -0.5785 0.8152 0.0296
vn -0.8879 -0.4539 -0.0752
vn -0.5379 -0.5425 -0.6453
vn -0.0131 0.0080 -0.9999
vn -0.0220 -0.0099 -0.9997
vn -0.0296 0.0035 -0.9996
vn -0.1637 0.9860 -0.0301
vn -0.0200 0.7185 -0.6953
vn -0.0034 0.0121 -0.9999
vn 0.3479 0.6753 -0.6503
vn 0.6739 0.3643 -0.6427
vn 0.1164 0.9915 0.0585
vn 0.4636 0.7054 0.5362
vn -0.8254 -0.3074 0.4735
vn -0.5852 -0.4554 0.6709
vn -0.0481 0.0229 0.9986
vn -0.7402 0.1139 0.6627
vn -0.6441 0.2525 0.7220
vn -0.0512 -0.0214 0.9985
vn -0.5981 0.4915 0.6330
vn -0.2024 0.7797 0.5925
vn -0.0407 0.0290 0.9988
vn -0.0197 0.1173 0.9929
vn 0.0365 0.7023 0.7109
vn -0.2747 -0.7018 -0.6573
vn -0.5010 -0.8645 0.0403
vn 0.0087 -0.7073 -0.7069
vn -0.0325 0.0022 -0.9995
vn -0.1330 -0.9911 -0.0032
vn -0.5901 -0.8037 0.0765
vn 0.3367 -0.9397 -0.0595
vn 0.3966 -0.6412 -0.6570
vn 0.2524 -0.7776 0.5758
vn -0.2811 -0.7184 0.6363
vn 0.0356 -0.1582 0.9868
vn 0.6368 -0.4751 0.6073
vn 0.8809 -0.4683 -0.0687
vn 0.0193 -0.0286 0.9994
vn -0.3640 -0.3965 0.8428
vn -0.0557 0.0249 0.9981
vn -0.1093 -0.0210 0.9938
vn -0.0602 0.0258 0.9979
vn -0.0252 0.0397 0.9989
vn -0.0476 0.0573 0.9972
vn -0.0606 0.0264 0.9978
vn 0.7653 -0.0600 0.6408
vn 0.9955 0.0931 -0.0193
vn 0.7996 -0.0497 -0.5985
vn 0.9572 0.2840 0.0551
vn 0.0537 0.0075 -0.9985
vn 0.6020 -0.3407 -0.7222
vn -0.0020 0.0186 -0.9998
vn 0.6786 0.0984 -0.7279
vn 0.0503 0.0128 0.9987
vn -0.0367 -0.0083 0.9993
vn 0.7806 0.1439 0.6083
vn 0.6047 0.3640 0.7084
s 1
f 1/1/1 2/2/2 3/3/3
f 4/4/4 1/5/1 3/6/3
f 1/1/1 5/7/5 2/2/2
f 3/6/3 6/8/6 4/4/4
f 7/9/7 6/8/6 3/6/3
f 6/8/6 7/9/7 8/10/8
f 7/11/7 3/3/3 2/2/2
f 2/2/2 9/12/9 7/11/7
f 10/13/10 5/14/5 1/15/1
f 11/16/11 4/4/4 12/17/12
f 6/8/6 13/18/13 14/19/14
f 14/19/14 12/17/12 4/4/4
f 9/12/9 15/20/15 8/21/8
f 7/11/7 9/12/9 8/21/8
f 15/20/15 16/22/16 8/21/8
f 13/18/13 17/23/17 14/19/14
f 17/23/17 18/24/18 19/25/19
f 13/18/13 16/26/16 18/24/18
f 16/22/16 20/27/20 18/28/18
f 20/27/20 16/22/16 15/20/15
f 20/27/20 21/29/21 18/28/18
f 18/28/18 21/29/21 19/30/19
f 5/14/5 10/13/10 22/31/22
f 5/32/5 23/33/23 24/34/24
f 24/34/24 25/35/25 5/32/5
f 2/2/2 25/36/25 26/37/26
f 25/35/25 24/34/24 26/38/26
f 27/39/27 26/38/26 24/34/24
f 28/40/28 2/2/2 26/37/26
f 29/41/29 28/42/28 30/43/30
f 15/20/15 9/12/9 29/44/29
f 30/45/30 27/46/27 31/47/31
f 30/45/30 31/47/31 32/48/32
f 29/49/29 30/45/30 32/48/32
f 32/50/32 21/29/21 20/27/20
f 31/47/31 21/51/21 32/48/32
f 12/17/12 33/52/33 11/16/11
f 33/53/33 34/54/34 11/55/11
f 35/56/35 12/17/12 36/57/36
f 33/53/33 35/58/35 37/59/37
f 37/59/37 38/60/38 34/54/34
f 35/58/35 39/61/39 37/59/37
f 39/61/39 35/58/35 40/62/40
f 35/56/35 36/57/36 40/63/40
f 37/59/37 41/64/41 42/65/42
f 41/66/41 43/67/43 42/68/42
f 44/69/44 39/61/39 45/70/45
f 41/66/41 44/71/44 46/72/46
f 38/60/38 42/65/42 47/73/47
f 42/74/42 48/75/48 47/76/47
f 43/67/43 46/72/46 49/77/49
f 50/78/50 48/75/48 49/79/49
f 50/78/50 23/33/23 48/75/48
f 50/80/50 51/81/51 52/82/52
f 52/82/52 51/81/51 53/83/53
f 51/81/51 49/77/49 46/72/46
f 45/70/45 54/84/54 44/69/44
f 54/84/54 45/70/45 55/85/55
f 54/86/54 46/72/46 44/71/44
f 45/70/45 56/87/56 55/85/55
f 55/85/55 57/88/57 54/84/54
f 58/89/58 56/90/56 59/91/59
f 56/87/56 45/70/45 59/92/59
f 40/63/40 58/89/58 59/91/59
f 59/92/59 45/70/45 40/62/40
f 36/57/36 58/89/58 40/63/40
f 36/57/36 14/19/14 60/93/60
f 17/23/17 60/93/60 14/19/14
f 17/23/17 58/89/58 60/93/60
f 56/90/56 58/89/58 61/94/61
f 17/23/17 61/94/61 58/89/58
f 19/25/19 61/94/61 17/23/17
f 61/95/61 19/30/19 55/96/55
f 55/96/55 19/30/19 57/97/57
f 62/98/62 53/83/53 51/81/51
f 63/99/63 53/83/53 62/98/62
f 51/81/51 46/72/46 62/98/62
f 62/98/62 46/72/46 54/86/54
f 64/100/64 54/84/54 57/88/57
f 62/98/62 65/101/65 63/99/63
f 19/30/19 21/29/21 57/97/57
f 57/97/57 21/29/21 65/102/65
f 57/97/57 65/102/65 64/103/64
f 31/47/31 63/99/63 65/101/65
f 4/4/4 11/16/11 1/5/1
f 11/55/11 10/13/10 1/15/1
f 4/4/4 6/8/6 14/19/14
f 36/57/36 12/17/12 14/19/14
f 20/27/20 15/20/15 29/44/29
f 6/8/6 8/10/8 13/18/13
f 8/10/8 16/26/16 13/18/13
f 13/18/13 18/24/18 17/23/17
f 34/54/34 10/13/10 11/55/11
f 38/60/38 22/31/22 10/13/10
f 5/32/5 22/104/22 23/33/23
f 5/7/5 25/36/25 2/2/2
f 23/33/23 50/78/50 24/34/24
f 52/105/52 53/106/53 24/34/24
f 27/39/27 24/34/24 53/106/53
f 26/38/26 30/43/30 28/42/28
f 2/2/2 28/40/28 9/12/9
f 26/38/26 27/39/27 30/43/30
f 29/44/29 9/12/9 28/40/28
f 52/105/52 24/34/24 50/78/50
f 63/99/63 31/47/31 27/46/27
f 20/27/20 29/44/29 32/50/32
f 33/53/33 37/59/37 34/54/34
f 42/65/42 38/60/38 37/59/37
f 33/52/33 12/17/12 35/56/35
f 40/62/40 45/70/45 39/61/39
f 39/61/39 41/64/41 37/59/37
f 44/69/44 41/64/41 39/61/39
f 46/72/46 43/67/43 41/66/41
f 38/60/38 10/13/10 34/54/34
f 38/60/38 23/107/23 22/31/22
f 47/73/47 23/107/23 38/60/38
f 23/33/23 47/76/47 48/75/48
f 43/67/43 49/77/49 42/68/42
f 49/79/49 48/75/48 42/74/42
f 51/81/51 50/80/50 49/77/49
f 58/89/58 36/57/36 60/93/60
f 56/108/56 61/95/61 55/96/55
f 63/99/63 27/46/27 53/83/53
f 64/109/64 62/98/62 54/86/54
f 64/109/64 65/101/65 62/98/62
f 21/51/21 31/47/31 65/101/65
